<?xml version="1.0" encoding="UTF-8"?>
<svg xmlns="http://www.w3.org/2000/svg" version="1.1" xmlns:xlink="http://www.w3.org/1999/xlink" viewBox="0 0 4464 576">
  <defs>
    <style>
      .cls-1 {
        clip-path: url(#clippath-6);
      }

      .cls-2 {
        clip-path: url(#clippath-7);
      }

      .cls-3 {
        clip-path: url(#clippath-31);
      }

      .cls-4 {
        clip-path: url(#clippath-4);
      }

      .cls-5 {
        clip-path: url(#clippath-22);
      }

      .cls-6 {
        stroke: red;
      }

      .cls-6, .cls-7, .cls-8, .cls-9, .cls-10 {
        fill: none;
      }

      .cls-6, .cls-8, .cls-9 {
        stroke-width: 2.13px;
      }

      .cls-6, .cls-8, .cls-9, .cls-10 {
        stroke-linejoin: round;
      }

      .cls-11 {
        font-size: 16px;
      }

      .cls-11, .cls-12 {
        font-family: ArialMT, Arial;
      }

      .cls-13 {
        clip-path: url(#clippath-9);
      }

      .cls-14 {
        clip-path: url(#clippath-10);
      }

      .cls-15 {
        fill: #fff;
      }

      .cls-16 {
        clip-path: url(#clippath-25);
      }

      .cls-17 {
        clip-path: url(#clippath-11);
      }

      .cls-18 {
        clip-path: url(#clippath-36);
      }

      .cls-19 {
        clip-path: url(#clippath-35);
      }

      .cls-20 {
        clip-path: url(#clippath-28);
      }

      .cls-21 {
        clip-path: url(#clippath-1);
      }

      .cls-12 {
        font-size: 20px;
      }

      .cls-22 {
        letter-spacing: .03em;
      }

      .cls-23 {
        fill: red;
      }

      .cls-23, .cls-24 {
        opacity: .4;
      }

      .cls-25 {
        clip-path: url(#clippath-5);
      }

      .cls-26 {
        clip-path: url(#clippath-8);
      }

      .cls-8 {
        stroke: blue;
      }

      .cls-27 {
        letter-spacing: .03em;
      }

      .cls-28 {
        clip-path: url(#clippath-3);
      }

      .cls-24 {
        fill: blue;
      }

      .cls-29 {
        clip-path: url(#clippath-12);
      }

      .cls-30 {
        clip-path: url(#clippath-19);
      }

      .cls-9 {
        stroke-linecap: square;
      }

      .cls-9, .cls-10 {
        stroke: #000;
      }

      .cls-31 {
        clip-path: url(#clippath-32);
      }

      .cls-32 {
        clip-path: url(#clippath-16);
      }

      .cls-33 {
        clip-path: url(#clippath-2);
      }

      .cls-10 {
        stroke-width: 1.07px;
      }

      .cls-34 {
        clip-path: url(#clippath-13);
      }

      .cls-35 {
        clip-path: url(#clippath);
      }
    </style>
    <clipPath id="clippath">
      <rect class="cls-7" width="4464" height="576"/>
    </clipPath>
    <clipPath id="clippath-1">
      <rect class="cls-7" x="82.34" y="30.39" width="701.23" height="240.58"/>
    </clipPath>
    <clipPath id="clippath-2">
      <rect class="cls-7" x="82.34" y="277.94" width="701.23" height="240.58"/>
    </clipPath>
    <clipPath id="clippath-3">
      <rect class="cls-7" x="790.54" y="30.39" width="701.23" height="240.58"/>
    </clipPath>
    <clipPath id="clippath-4">
      <rect class="cls-7" x="790.54" y="277.94" width="701.23" height="240.58"/>
    </clipPath>
    <clipPath id="clippath-5">
      <rect class="cls-7" x="1498.74" y="30.39" width="701.23" height="240.58"/>
    </clipPath>
    <clipPath id="clippath-6">
      <rect class="cls-7" x="1498.74" y="277.94" width="701.23" height="240.58"/>
    </clipPath>
    <clipPath id="clippath-7">
      <rect class="cls-7" x="2206.94" y="30.39" width="701.23" height="240.58"/>
    </clipPath>
    <clipPath id="clippath-8">
      <rect class="cls-7" x="2206.94" y="277.94" width="701.23" height="240.58"/>
    </clipPath>
    <clipPath id="clippath-9">
      <rect class="cls-7" x="2915.14" y="30.39" width="701.23" height="240.58"/>
    </clipPath>
    <clipPath id="clippath-10">
      <rect class="cls-7" x="2915.14" y="277.94" width="701.23" height="240.58"/>
    </clipPath>
    <clipPath id="clippath-11">
      <rect class="cls-7" x="3623.35" y="30.39" width="701.23" height="240.58"/>
    </clipPath>
    <clipPath id="clippath-12">
      <rect class="cls-7" x="3623.35" y="277.94" width="701.23" height="240.58"/>
    </clipPath>
    <clipPath id="clippath-13">
      <rect class="cls-7" x="82.34" y="6.97" width="701.23" height="23.41"/>
    </clipPath>
    <clipPath id="clippath-16">
      <rect class="cls-7" x="790.54" y="6.97" width="701.23" height="23.41"/>
    </clipPath>
    <clipPath id="clippath-19">
      <rect class="cls-7" x="1498.74" y="6.97" width="701.23" height="23.41"/>
    </clipPath>
    <clipPath id="clippath-22">
      <rect class="cls-7" x="2206.94" y="6.97" width="701.23" height="23.41"/>
    </clipPath>
    <clipPath id="clippath-25">
      <rect class="cls-7" x="2915.14" y="6.97" width="701.23" height="23.41"/>
    </clipPath>
    <clipPath id="clippath-28">
      <rect class="cls-7" x="3623.35" y="6.97" width="701.23" height="23.41"/>
    </clipPath>
    <clipPath id="clippath-31">
      <rect class="cls-7" x="4324.57" y="30.39" width="46.82" height="240.58"/>
    </clipPath>
    <clipPath id="clippath-32">
      <rect class="cls-7" x="4324.57" y="30.39" width="46.82" height="240.58"/>
    </clipPath>
    <clipPath id="clippath-35">
      <rect class="cls-7" x="4324.57" y="277.94" width="46.82" height="240.58"/>
    </clipPath>
    <clipPath id="clippath-36">
      <rect class="cls-7" x="4324.57" y="277.94" width="46.82" height="240.58"/>
    </clipPath>
  </defs>
  <!-- Generator: Adobe Illustrator 28.7.7, SVG Export Plug-In . SVG Version: 1.2.0 Build 194)  -->
  <g>
    <g id="Layer_1">
      <g class="cls-35">
        <rect class="cls-15" width="4464" height="576"/>
      </g>
      <g class="cls-21">
        <polygon class="cls-24" points="114.21 209.15 120.85 223.26 127.49 185.44 134.13 161.71 140.77 135.03 147.41 125.65 154.05 98.18 160.69 86.9 167.33 93.57 173.97 103.36 180.62 97.17 187.26 108.76 193.9 95.1 200.54 96.37 207.18 87.71 213.82 114.06 220.46 115.74 227.1 113.19 233.74 147.1 240.38 131.85 247.02 162.56 253.66 168.54 260.3 217.84 266.94 246.35 273.58 255.64 280.22 222.39 286.86 96.63 293.5 55.43 300.14 56.29 306.78 52.47 313.42 60.72 320.06 65.27 326.7 68.97 333.34 70.65 339.99 58.64 346.63 66.09 353.27 64.3 359.91 81.43 366.55 68.74 373.19 72.33 379.83 68.52 386.47 64.24 393.11 71.31 399.75 75.66 406.39 49.41 413.03 61.77 419.67 60.05 426.31 81.63 432.95 215.77 439.59 217.43 446.23 181.72 452.87 144.77 459.51 120.3 466.15 100.06 472.79 97.73 479.43 85.31 486.07 79.8 492.71 86.19 499.36 78.42 506 78.59 512.64 85.16 519.28 82.2 525.92 79.17 532.56 112.94 539.2 107.16 545.84 111.22 552.48 119.92 559.12 143.88 565.76 127.66 572.4 179.98 579.04 189.59 585.68 230.31 592.32 253.43 598.96 196.94 605.6 75.89 612.24 45.25 618.88 46.43 625.52 45.35 632.16 44.34 638.8 46.11 645.44 49.28 652.08 51.8 658.73 57.71 665.37 51.57 672.01 49.01 678.65 56.81 685.29 59.29 691.93 65.46 698.57 60.94 705.21 54.54 711.85 62.03 718.49 70.55 725.13 62.91 731.77 76.73 738.41 73.2 745.05 70.65 751.69 45.62 751.69 65.24 745.05 88.18 738.41 89.4 731.77 96.68 725.13 76.17 718.49 89.23 711.85 77.05 705.21 66.19 698.57 74.84 691.93 82.55 685.29 75.09 678.65 70.98 672.01 58.09 665.37 60.7 658.73 74.31 652.08 65.17 645.44 60.17 638.8 53.46 632.16 49.12 625.52 49.52 618.88 57.37 612.24 58.08 605.6 97.06 598.96 216.82 592.32 257.69 585.68 243.66 579.04 210.53 572.4 199.44 565.76 145.47 559.12 164.99 552.48 134.86 545.84 127.57 539.2 123.16 532.56 131.03 525.92 90.96 519.28 95.45 512.64 100.48 506 93.89 499.36 91.24 492.71 104.15 486.07 93.62 479.43 99.86 472.79 114.25 466.15 115.68 459.51 139.66 452.87 166.93 446.23 199.58 439.59 232.54 432.95 226.21 426.31 102.14 419.67 73.38 413.03 77.78 406.39 57.22 399.75 92.58 393.11 84.7 386.47 80.02 379.83 86.55 373.19 89.33 366.55 82.57 359.91 102.33 353.27 81.83 346.63 81.93 339.99 69.62 333.34 83.95 326.7 82.34 320.06 80.87 313.42 76.01 306.78 63.09 300.14 70.56 293.5 71.42 286.86 120.53 280.22 238.88 273.58 259.25 266.94 252.54 260.3 233.55 253.66 188.31 247.02 183 240.38 147.4 233.74 161.77 227.1 130.77 220.46 131.04 213.82 132.25 207.18 105.46 200.54 112.79 193.9 113.59 187.26 129.09 180.62 113.87 173.97 121.8 167.33 112.77 160.69 101.09 154.05 113.8 147.41 145.12 140.77 153.15 134.13 181.97 127.49 207.62 120.85 237.07 114.21 221.07 114.21 209.15"/>
        <polyline class="cls-8" points="114.21 215.11 120.85 230.16 127.49 196.53 134.13 171.84 140.77 144.09 147.41 135.39 154.05 105.99 160.69 94 167.33 103.17 173.97 112.58 180.62 105.52 187.26 118.93 193.9 104.34 200.54 104.58 207.18 96.58 213.82 123.16 220.46 123.39 227.1 121.98 233.74 154.44 240.38 139.62 247.02 172.78 253.66 178.42 260.3 225.69 266.94 249.45 273.58 257.44 280.22 230.63 286.86 108.58 293.5 63.42 300.14 63.42 306.78 57.78 313.42 68.36 320.06 73.07 326.7 75.65 333.34 77.3 339.99 64.13 346.63 74.01 353.27 73.07 359.91 91.88 366.55 75.65 373.19 80.83 379.83 77.54 386.47 72.13 393.11 78.01 399.75 84.12 406.39 53.31 413.03 69.77 419.67 66.72 426.31 91.88 432.95 220.99 439.59 224.99 446.23 190.65 452.87 155.85 459.51 129.98 466.15 107.87 472.79 105.99 479.43 92.59 486.07 86.71 492.71 95.17 499.36 84.83 506 86.24 512.64 92.82 519.28 88.82 525.92 85.06 532.56 121.98 539.2 115.16 545.84 119.4 552.48 127.39 559.12 154.44 565.76 136.56 572.4 189.71 579.04 200.06 585.68 236.98 592.32 255.56 598.96 206.88 605.6 86.47 612.24 51.67 618.88 51.9 625.52 47.43 632.16 46.73 638.8 49.78 645.44 54.72 652.08 58.49 658.73 66.01 665.37 56.13 672.01 53.55 678.65 63.9 685.29 67.19 691.93 74.01 698.57 67.89 705.21 60.37 711.85 69.54 718.49 79.89 725.13 69.54 731.77 86.71 738.41 81.3 745.05 79.42 751.69 55.43"/>
        <rect class="cls-15" x="114.21" y="263.75" width="159.37" height="7.22"/>
        <rect class="cls-10" x="114.21" y="263.75" width="159.37" height="7.22"/>
        <rect x="273.58" y="263.75" width="159.37" height="7.22"/>
        <rect class="cls-10" x="273.58" y="263.75" width="159.37" height="7.22"/>
        <rect class="cls-15" x="432.95" y="263.75" width="159.37" height="7.22"/>
        <rect class="cls-10" x="432.95" y="263.75" width="159.37" height="7.22"/>
        <rect x="592.32" y="263.75" width="159.37" height="7.22"/>
        <rect class="cls-10" x="592.32" y="263.75" width="159.37" height="7.22"/>
      </g>
      <g class="cls-33">
        <polygon class="cls-23" points="114.21 460.83 120.85 483.34 127.49 462.67 134.13 430.14 140.77 430.66 147.41 380.39 154.05 370.7 160.69 366.51 167.33 332.67 173.97 340.27 180.62 324.3 187.26 346.35 193.9 336.32 200.54 325.26 207.18 363.59 213.82 332.53 220.46 360.42 227.1 353.95 233.74 375.67 240.38 370.55 247.02 404.69 253.66 429.43 260.3 442.72 266.94 479.41 266.94 490.07 260.3 458.73 253.66 449.66 247.02 420.45 240.38 389.46 233.74 396 227.1 372.53 220.46 379.17 213.82 346.31 207.18 383.78 200.54 339.49 193.9 354.19 187.26 366.03 180.62 338.02 173.97 355.1 167.33 350.55 160.69 385.72 154.05 392.23 147.41 401.97 140.77 447.46 134.13 451.38 127.49 481.06 120.85 495.86 114.21 471.23 114.21 460.83"/>
        <polygon class="cls-23" points="280.22 477.17 286.86 392.55 293.5 332.48 300.14 304.53 306.78 309.68 313.42 317.52 320.06 314.12 326.7 315.38 333.34 319.18 339.99 323.96 346.63 309.65 353.27 317.66 359.91 310.34 366.55 316.24 373.19 314.43 379.83 306.82 386.47 318.83 393.11 312.87 399.75 312.83 406.39 326.11 413.03 320.71 419.67 312.09 426.31 318.22 432.95 448.47 439.59 487.67 446.23 443.54 452.87 416.63 459.51 400.34 466.15 368.7 472.79 367.03 479.43 347.74 486.07 341.3 492.71 318.54 499.36 340.71 506 348.81 512.64 339.74 519.28 332.91 525.92 360.09 532.56 356.8 539.2 352.05 545.84 374.21 552.48 366.21 559.12 380.87 565.76 388.95 572.4 413.92 579.04 446.26 585.68 469.05 592.32 500.92 598.96 457.47 605.6 353.31 612.24 315.58 618.88 302.84 625.52 301.01 632.16 308.68 638.8 307.73 645.44 313.69 652.08 310.14 658.73 316.43 665.37 314.62 672.01 313.39 678.65 311.23 685.29 308.52 691.93 309.45 698.57 306.73 705.21 312.77 711.85 312.55 718.49 319.7 725.13 311.1 731.77 315.05 738.41 310.86 745.05 310.52 751.69 304.23 751.69 331.84 745.05 326.04 738.41 325.21 731.77 331.23 725.13 325.46 718.49 335.81 711.85 327.9 705.21 327.19 698.57 320.11 691.93 323.71 685.29 321.23 678.65 326.79 672.01 327.54 665.37 335.54 658.73 333.74 652.08 322.53 645.44 327.25 638.8 327.37 632.16 325.94 625.52 316.59 618.88 319.14 612.24 338.96 605.6 384.34 598.96 478.96 592.32 505.02 585.68 478.57 579.04 462.95 572.4 428.72 565.76 409.94 559.12 399.07 552.48 384.56 545.84 393.09 539.2 368.59 532.56 373.56 525.92 378.53 519.28 350.3 512.64 360 506 367.45 499.36 360 492.71 330.17 486.07 356.02 479.43 368.04 472.79 385.69 466.15 393.25 459.51 421.88 452.87 437.19 446.23 464.22 439.59 496.39 432.95 458.8 426.31 336.32 419.67 327.87 413.03 342.1 406.39 346.9 399.75 329.56 393.11 330.01 386.47 338.15 379.83 317.59 373.19 329.9 366.55 335.38 359.91 326.22 353.27 331.53 346.63 326.43 339.99 341.76 333.34 336.82 326.7 331.38 320.06 330.21 313.42 334.59 306.78 323.96 300.14 318.42 293.5 357.06 286.86 425.78 280.22 493.77 280.22 477.17"/>
        <polyline class="cls-6" points="114.21 466.03 120.85 489.6 127.49 471.86 134.13 440.76 140.77 439.06 147.41 391.18 154.05 381.46 160.69 376.12 167.33 341.61 173.97 347.68 180.62 331.16 187.26 356.19 193.9 345.25 200.54 332.37 207.18 373.69 213.82 339.42 220.46 369.8 227.1 363.24 233.74 385.84 240.38 380 247.02 412.57 253.66 439.54 260.3 450.72 266.94 484.74 273.58 506.37 280.22 485.47 286.86 409.17 293.5 344.77 300.14 311.47 306.78 316.82 313.42 326.06 320.06 322.17 326.7 323.38 333.34 328 339.99 332.86 346.63 318.04 353.27 324.6 359.91 318.28 366.55 325.81 373.19 322.17 379.83 312.2 386.47 328.49 393.11 321.44 399.75 321.2 406.39 336.5 413.03 331.4 419.67 319.98 426.31 327.27 432.95 453.64 439.59 492.03 446.23 453.88 452.87 426.91 459.51 411.11 466.15 380.98 472.79 376.36 479.43 357.89 486.07 348.66 492.71 324.35 499.36 350.36 506 358.13 512.64 349.87 519.28 341.61 525.92 369.31 532.56 365.18 539.2 360.32 545.84 383.65 552.48 375.39 559.12 389.97 565.76 399.44 572.4 421.32 579.04 454.61 585.68 473.81 592.32 502.97 598.96 468.22 605.6 368.83 612.24 327.27 618.88 310.99 625.52 308.8 632.16 317.31 638.8 317.55 645.44 320.47 652.08 316.33 658.73 325.08 665.37 325.08 672.01 320.47 678.65 319.01 685.29 314.88 691.93 316.58 698.57 313.42 705.21 319.98 711.85 320.22 718.49 327.76 725.13 318.28 731.77 323.14 738.41 318.04 745.05 318.28 751.69 318.04"/>
        <rect class="cls-15" x="114.21" y="511.3" width="159.37" height="7.22"/>
        <rect class="cls-10" x="114.21" y="511.3" width="159.37" height="7.22"/>
        <rect x="273.58" y="511.3" width="159.37" height="7.22"/>
        <rect class="cls-10" x="273.58" y="511.3" width="159.37" height="7.22"/>
        <rect class="cls-15" x="432.95" y="511.3" width="159.37" height="7.22"/>
        <rect class="cls-10" x="432.95" y="511.3" width="159.37" height="7.22"/>
        <rect x="592.32" y="511.3" width="159.37" height="7.22"/>
        <rect class="cls-10" x="592.32" y="511.3" width="159.37" height="7.22"/>
      </g>
      <g class="cls-28">
        <polygon class="cls-24" points="822.41 180.72 829.05 189.14 835.69 126.51 842.33 109.4 848.97 86.09 855.62 82.32 862.26 59.79 868.9 73.79 875.54 53.96 882.18 69.33 888.82 56.59 895.46 58.54 902.1 60.04 908.74 56.75 915.38 64.33 922.02 65.23 928.66 78.46 935.3 68.04 941.94 65.34 948.58 57.63 955.22 96.51 961.86 92.19 968.5 103.32 975.14 168.47 981.78 126.01 988.42 43.28 995.06 44.52 1001.7 43.55 1008.34 46.89 1014.99 44.84 1021.63 42.01 1028.27 41.94 1034.91 43.01 1041.55 44.2 1048.19 43.08 1054.83 46.66 1061.47 44.25 1068.11 43.87 1074.75 43.5 1081.39 50.52 1088.03 50.55 1094.67 50.47 1101.31 50.29 1107.95 58.64 1114.59 56.78 1121.23 65.63 1127.87 73.45 1134.51 67.31 1141.15 182.13 1147.79 192.02 1154.43 127.48 1161.07 101.31 1167.71 90.12 1174.36 68.36 1181 59.08 1187.64 69.16 1194.28 66.77 1200.92 66.07 1207.56 73.91 1214.2 66.76 1220.84 53.88 1227.48 59.16 1234.12 63.81 1240.76 65.12 1247.4 63.8 1254.04 75.22 1260.68 65.69 1267.32 89 1273.96 86.03 1280.6 104.52 1287.24 104.51 1293.88 165.79 1300.52 122.25 1307.16 42.04 1313.8 45.5 1320.44 48.42 1327.08 47.23 1333.73 44.31 1340.37 47.34 1347.01 44.39 1353.65 47.54 1360.29 51.35 1366.93 47.64 1373.57 48.85 1380.21 46.35 1386.85 56.3 1393.49 47.26 1400.13 51.17 1406.77 55.25 1413.41 56.64 1420.05 73.16 1426.69 57.91 1433.33 70.81 1439.97 62.33 1446.61 62.55 1453.25 73.47 1459.89 57.23 1459.89 85.74 1453.25 91.12 1446.61 75.4 1439.97 80.64 1433.33 84.73 1426.69 75.51 1420.05 88.92 1413.41 67.23 1406.77 65.6 1400.13 60.13 1393.49 52.48 1386.85 67.06 1380.21 53.88 1373.57 57.92 1366.93 53.6 1360.29 60.45 1353.65 57.22 1347.01 50.81 1340.37 57.92 1333.73 49.89 1327.08 54.01 1320.44 60.36 1313.8 52.23 1307.16 45.12 1300.52 142.39 1293.88 192.37 1287.24 131.48 1280.6 122.92 1273.96 110.23 1267.32 107.27 1260.68 79.29 1254.04 95.4 1247.4 77.16 1240.76 76.34 1234.12 81.68 1227.48 77.78 1220.84 66.97 1214.2 84.25 1207.56 94.2 1200.92 83.94 1194.28 81.73 1187.64 85.88 1181 75.34 1174.36 88.69 1167.71 116.7 1161.07 129.15 1154.43 155.77 1147.79 216.92 1141.15 197.15 1134.51 88.73 1127.87 100.19 1121.23 87.9 1114.59 67.09 1107.95 73.27 1101.31 64.02 1094.67 64.85 1088.03 60.75 1081.39 61.78 1074.75 48.69 1068.11 49.33 1061.47 52.97 1054.83 55.59 1048.19 52.63 1041.55 49 1034.91 46.67 1028.27 43.21 1021.63 44.14 1014.99 49.86 1008.34 54.85 1001.7 46.12 995.06 48.67 988.42 46.4 981.78 144.66 975.14 192.71 968.5 123.11 961.86 115.14 955.22 116.85 948.58 69.76 941.94 79.14 935.3 85.99 928.66 97.69 922.02 87.29 915.38 81.15 908.74 74.15 902.1 74.89 895.46 73.87 888.82 70.79 882.18 89.23 875.54 74.43 868.9 89.29 862.26 78.66 855.62 107.91 848.97 113.7 842.33 137.64 835.69 158.24 829.05 212.26 822.41 200.07 822.41 180.72"/>
        <polyline class="cls-8" points="822.41 190.39 829.05 200.7 835.69 142.38 842.33 123.52 848.97 99.89 855.62 95.12 862.26 69.22 868.9 81.54 875.54 64.2 882.18 79.28 888.82 63.69 895.46 66.21 902.1 67.46 908.74 65.45 915.38 72.74 922.02 76.26 928.66 88.08 935.3 77.02 941.94 72.24 948.58 63.69 955.22 106.68 961.86 103.66 968.5 113.22 975.14 180.59 981.78 135.34 988.42 44.84 995.06 46.6 1001.7 44.84 1008.34 50.87 1014.99 47.35 1021.63 43.08 1028.27 42.58 1034.91 44.84 1041.55 46.6 1048.19 47.85 1054.83 51.12 1061.47 48.61 1068.11 46.6 1074.75 46.1 1081.39 56.15 1088.03 55.65 1094.67 57.66 1101.31 57.16 1107.95 65.96 1114.59 61.93 1121.23 76.76 1127.87 86.82 1134.51 78.02 1141.15 189.64 1147.79 204.47 1154.43 141.62 1161.07 115.23 1167.71 103.41 1174.36 78.52 1181 67.21 1187.64 77.52 1194.28 74.25 1200.92 75.01 1207.56 84.06 1214.2 75.51 1220.84 60.42 1227.48 68.47 1234.12 72.74 1240.76 70.73 1247.4 70.48 1254.04 85.31 1260.68 72.49 1267.32 98.13 1273.96 98.13 1280.6 113.72 1287.24 117.99 1293.88 179.08 1300.52 132.32 1307.16 43.58 1313.8 48.86 1320.44 54.39 1327.08 50.62 1333.73 47.1 1340.37 52.63 1347.01 47.6 1353.65 52.38 1360.29 55.9 1366.93 50.62 1373.57 53.39 1380.21 50.12 1386.85 61.68 1393.49 49.87 1400.13 55.65 1406.77 60.42 1413.41 61.93 1420.05 81.04 1426.69 66.71 1433.33 77.77 1439.97 71.49 1446.61 68.97 1453.25 82.3 1459.89 71.49"/>
        <rect class="cls-15" x="822.41" y="263.75" width="159.37" height="7.22"/>
        <rect class="cls-10" x="822.41" y="263.75" width="159.37" height="7.22"/>
        <rect x="981.78" y="263.75" width="159.37" height="7.22"/>
        <rect class="cls-10" x="981.78" y="263.75" width="159.37" height="7.22"/>
        <rect class="cls-15" x="1141.15" y="263.75" width="159.37" height="7.22"/>
        <rect class="cls-10" x="1141.15" y="263.75" width="159.37" height="7.22"/>
        <rect x="1300.52" y="263.75" width="159.37" height="7.22"/>
        <rect class="cls-10" x="1300.52" y="263.75" width="159.37" height="7.22"/>
      </g>
      <g class="cls-4">
        <polygon class="cls-23" points="822.41 406.23 829.05 412.79 835.69 399.47 842.33 372.26 848.97 368.75 855.62 355.21 862.26 341.64 868.9 319.7 875.54 325.27 882.18 315.72 888.82 320.64 895.46 306.88 902.1 316.81 908.74 316.43 915.38 310.55 922.02 306.31 928.66 322.92 935.3 324.92 941.94 328.69 948.58 332.93 955.22 344.06 961.86 357.3 968.5 383.15 975.14 405.76 981.78 383.2 988.42 297.17 995.06 298.97 1001.7 293.83 1008.34 296.23 1014.99 296.21 1021.63 294.21 1028.27 293.13 1034.91 293.86 1041.55 303.99 1048.19 296.11 1054.83 301.3 1061.47 297.68 1068.11 300.67 1074.75 299.35 1081.39 297.13 1088.03 301.06 1094.67 308.31 1101.31 321.71 1107.95 342.89 1114.59 327.31 1121.23 310.96 1127.87 329.64 1134.51 345.11 1141.15 415.62 1147.79 426.84 1154.43 392.69 1161.07 374.56 1167.71 351.34 1174.36 338.93 1181 331.98 1187.64 326.81 1194.28 308.19 1200.92 326.16 1207.56 315.42 1214.2 313.87 1220.84 310.34 1227.48 311.9 1234.12 314.78 1240.76 307.34 1247.4 317.02 1254.04 342.23 1260.68 323.9 1267.32 332.56 1273.96 339.73 1280.6 346.72 1287.24 386.78 1293.88 409.85 1300.52 377.28 1307.16 298.18 1313.8 303.86 1320.44 306.69 1327.08 297.8 1333.73 297.1 1340.37 298.14 1347.01 298.24 1353.65 299.69 1360.29 299.85 1366.93 295.52 1373.57 302.23 1380.21 300.52 1386.85 304.21 1393.49 305.19 1400.13 307.93 1406.77 309.49 1413.41 305.14 1420.05 322.02 1426.69 318.38 1433.33 353.96 1439.97 337.29 1446.61 329.65 1453.25 329.73 1459.89 314.55 1459.89 345.21 1453.25 355.55 1446.61 351.53 1439.97 361.66 1433.33 378.25 1426.69 339.56 1420.05 341.85 1413.41 318.63 1406.77 322.94 1400.13 326.32 1393.49 318.12 1386.85 314.55 1380.21 310.49 1373.57 315.16 1366.93 306.83 1360.29 309.79 1353.65 309.04 1347.01 307.3 1340.37 307.85 1333.73 311.63 1327.08 309.57 1320.44 326.65 1313.8 319.46 1307.16 312.83 1300.52 401.41 1293.88 435.82 1287.24 414.69 1280.6 369.09 1273.96 358.31 1267.32 350.9 1260.68 345.44 1254.04 365.84 1247.4 338.64 1240.76 322.81 1234.12 331.31 1227.48 328.27 1220.84 326.18 1214.2 329.95 1207.56 329.76 1200.92 347.73 1194.28 325.14 1187.64 349.36 1181 357.86 1174.36 360.93 1167.71 377.68 1161.07 407.32 1154.43 421.99 1147.79 451.64 1141.15 433.24 1134.51 371.61 1127.87 355.64 1121.23 328.3 1114.59 352.5 1107.95 368.36 1101.31 343.06 1094.67 321.38 1088.03 313.14 1081.39 307.5 1074.75 308.47 1068.11 311.7 1061.47 304.68 1054.83 312.9 1048.19 303.51 1041.55 315.68 1034.91 299.84 1028.27 300.57 1021.63 304.05 1014.99 303.41 1008.34 309.31 1001.7 307.62 995.06 316.6 988.42 309.74 981.78 404.6 975.14 430.79 968.5 411.49 961.86 382.21 955.22 366.74 948.58 355.54 941.94 348.85 935.3 346.69 928.66 342.32 922.02 322.47 915.38 327.8 908.74 338.77 902.1 335.67 895.46 320.08 888.82 340.04 882.18 332.2 875.54 345.43 868.9 342.34 862.26 365.06 855.62 381.56 848.97 398.09 842.33 399.59 835.69 430.25 829.05 439.71 822.41 424.86 822.41 406.23"/>
        <polyline class="cls-6" points="822.41 415.54 829.05 426.25 835.69 414.86 842.33 385.93 848.97 383.42 855.62 368.38 862.26 353.35 868.9 331.02 875.54 335.35 882.18 323.96 888.82 330.34 895.46 313.48 902.1 326.24 908.74 327.6 915.38 319.18 922.02 314.39 928.66 332.62 935.3 335.81 941.94 338.77 948.58 344.24 955.22 355.4 961.86 369.75 968.5 397.32 975.14 418.28 981.78 393.9 988.42 303.46 995.06 307.78 1001.7 300.72 1008.34 302.77 1014.99 299.81 1021.63 299.13 1028.27 296.85 1034.91 296.85 1041.55 309.83 1048.19 299.81 1054.83 307.1 1061.47 301.18 1068.11 306.19 1074.75 303.91 1081.39 302.32 1088.03 307.1 1094.67 314.85 1101.31 332.39 1107.95 355.63 1114.59 339.91 1121.23 319.63 1127.87 342.64 1134.51 358.36 1141.15 424.43 1147.79 439.24 1154.43 407.34 1161.07 390.94 1167.71 364.51 1174.36 349.93 1181 344.92 1187.64 338.08 1194.28 316.67 1200.92 336.95 1207.56 322.59 1214.2 321.91 1220.84 318.26 1227.48 320.09 1234.12 323.05 1240.76 315.07 1247.4 327.83 1254.04 354.03 1260.68 334.67 1267.32 341.73 1273.96 349.02 1280.6 357.91 1287.24 400.74 1293.88 422.83 1300.52 389.34 1307.16 305.51 1313.8 311.66 1320.44 316.67 1327.08 303.68 1333.73 304.37 1340.37 303 1347.01 302.77 1353.65 304.37 1360.29 304.82 1366.93 301.18 1373.57 308.7 1380.21 305.51 1386.85 309.38 1393.49 311.66 1400.13 317.12 1406.77 316.21 1413.41 311.88 1420.05 331.93 1426.69 328.97 1433.33 366.11 1439.97 349.48 1446.61 340.59 1453.25 342.64 1459.89 329.88"/>
        <rect class="cls-15" x="822.41" y="511.3" width="159.37" height="7.22"/>
        <rect class="cls-10" x="822.41" y="511.3" width="159.37" height="7.22"/>
        <rect x="981.78" y="511.3" width="159.37" height="7.22"/>
        <rect class="cls-10" x="981.78" y="511.3" width="159.37" height="7.22"/>
        <rect class="cls-15" x="1141.15" y="511.3" width="159.37" height="7.22"/>
        <rect class="cls-10" x="1141.15" y="511.3" width="159.37" height="7.22"/>
        <rect x="1300.52" y="511.3" width="159.37" height="7.22"/>
        <rect class="cls-10" x="1300.52" y="511.3" width="159.37" height="7.22"/>
      </g>
      <g class="cls-25">
        <polygon class="cls-24" points="1530.61 203.98 1537.26 221.53 1543.9 187.89 1550.54 148.44 1557.18 141.2 1563.82 113.65 1570.46 103.34 1577.1 93.85 1583.74 103.85 1590.38 78.58 1597.02 87.91 1603.66 99.65 1610.3 96.69 1616.94 88.42 1623.58 75.79 1630.22 72.49 1636.86 90.82 1643.5 101.98 1650.14 97.98 1656.78 107.06 1663.42 114.19 1670.06 136.43 1676.7 164.26 1683.34 187.38 1689.98 186.96 1696.63 70.31 1703.27 62.51 1709.91 56.33 1716.55 56.16 1723.19 56.83 1729.83 68.16 1736.47 56.9 1743.11 55.5 1749.75 63.17 1756.39 67.9 1763.03 64.55 1769.67 64.12 1776.31 67.81 1782.95 61 1789.59 67.86 1796.23 59.62 1802.87 72.74 1809.51 82.44 1816.15 86.19 1822.79 86.38 1829.43 82.22 1836.07 75.11 1842.71 73.72 1849.36 189.98 1856 208.16 1862.64 175.5 1869.28 138.1 1875.92 133.39 1882.56 101.41 1889.2 104.04 1895.84 93.24 1902.48 79.09 1909.12 76.33 1915.76 84.9 1922.4 68.4 1929.04 72.69 1935.68 65.89 1942.32 64.36 1948.96 91.8 1955.6 90.06 1962.24 89.74 1968.88 105 1975.52 96.16 1982.16 109.55 1988.8 114.79 1995.44 163.57 2002.08 202.73 2008.73 168.92 2015.37 65.1 2022.01 62.8 2028.65 59.13 2035.29 54.65 2041.93 57.32 2048.57 61.17 2055.21 57.43 2061.85 56.66 2068.49 59.84 2075.13 54.72 2081.77 63.54 2088.41 60.7 2095.05 58.1 2101.69 58.55 2108.33 72.32 2114.97 78.95 2121.61 70.1 2128.25 82.68 2134.89 76.07 2141.53 85.14 2148.17 79.06 2154.81 73.94 2161.45 69.94 2168.1 61.23 2168.1 89.76 2161.45 87.43 2154.81 93 2148.17 96.53 2141.53 103.21 2134.89 92.68 2128.25 97.01 2121.61 87.72 2114.97 97.09 2108.33 85.5 2101.69 69.65 2095.05 68.73 2088.41 72.06 2081.77 77.42 2075.13 63 2068.49 69.27 2061.85 68.8 2055.21 71.69 2048.57 73.41 2041.93 69.05 2035.29 63.98 2028.65 71.35 2022.01 78.16 2015.37 86.79 2008.73 191.21 2002.08 218.91 1995.44 185.62 1988.8 135.52 1982.16 133.47 1975.52 116.8 1968.88 128 1962.24 107.26 1955.6 111.5 1948.96 110.68 1942.32 78.87 1935.68 85.55 1929.04 92.42 1922.4 86.23 1915.76 102.08 1909.12 92.42 1902.48 95.58 1895.84 113.79 1889.2 127.6 1882.56 126.13 1875.92 158.85 1869.28 165.07 1862.64 198.3 1856 225.32 1849.36 204.32 1842.71 88.2 1836.07 97.29 1829.43 105.21 1822.79 105.16 1816.15 101.24 1809.51 98.62 1802.87 87.81 1796.23 71.77 1789.59 83.58 1782.95 76.77 1776.31 84.54 1769.67 76.84 1763.03 76.86 1756.39 82.17 1749.75 74.14 1743.11 65.87 1736.47 69.03 1729.83 84.19 1723.19 70 1716.55 66.12 1709.91 66.86 1703.27 73.44 1696.63 89.78 1689.98 204.61 1683.34 205.1 1676.7 187.21 1670.06 163.09 1663.42 137.03 1656.78 130.04 1650.14 118.62 1643.5 124.64 1636.86 110.28 1630.22 88.51 1623.58 92.97 1616.94 109.04 1610.3 118.54 1603.66 123.33 1597.02 108.19 1590.38 101.56 1583.74 124.59 1577.1 118.65 1570.46 130.12 1563.82 141.22 1557.18 168.35 1550.54 175.69 1543.9 210.51 1537.26 235.19 1530.61 216.29 1530.61 203.98"/>
        <polyline class="cls-8" points="1530.61 210.14 1537.26 228.36 1543.9 199.2 1550.54 162.07 1557.18 154.77 1563.82 127.44 1570.46 116.73 1577.1 106.25 1583.74 114.22 1590.38 90.07 1597.02 98.05 1603.66 111.49 1610.3 107.62 1616.94 98.73 1623.58 84.38 1630.22 80.5 1636.86 100.55 1643.5 113.31 1650.14 108.3 1656.78 118.55 1663.42 125.61 1670.06 149.76 1676.7 175.73 1683.34 196.24 1689.98 195.78 1696.63 80.05 1703.27 67.97 1709.91 61.59 1716.55 61.14 1723.19 63.42 1729.83 76.18 1736.47 62.96 1743.11 60.68 1749.75 68.66 1756.39 75.04 1763.03 70.71 1769.67 70.48 1776.31 76.18 1782.95 68.89 1789.59 75.72 1796.23 65.7 1802.87 80.28 1809.51 90.53 1816.15 93.72 1822.79 95.77 1829.43 93.72 1836.07 86.2 1842.71 80.96 1849.36 197.15 1856 216.74 1862.64 186.9 1869.28 151.59 1875.92 146.12 1882.56 113.77 1889.2 115.82 1895.84 103.51 1902.48 87.34 1909.12 84.38 1915.76 93.49 1922.4 77.31 1929.04 82.55 1935.68 75.72 1942.32 71.62 1948.96 101.24 1955.6 100.78 1962.24 98.5 1968.88 116.5 1975.52 106.48 1982.16 121.51 1988.8 125.16 1995.44 174.6 2002.08 210.82 2008.73 180.06 2015.37 75.95 2022.01 70.48 2028.65 65.24 2035.29 59.32 2041.93 63.19 2048.57 67.29 2055.21 64.56 2061.85 62.73 2068.49 64.56 2075.13 58.86 2081.77 70.48 2088.41 66.38 2095.05 63.42 2101.69 64.1 2108.33 78.91 2114.97 88.02 2121.61 78.91 2128.25 89.85 2134.89 84.38 2141.53 94.17 2148.17 87.79 2154.81 83.47 2161.45 78.68 2168.1 75.49"/>
        <rect class="cls-15" x="1530.61" y="263.75" width="159.37" height="7.22"/>
        <rect class="cls-10" x="1530.61" y="263.75" width="159.37" height="7.22"/>
        <rect x="1689.98" y="263.75" width="159.37" height="7.22"/>
        <rect class="cls-10" x="1689.98" y="263.75" width="159.37" height="7.22"/>
        <rect class="cls-15" x="1849.36" y="263.75" width="159.37" height="7.22"/>
        <rect class="cls-10" x="1849.36" y="263.75" width="159.37" height="7.22"/>
        <rect x="2008.73" y="263.75" width="159.37" height="7.22"/>
        <rect class="cls-10" x="2008.73" y="263.75" width="159.37" height="7.22"/>
      </g>
      <g class="cls-1">
        <polygon class="cls-23" points="1530.61 410.2 1537.26 449.95 1543.9 435.76 1550.54 408.45 1557.18 389.51 1563.82 373.03 1570.46 360.29 1577.1 353.34 1583.74 340.16 1590.38 335.78 1597.02 323.92 1603.66 325.14 1610.3 323.74 1616.94 322.32 1623.58 321.56 1630.22 326.11 1636.86 352.99 1643.5 332.84 1650.14 346.83 1656.78 343.9 1663.42 357.28 1670.06 369.76 1676.7 399 1683.34 431.98 1689.98 444.74 1696.63 332.03 1703.27 328.96 1709.91 317.65 1716.55 313.95 1723.19 321.57 1729.83 314.98 1736.47 310.16 1743.11 309.37 1749.75 321.33 1756.39 312.75 1763.03 309.72 1769.67 312.56 1776.31 305.89 1782.95 329.56 1789.59 319.27 1796.23 325.54 1802.87 314.18 1809.51 327.09 1816.15 344.4 1822.79 338.84 1829.43 347.62 1836.07 328.08 1842.71 331.48 1849.36 425.03 1856 464.02 1862.64 439.17 1869.28 410.68 1875.92 388.04 1882.56 372.46 1889.2 357.68 1895.84 334.25 1902.48 334.9 1909.12 325.41 1915.76 340.82 1922.4 331.65 1929.04 331.09 1935.68 317.63 1942.32 315.03 1948.96 319.09 1955.6 345.51 1962.24 323.14 1968.88 338.8 1975.52 347.77 1982.16 339.14 1988.8 388.55 1995.44 394.93 2002.08 415.01 2008.73 431.08 2015.37 329.75 2022.01 316.28 2028.65 306.96 2035.29 309.78 2041.93 315.44 2048.57 314.16 2055.21 303.65 2061.85 307.95 2068.49 309.04 2075.13 314.98 2081.77 317.66 2088.41 313.66 2095.05 315.22 2101.69 313.11 2108.33 315.84 2114.97 320.71 2121.61 332.36 2128.25 331.03 2134.89 339.19 2141.53 327.52 2148.17 332.03 2154.81 334.21 2161.45 327.42 2168.1 327.84 2168.1 362.79 2161.45 350.51 2154.81 356.42 2148.17 353.9 2141.53 347.12 2134.89 360.38 2128.25 353.96 2121.61 354.98 2114.97 341.23 2108.33 331.05 2101.69 328.13 2095.05 333.08 2088.41 330.88 2081.77 329.7 2075.13 331.91 2068.49 322.33 2061.85 321.07 2055.21 312.66 2048.57 330.85 2041.93 330.04 2035.29 323.47 2028.65 319.71 2022.01 330.61 2015.37 350.07 2008.73 450.51 2002.08 439.3 1995.44 417.52 1988.8 412.15 1982.16 358.08 1975.52 365.91 1968.88 361.71 1962.24 340.21 1955.6 365.81 1948.96 335.32 1942.32 333.27 1935.68 333.97 1929.04 351.08 1922.4 348.16 1915.76 361.1 1909.12 345.94 1902.48 355.74 1895.84 354.97 1889.2 382.34 1882.56 400.02 1875.92 413.12 1869.28 434.7 1862.64 460.3 1856 481.54 1849.36 444.81 1842.71 354.45 1836.07 347.5 1829.43 370.29 1822.79 364.02 1816.15 366.46 1809.51 349.9 1802.87 330.35 1796.23 346.27 1789.59 337.97 1782.95 349.78 1776.31 317.48 1769.67 328.21 1763.03 323.06 1756.39 328.96 1749.75 339.67 1743.11 320.12 1736.47 321.68 1729.83 329.09 1723.19 336.61 1716.55 328.7 1709.91 332.53 1703.27 344.27 1696.63 350.14 1689.98 460.84 1683.34 452.9 1676.7 423.33 1670.06 387.66 1663.42 378.98 1656.78 362.25 1650.14 366.85 1643.5 350.74 1636.86 377.62 1630.22 344.76 1623.58 342.26 1616.94 341.97 1610.3 340.08 1603.66 343.86 1597.02 344.14 1590.38 354.38 1583.74 360.35 1577.1 377.74 1570.46 388.66 1563.82 396.62 1557.18 414.48 1550.54 431.75 1543.9 454.77 1537.26 472.56 1530.61 432.82 1530.61 410.2"/>
        <polyline class="cls-6" points="1530.61 421.51 1537.26 461.26 1543.9 445.26 1550.54 420.1 1557.18 401.99 1563.82 384.83 1570.46 374.48 1577.1 365.54 1583.74 350.25 1590.38 345.08 1597.02 334.03 1603.66 334.5 1610.3 331.91 1616.94 332.15 1623.58 331.91 1630.22 335.44 1636.86 365.31 1643.5 341.79 1650.14 356.84 1656.78 353.08 1663.42 368.13 1670.06 378.71 1676.7 411.16 1683.34 442.44 1689.98 452.79 1696.63 341.08 1703.27 336.61 1709.91 325.09 1716.55 321.33 1723.19 329.09 1729.83 322.03 1736.47 315.92 1743.11 314.74 1749.75 330.5 1756.39 320.86 1763.03 316.39 1769.67 320.39 1776.31 311.69 1782.95 339.67 1789.59 328.62 1796.23 335.91 1802.87 322.27 1809.51 338.5 1816.15 355.43 1822.79 351.43 1829.43 358.96 1836.07 337.79 1842.71 342.96 1849.36 434.92 1856 472.78 1862.64 449.73 1869.28 422.69 1875.92 400.58 1882.56 386.24 1889.2 370.01 1895.84 344.61 1902.48 345.32 1909.12 335.67 1915.76 350.96 1922.4 339.91 1929.04 341.08 1935.68 325.8 1942.32 324.15 1948.96 327.21 1955.6 355.66 1962.24 331.68 1968.88 350.25 1975.52 356.84 1982.16 348.61 1988.8 400.35 1995.44 406.23 2002.08 427.16 2008.73 440.8 2015.37 339.91 2022.01 323.44 2028.65 313.33 2035.29 316.62 2041.93 322.74 2048.57 322.5 2055.21 308.16 2061.85 314.51 2068.49 315.68 2075.13 323.44 2081.77 323.68 2088.41 322.27 2095.05 324.15 2101.69 320.62 2108.33 323.44 2114.97 330.97 2121.61 343.67 2128.25 342.49 2134.89 349.78 2141.53 337.32 2148.17 342.96 2154.81 345.32 2161.45 338.97 2168.1 345.32"/>
        <rect class="cls-15" x="1530.61" y="511.3" width="159.37" height="7.22"/>
        <rect class="cls-10" x="1530.61" y="511.3" width="159.37" height="7.22"/>
        <rect x="1689.98" y="511.3" width="159.37" height="7.22"/>
        <rect class="cls-10" x="1689.98" y="511.3" width="159.37" height="7.22"/>
        <rect class="cls-15" x="1849.36" y="511.3" width="159.37" height="7.22"/>
        <rect class="cls-10" x="1849.36" y="511.3" width="159.37" height="7.22"/>
        <rect x="2008.73" y="511.3" width="159.37" height="7.22"/>
        <rect class="cls-10" x="2008.73" y="511.3" width="159.37" height="7.22"/>
      </g>
      <g class="cls-2">
        <polygon class="cls-24" points="2238.82 206.49 2245.46 196.67 2252.1 147.75 2258.74 144.94 2265.38 130.14 2272.02 122.83 2278.66 107.03 2285.3 106.86 2291.94 84.53 2298.58 111.43 2305.22 86.28 2311.86 115.78 2318.5 109.82 2325.14 86.53 2331.78 101.76 2338.42 132.3 2345.06 125.24 2351.7 100.67 2358.34 143.47 2364.98 152.37 2371.63 168.53 2378.27 168.73 2384.91 181.58 2391.55 205.2 2398.19 254.67 2404.83 254.67 2411.47 210.4 2418.11 189.07 2424.75 147.27 2431.39 123.85 2438.03 124.9 2444.67 112.79 2451.31 98.82 2457.95 93.15 2464.59 78.64 2471.23 123.19 2477.87 128.25 2484.51 150.27 2491.15 201.69 2497.79 146.23 2504.43 137.49 2511.07 125.17 2517.71 138.57 2524.35 123.05 2531 128.73 2537.64 140.06 2544.28 166.65 2550.92 143.36 2557.56 156.79 2564.2 171.4 2570.84 131.47 2577.48 151.26 2584.12 113.28 2590.76 99.72 2597.4 101.07 2604.04 109.02 2610.68 89.06 2617.32 101.31 2623.96 107.15 2630.6 80.9 2637.24 81.81 2643.88 135.56 2650.52 117.96 2657.16 113.87 2663.8 107.19 2670.44 147.65 2677.08 133.42 2683.72 161.02 2690.37 175.92 2697.01 182.51 2703.65 185.79 2710.29 219.71 2710.29 242.03 2703.65 222.48 2697.01 220.9 2690.37 210.97 2683.72 202.54 2677.08 173.76 2670.44 183.83 2663.8 148.47 2657.16 145.68 2650.52 146.45 2643.88 178.43 2637.24 113.58 2630.6 113.52 2623.96 146.57 2617.32 132.96 2610.68 129.67 2604.04 150.53 2597.4 140.01 2590.76 136.5 2584.12 155.99 2577.48 186.05 2570.84 171.82 2564.2 208.69 2557.56 195.1 2550.92 189.09 2544.28 210.52 2537.64 187.53 2531 175.54 2524.35 173.43 2517.71 191.94 2511.07 172.29 2504.43 188.16 2497.79 193.03 2491.15 235.74 2484.51 191.91 2477.87 169.21 2471.23 170.38 2464.59 124.53 2457.95 138.21 2451.31 147.12 2444.67 157.45 2438.03 173.53 2431.39 174.58 2424.75 196.85 2418.11 230.87 2411.47 243.56 2404.83 259.56 2398.19 259.56 2391.55 240.98 2384.91 222.81 2378.27 210.38 2371.63 201.83 2364.98 192.72 2358.34 186.07 2351.7 134.58 2345.06 158.61 2338.42 173.9 2331.78 142.24 2325.14 120.53 2318.5 148.75 2311.86 143.77 2305.22 119.8 2298.58 145.21 2291.94 115.72 2285.3 141.03 2278.66 132.1 2272.02 156.16 2265.38 171.21 2258.74 180.71 2252.1 193.45 2245.46 230.07 2238.82 235.81 2238.82 206.49"/>
        <polygon class="cls-24" points="2723.57 236.7 2730.21 200.09 2736.85 184.04 2743.49 176 2750.13 148.89 2756.77 137.07 2763.41 142.46 2770.05 154 2776.69 146.69 2783.33 142.04 2789.97 153.83 2796.61 150.15 2803.25 159.91 2809.89 157.74 2816.53 170.01 2823.17 140.82 2829.81 128.12 2836.45 124.37 2843.09 143.7 2849.74 181.52 2856.38 153.12 2863.02 163.04 2869.66 169.23 2876.3 192.91 2876.3 239.67 2869.66 213.77 2863.02 213.16 2856.38 198.78 2849.74 222.87 2843.09 193.62 2836.45 174.06 2829.81 180.03 2823.17 192.6 2816.53 217.85 2809.89 199.01 2803.25 203.64 2796.61 203.69 2789.97 196.12 2783.33 197.22 2776.69 193.54 2770.05 201.78 2763.41 195.83 2756.77 184.69 2750.13 196.2 2743.49 222.56 2736.85 231.04 2730.21 238.32 2723.57 260.03 2723.57 236.7"/>
        <polyline class="cls-8" points="2238.82 221.15 2245.46 213.37 2252.1 170.6 2258.74 162.82 2265.38 150.67 2272.02 139.5 2278.66 119.57 2285.3 123.94 2291.94 100.13 2298.58 128.32 2305.22 103.04 2311.86 129.78 2318.5 129.29 2325.14 103.53 2331.78 122 2338.42 153.1 2345.06 141.93 2351.7 117.62 2358.34 164.77 2364.98 172.55 2371.63 185.18 2378.27 189.56 2384.91 202.19 2391.55 223.09 2398.19 257.11 2404.83 257.11 2411.47 226.98 2418.11 209.97 2424.75 172.06 2431.39 149.22 2438.03 149.22 2444.67 135.12 2451.31 122.97 2457.95 115.68 2464.59 101.59 2471.23 146.79 2477.87 148.73 2484.51 171.09 2491.15 218.72 2497.79 169.63 2504.43 162.82 2511.07 148.73 2517.71 165.25 2524.35 148.24 2531 152.13 2537.64 163.8 2544.28 188.58 2550.92 166.23 2557.56 175.95 2564.2 190.04 2570.84 151.65 2577.48 168.66 2584.12 134.64 2590.76 118.11 2597.4 120.54 2604.04 129.78 2610.68 109.36 2617.32 117.14 2623.96 126.86 2630.6 97.21 2637.24 97.7 2643.88 156.99 2650.52 132.21 2657.16 129.78 2663.8 127.83 2670.44 165.74 2677.08 153.59 2683.72 181.78 2690.37 193.44 2697.01 201.71 2703.65 204.14 2710.29 230.87 2716.93 257.6 2723.57 248.36 2730.21 219.2 2736.85 207.54 2743.49 199.28 2750.13 172.55 2756.77 160.88 2763.41 169.14 2770.05 177.89 2776.69 170.12 2783.33 169.63 2789.97 174.98 2796.61 176.92 2803.25 181.78 2809.89 178.38 2816.53 193.93 2823.17 166.71 2829.81 154.08 2836.45 149.22 2843.09 168.66 2849.74 202.19 2856.38 175.95 2863.02 188.1 2869.66 191.5 2876.3 216.29"/>
        <rect class="cls-15" x="2238.82" y="263.75" width="159.37" height="7.22"/>
        <rect class="cls-10" x="2238.82" y="263.75" width="159.37" height="7.22"/>
        <rect x="2398.19" y="263.75" width="159.37" height="7.22"/>
        <rect class="cls-10" x="2398.19" y="263.75" width="159.37" height="7.22"/>
        <rect class="cls-15" x="2557.56" y="263.75" width="159.37" height="7.22"/>
        <rect class="cls-10" x="2557.56" y="263.75" width="159.37" height="7.22"/>
        <rect x="2716.93" y="263.75" width="159.37" height="7.22"/>
        <rect class="cls-10" x="2716.93" y="263.75" width="159.37" height="7.22"/>
      </g>
      <g class="cls-26">
        <polygon class="cls-23" points="2238.82 437.05 2245.46 442.72 2252.1 429.57 2258.74 422 2265.38 412.7 2272.02 387.79 2278.66 394.15 2285.3 383.22 2291.94 395.19 2298.58 370.2 2305.22 355.22 2311.86 383.52 2318.5 364.88 2325.14 371.42 2331.78 382.77 2338.42 387.28 2345.06 404.3 2351.7 399.62 2358.34 419.97 2364.98 421.78 2371.63 438.21 2378.27 449.09 2384.91 465.11 2391.55 477.79 2398.19 501.26 2404.83 503.79 2411.47 498.52 2418.11 501.67 2424.75 473.93 2431.39 449.59 2438.03 439.02 2444.67 403.68 2451.31 413.15 2457.95 418.72 2464.59 425.72 2471.23 437.11 2477.87 423.14 2484.51 436.5 2491.15 448.03 2497.79 444.66 2504.43 434.03 2511.07 431.1 2517.71 441.95 2524.35 448.94 2531 453.55 2537.64 444.89 2544.28 430.21 2550.92 410.46 2557.56 409.24 2564.2 432.01 2570.84 412.12 2577.48 406.48 2584.12 390.81 2590.76 376.93 2597.4 377.1 2604.04 360.55 2610.68 354.64 2617.32 372.37 2623.96 375.37 2630.6 361.63 2637.24 369.63 2643.88 358.69 2650.52 373.37 2657.16 385.86 2663.8 388.98 2670.44 407.99 2677.08 421.37 2683.72 421.27 2690.37 433.6 2697.01 464.97 2703.65 468.92 2710.29 479.65 2716.93 499.4 2723.57 507.59 2716.93 506.54 2710.29 496.15 2703.65 485.01 2697.01 486.05 2690.37 456.18 2683.72 445.66 2677.08 446.54 2670.44 432.21 2663.8 414.28 2657.16 412.06 2650.52 396.84 2643.88 386.25 2637.24 393.78 2630.6 389.15 2623.96 399.22 2617.32 401.24 2610.68 382.04 2604.04 388.28 2597.4 402.35 2590.76 401.06 2584.12 416.34 2577.48 433.72 2570.84 440.23 2564.2 456.79 2557.56 434.36 2550.92 442.87 2544.28 460.54 2537.64 473.08 2531 479.48 2524.35 471.94 2517.71 469.7 2511.07 462.57 2504.43 464.49 2497.79 474.77 2491.15 475.77 2484.51 468.34 2477.87 453.51 2471.23 467.25 2464.59 458.23 2457.95 451.13 2451.31 447.95 2444.67 436.04 2438.03 469.22 2431.39 474.69 2424.75 489.72 2418.11 505.73 2411.47 504.5 2404.83 507.01 2398.19 506.62 2391.55 496.07 2384.91 486.39 2378.27 471.31 2371.63 464.2 2364.98 445.64 2358.34 442.11 2351.7 427.46 2345.06 430.07 2338.42 415.02 2331.78 408.83 2325.14 394.42 2318.5 389.78 2311.86 413.92 2305.22 380.49 2298.58 398.07 2291.94 424.11 2285.3 413.24 2278.66 420.78 2272.02 416.93 2265.38 437.71 2258.74 450.28 2252.1 455.35 2245.46 468.44 2238.82 463.91 2238.82 437.05"/>
        <polygon class="cls-23" points="2736.85 488.26 2743.49 469.94 2750.13 450.47 2756.77 432.48 2763.41 424.16 2770.05 418.02 2776.69 411.24 2783.33 430.72 2789.97 416.62 2796.61 412.37 2803.25 431.83 2809.89 437.69 2816.53 445.11 2823.17 442.73 2829.81 426.69 2836.45 428.03 2843.09 448.33 2849.74 443.14 2856.38 431.51 2863.02 437.54 2869.66 434.33 2876.3 439.38 2876.3 473.73 2869.66 465.65 2863.02 464.38 2856.38 463.62 2849.74 468.99 2843.09 475.96 2836.45 458.35 2829.81 458.71 2823.17 466.97 2816.53 468.49 2809.89 464.24 2803.25 462.32 2796.61 444.36 2789.97 448.85 2783.33 461.97 2776.69 443.05 2770.05 449.88 2763.41 454.44 2756.77 462.64 2750.13 475.27 2743.49 490.31 2736.85 498.72 2736.85 488.26"/>
        <polyline class="cls-6" points="2238.82 450.48 2245.46 455.58 2252.1 442.46 2258.74 436.14 2265.38 425.2 2272.02 402.36 2278.66 407.46 2285.3 398.23 2291.94 409.65 2298.58 384.14 2305.22 367.85 2311.86 398.72 2318.5 377.33 2325.14 382.92 2331.78 395.8 2338.42 401.15 2345.06 417.18 2351.7 413.54 2358.34 431.04 2364.98 433.71 2371.63 451.21 2378.27 460.2 2384.91 475.75 2391.55 486.93 2398.19 503.94 2404.83 505.4 2411.47 501.51 2418.11 503.7 2424.75 481.83 2431.39 462.14 2438.03 454.12 2444.67 419.86 2451.31 430.55 2457.95 434.92 2464.59 441.97 2471.23 452.18 2477.87 438.33 2484.51 452.42 2491.15 461.9 2497.79 459.71 2504.43 449.26 2511.07 446.83 2517.71 455.82 2524.35 460.44 2531 466.52 2537.64 458.98 2544.28 445.37 2550.92 426.66 2557.56 421.8 2564.2 444.4 2570.84 426.18 2577.48 420.1 2584.12 403.58 2590.76 389 2597.4 389.72 2604.04 374.41 2610.68 368.34 2617.32 386.81 2623.96 387.29 2630.6 375.39 2637.24 381.71 2643.88 372.47 2650.52 385.11 2657.16 398.96 2663.8 401.63 2670.44 420.1 2677.08 433.95 2683.72 433.47 2690.37 444.89 2697.01 475.51 2703.65 476.97 2710.29 487.9 2716.93 502.97 2723.57 507.59 2730.21 506.37 2736.85 493.49 2743.49 480.13 2750.13 462.87 2756.77 447.56 2763.41 439.3 2770.05 433.95 2776.69 427.15 2783.33 446.35 2789.97 432.74 2796.61 428.36 2803.25 447.08 2809.89 450.96 2816.53 456.8 2823.17 454.85 2829.81 442.7 2836.45 443.19 2843.09 462.14 2849.74 456.07 2856.38 447.56 2863.02 450.96 2869.66 449.99 2876.3 456.55"/>
        <rect class="cls-15" x="2238.82" y="511.3" width="159.37" height="7.22"/>
        <rect class="cls-10" x="2238.82" y="511.3" width="159.37" height="7.22"/>
        <rect x="2398.19" y="511.3" width="159.37" height="7.22"/>
        <rect class="cls-10" x="2398.19" y="511.3" width="159.37" height="7.22"/>
        <rect class="cls-15" x="2557.56" y="511.3" width="159.37" height="7.22"/>
        <rect class="cls-10" x="2557.56" y="511.3" width="159.37" height="7.22"/>
        <rect x="2716.93" y="511.3" width="159.37" height="7.22"/>
        <rect class="cls-10" x="2716.93" y="511.3" width="159.37" height="7.22"/>
      </g>
      <g class="cls-13">
        <polygon class="cls-24" points="2947.02 220.54 2953.66 175.57 2960.3 148.52 2966.94 145.21 2973.58 116.27 2980.22 105.35 2986.86 116.64 2993.5 87.38 3000.14 102.73 3006.78 91.09 3013.42 93.2 3020.06 92.76 3026.7 99.59 3033.34 117.07 3039.98 134.09 3046.63 127.4 3053.27 131.54 3059.91 169.47 3066.55 191.86 3073.19 205.51 3079.83 202.73 3086.47 231.15 3093.11 249.81 3099.75 251.02 3106.39 260.03 3113.03 252.79 3119.67 240.26 3126.31 206.96 3132.95 160.16 3139.59 140.85 3146.23 132.64 3152.87 123.94 3159.51 118.19 3166.15 129.08 3172.79 135.08 3179.43 144.07 3186.07 138.3 3192.71 127.49 3199.35 148.98 3206 152.79 3212.64 115.61 3219.28 105.6 3225.92 131.07 3232.56 153.02 3239.2 143.91 3245.84 160.18 3252.48 155.03 3259.12 156.1 3265.76 213.89 3272.4 170.68 3279.04 139.27 3285.68 119.38 3292.32 118.4 3298.96 89.66 3305.6 88.73 3312.24 104.19 3318.88 87.13 3325.52 89.99 3332.16 105.76 3338.8 109.12 3345.44 93.83 3352.08 105.13 3358.72 115.76 3365.37 134.95 3372.01 135.35 3378.65 156.08 3385.29 179.09 3391.93 189.2 3398.57 216.65 3405.21 223.12 3411.85 241.8 3418.49 256.84 3425.13 258.21 3431.77 257.75 3438.41 247.68 3445.05 209.84 3451.69 169.37 3458.33 150.28 3464.97 123.73 3471.61 135.93 3478.25 124.45 3484.89 138.09 3491.53 139.71 3498.17 134.28 3504.81 128.49 3511.45 145.38 3518.09 153.68 3524.74 138.58 3531.38 133.17 3538.02 115.26 3544.66 124.64 3551.3 139.85 3557.94 173.74 3564.58 159.54 3571.22 163.54 3577.86 150.3 3584.5 159 3584.5 197.03 3577.86 180.66 3571.22 193.4 3564.58 189.65 3557.94 201.43 3551.3 173.34 3544.66 155.29 3538.02 148.27 3531.38 163.63 3524.74 171.42 3518.09 183.2 3511.45 174.65 3504.81 158.74 3498.17 168.43 3491.53 173.02 3484.89 171.91 3478.25 158.21 3471.61 167.69 3464.97 158.02 3458.33 182.51 3451.69 198.5 3445.05 232.3 3438.41 259.16 3431.77 260.03 3425.13 260.03 3418.49 260.03 3411.85 252.29 3405.21 238.61 3398.57 234.61 3391.93 212.85 3385.29 203.36 3378.65 178.08 3372.01 160.08 3365.37 157.75 3358.72 136.83 3352.08 129.69 3345.44 115.48 3338.8 132.54 3332.16 129.97 3325.52 112.02 3318.88 105.77 3312.24 123.34 3305.6 104.18 3298.96 111.91 3292.32 141.48 3285.68 147.34 3279.04 165.27 3272.4 199.47 3265.76 230.08 3259.12 181.24 3252.48 184.14 3245.84 188.56 3239.2 172.93 3232.56 185.69 3225.92 159.8 3219.28 136.06 3212.64 146.1 3206 184.1 3199.35 176.97 3192.71 160.64 3186.07 170.34 3179.43 175.51 3172.79 167.18 3166.15 159.96 3159.51 149.9 3152.87 155.54 3146.23 163.24 3139.59 173.26 3132.95 189.49 3126.31 232 3119.67 252.92 3113.03 259.07 3106.39 260.03 3099.75 259.02 3093.11 257.49 3086.47 246.99 3079.83 223.47 3073.19 223.87 3066.55 214.74 3059.91 192.03 3053.27 158.42 3046.63 150.26 3039.98 155.87 3033.34 141.91 3026.7 122.47 3020.06 115.64 3013.42 115.65 3006.78 113.2 3000.14 124.8 2993.5 102.79 2986.86 138.24 2980.22 124.92 2973.58 140.88 2966.94 172.09 2960.3 178.34 2953.66 201.41 2947.02 234.81 2947.02 220.54"/>
        <polyline class="cls-8" points="2947.02 227.68 2953.66 188.49 2960.3 163.43 2966.94 158.65 2973.58 128.58 2980.22 115.13 2986.86 127.44 2993.5 95.09 3000.14 113.77 3006.78 102.15 3013.42 104.43 3020.06 104.2 3026.7 111.03 3033.34 129.49 3039.98 144.98 3046.63 138.83 3053.27 144.98 3059.91 180.75 3066.55 203.3 3073.19 214.69 3079.83 213.1 3086.47 239.07 3093.11 253.65 3099.75 255.02 3106.39 260.03 3113.03 255.93 3119.67 246.59 3126.31 219.48 3132.95 174.82 3139.59 157.05 3146.23 147.94 3152.87 139.74 3159.51 134.04 3166.15 144.52 3172.79 151.13 3179.43 159.79 3186.07 154.32 3192.71 144.07 3199.35 162.98 3206 168.44 3212.64 130.85 3219.28 120.83 3225.92 145.43 3232.56 169.36 3239.2 158.42 3245.84 174.37 3252.48 169.58 3259.12 168.67 3265.76 221.98 3272.4 185.08 3279.04 152.27 3285.68 133.36 3292.32 129.94 3298.96 100.78 3305.6 96.45 3312.24 113.77 3318.88 96.45 3325.52 101.01 3332.16 117.87 3338.8 120.83 3345.44 104.65 3352.08 117.41 3358.72 126.3 3365.37 146.35 3372.01 147.71 3378.65 167.08 3385.29 191.23 3391.93 201.02 3398.57 225.63 3405.21 230.87 3411.85 247.04 3418.49 258.43 3425.13 259.12 3431.77 258.89 3438.41 253.42 3445.05 221.07 3451.69 183.94 3458.33 166.39 3464.97 140.88 3471.61 151.81 3478.25 141.33 3484.89 155 3491.53 156.37 3498.17 151.36 3504.81 143.61 3511.45 160.01 3518.09 168.44 3524.74 155 3531.38 148.4 3538.02 131.76 3544.66 139.97 3551.3 156.6 3557.94 187.58 3564.58 174.6 3571.22 178.47 3577.86 165.48 3584.5 178.01"/>
        <rect class="cls-15" x="2947.02" y="263.75" width="159.37" height="7.22"/>
        <rect class="cls-10" x="2947.02" y="263.75" width="159.37" height="7.22"/>
        <rect x="3106.39" y="263.75" width="159.37" height="7.22"/>
        <rect class="cls-10" x="3106.39" y="263.75" width="159.37" height="7.22"/>
        <rect class="cls-15" x="3265.76" y="263.75" width="159.37" height="7.22"/>
        <rect class="cls-10" x="3265.76" y="263.75" width="159.37" height="7.22"/>
        <rect x="3425.13" y="263.75" width="159.37" height="7.22"/>
        <rect class="cls-10" x="3425.13" y="263.75" width="159.37" height="7.22"/>
      </g>
      <g class="cls-14">
        <polygon class="cls-23" points="2947.02 481.62 2953.66 461.83 2960.3 445.17 2966.94 430.79 2973.58 428.83 2980.22 417.52 2986.86 395.85 2993.5 377.24 3000.14 366.31 3006.78 391.64 3013.42 374.82 3020.06 378.01 3026.7 373.9 3033.34 387.63 3039.98 404.4 3046.63 386.41 3053.27 418.54 3059.91 406.72 3066.55 426.57 3073.19 455.2 3079.83 472.4 3086.47 493.87 3093.11 503.35 3099.75 503.19 3099.75 506.8 3093.11 507.59 3086.47 501.54 3079.83 487.74 3073.19 475.31 3066.55 451.26 3059.91 433.48 3053.27 440.47 3046.63 414.75 3039.98 429.68 3033.34 410.24 3026.7 398.57 3020.06 404.34 3013.42 401.88 3006.78 419.4 3000.14 395.34 2993.5 404.64 2986.86 422.25 2980.22 443.37 2973.58 455.58 2966.94 457.86 2960.3 469.35 2953.66 483.73 2947.02 492.63 2947.02 481.62"/>
        <polygon class="cls-23" points="3113.03 487.2 3119.67 470.98 3126.31 453.69 3132.95 425.58 3139.59 391.55 3146.23 382.33 3152.87 360.96 3159.51 345.5 3166.15 359.71 3172.79 350.93 3179.43 362.99 3186.07 358.02 3192.71 342.64 3199.35 409.23 3206 379.15 3212.64 343.95 3219.28 352.83 3225.92 349.92 3232.56 383.19 3239.2 388.89 3245.84 379.32 3252.48 384.97 3259.12 394.11 3265.76 471.05 3272.4 479.42 3279.04 435.94 3285.68 415.9 3292.32 410.6 3298.96 379.35 3305.6 371.53 3312.24 377.41 3318.88 372.19 3325.52 372.37 3332.16 366.04 3338.8 387.61 3345.44 371.05 3352.08 393.98 3358.72 375.29 3365.37 375.05 3372.01 423.66 3378.65 430.56 3385.29 435.02 3391.93 459.67 3398.57 483.87 3405.21 491.29 3411.85 499.81 3418.49 507.12 3425.13 504.29 3431.77 486.98 3438.41 474.99 3445.05 457.92 3451.69 447.08 3458.33 414.86 3464.97 382.66 3471.61 366.55 3478.25 342.88 3484.89 374.71 3491.53 360.62 3498.17 363.78 3504.81 354.46 3511.45 365.18 3518.09 361.15 3524.74 367.77 3531.38 351.9 3538.02 361.94 3544.66 353.04 3551.3 373.11 3557.94 403.57 3564.58 419.76 3571.22 412.05 3577.86 417.58 3584.5 433.67 3584.5 468.62 3577.86 445.2 3571.22 441.8 3564.58 446.31 3557.94 433.34 3551.3 404.06 3544.66 383.22 3538.02 394.07 3531.38 381.53 3524.74 400.47 3518.09 394.86 3511.45 396.94 3504.81 383.2 3498.17 395.99 3491.53 391.15 3484.89 406.7 3478.25 373.62 3471.61 399.34 3464.97 412.39 3458.33 444.16 3451.69 473.55 3445.05 484.35 3438.41 494.56 3431.77 500.44 3425.13 507.59 3418.49 507.59 3411.85 505.48 3405.21 499.89 3398.57 495.08 3391.93 476.02 3385.29 457.86 3378.65 451.51 3372.01 446.18 3365.37 403.07 3358.72 400.95 3352.08 418.94 3345.44 398.13 3338.8 408.85 3332.16 393.26 3325.52 398.22 3318.88 397.93 3312.24 404.47 3305.6 396.71 3298.96 408.17 3292.32 435.71 3285.68 445 3279.04 462.59 3272.4 493.42 3265.76 485.33 3259.12 423.52 3252.48 417.13 3245.84 410.55 3239.2 420.27 3232.56 416.56 3225.92 380.69 3219.28 382.01 3212.64 374.43 3206 408.85 3199.35 438.5 3192.71 374.33 3186.07 385.76 3179.43 397.25 3172.79 379.68 3166.15 391.12 3159.51 374.76 3152.87 393.17 3146.23 414.13 3139.59 423.72 3132.95 453.66 3126.31 480.11 3119.67 491.98 3113.03 502.1 3113.03 487.2"/>
        <polyline class="cls-6" points="2947.02 487.13 2953.66 472.78 2960.3 457.26 2966.94 444.32 2973.58 442.21 2980.22 430.45 2986.86 409.05 2993.5 390.94 3000.14 380.83 3006.78 405.52 3013.42 388.35 3020.06 391.17 3026.7 386.24 3033.34 398.94 3039.98 417.04 3046.63 400.58 3053.27 429.51 3059.91 420.1 3066.55 438.91 3073.19 465.25 3079.83 480.07 3086.47 497.71 3093.11 505.47 3099.75 505 3106.39 506.17 3113.03 494.65 3119.67 481.48 3126.31 466.9 3132.95 439.62 3139.59 407.64 3146.23 398.23 3152.87 377.06 3159.51 360.13 3166.15 375.42 3172.79 365.31 3179.43 380.12 3186.07 371.89 3192.71 358.49 3199.35 423.86 3206 394 3212.64 359.19 3219.28 367.42 3225.92 365.31 3232.56 399.88 3239.2 404.58 3245.84 394.94 3252.48 401.05 3259.12 408.81 3265.76 478.19 3272.4 486.42 3279.04 449.26 3285.68 430.45 3292.32 423.16 3298.96 393.76 3305.6 384.12 3312.24 390.94 3318.88 385.06 3325.52 385.3 3332.16 379.65 3338.8 398.23 3345.44 384.59 3352.08 406.46 3358.72 388.12 3365.37 389.06 3372.01 434.92 3378.65 441.03 3385.29 446.44 3391.93 467.84 3398.57 489.48 3405.21 495.59 3411.85 502.65 3418.49 507.35 3425.13 505.94 3431.77 493.71 3438.41 484.77 3445.05 471.13 3451.69 460.32 3458.33 429.51 3464.97 397.52 3471.61 382.94 3478.25 358.25 3484.89 390.7 3491.53 375.89 3498.17 379.89 3504.81 368.83 3511.45 381.06 3518.09 378.01 3524.74 384.12 3531.38 366.72 3538.02 378.01 3544.66 368.13 3551.3 388.59 3557.94 418.45 3564.58 433.04 3571.22 426.92 3577.86 431.39 3584.5 451.14"/>
        <rect class="cls-15" x="2947.02" y="511.3" width="159.37" height="7.22"/>
        <rect class="cls-10" x="2947.02" y="511.3" width="159.37" height="7.22"/>
        <rect x="3106.39" y="511.3" width="159.37" height="7.22"/>
        <rect class="cls-10" x="3106.39" y="511.3" width="159.37" height="7.22"/>
        <rect class="cls-15" x="3265.76" y="511.3" width="159.37" height="7.22"/>
        <rect class="cls-10" x="3265.76" y="511.3" width="159.37" height="7.22"/>
        <rect x="3425.13" y="511.3" width="159.37" height="7.22"/>
        <rect class="cls-10" x="3425.13" y="511.3" width="159.37" height="7.22"/>
      </g>
      <g class="cls-17">
        <polygon class="cls-24" points="3655.22 230.62 3661.86 183.45 3668.5 158.13 3675.14 124.5 3681.78 102.86 3688.42 104.59 3695.06 91.98 3701.7 109.29 3708.34 97.01 3714.98 94.47 3721.63 93.02 3728.27 90.06 3734.91 101.78 3741.55 90.66 3748.19 114.5 3754.83 99.18 3761.47 127.79 3768.11 139.12 3774.75 136.73 3781.39 166.42 3788.03 172.75 3794.67 204.53 3801.31 225.03 3807.95 242.81 3814.59 257.68 3821.23 253.44 3827.87 223.79 3834.51 194.25 3841.15 162.28 3847.79 154.64 3854.43 124.08 3861.07 102.52 3867.71 114.63 3874.35 126.86 3881 128.3 3887.64 124.19 3894.28 104.95 3900.92 126.18 3907.56 148.17 3914.2 135.66 3920.84 123.27 3927.48 105.3 3934.12 104.06 3940.76 132.72 3947.4 135.01 3954.04 123.3 3960.68 135.34 3967.32 142.45 3973.96 201.56 3980.6 171.94 3987.24 141.12 3993.88 129.07 4000.52 106.56 4007.16 92.43 4013.8 90.59 4020.44 98.09 4027.08 90.78 4033.72 79.12 4040.37 96.5 4047.01 84.86 4053.65 103.61 4060.29 107.79 4066.93 103.41 4073.57 117.54 4080.21 115.28 4086.85 143.67 4093.49 139.68 4100.13 176.39 4106.77 177.39 4113.41 202.09 4120.05 226.54 4126.69 244.18 4133.33 252.3 4139.97 250.04 4146.61 239.8 4153.25 213.32 4159.89 173.51 4166.53 148.01 4173.17 140.56 4179.81 130.8 4186.45 149.46 4193.09 131.19 4199.74 114.16 4206.38 111.64 4213.02 106.51 4219.66 123.83 4226.3 133.88 4232.94 117.37 4239.58 127.36 4246.22 126.76 4252.86 121.94 4259.5 123.42 4266.14 130.82 4272.78 162.85 4279.42 150.22 4286.06 157.95 4292.7 148.61 4292.7 188.02 4286.06 187.61 4279.42 181.7 4272.78 190.7 4266.14 162.06 4259.5 153 4252.86 151.65 4246.22 154.84 4239.58 158.46 4232.94 147.76 4226.3 165.12 4219.66 150.71 4213.02 134.17 4206.38 139.86 4199.74 143.91 4193.09 162.63 4186.45 178.23 4179.81 158.79 4173.17 172.07 4166.53 180.15 4159.89 205.44 4153.25 236.18 4146.61 252.98 4139.97 256.38 4133.33 256.94 4126.69 254.72 4120.05 243.19 4113.41 224.84 4106.77 200.16 4100.13 198.8 4093.49 164.96 4086.85 168.5 4080.21 140.91 4073.57 141.95 4066.93 125.5 4060.29 128.65 4053.65 124.37 4047.01 104.08 4040.37 118.3 4033.72 95.7 4027.08 115.09 4020.44 121.42 4013.8 111.99 4007.16 115.79 4000.52 133.65 3993.88 155.35 3987.24 166.82 3980.6 195.26 3973.96 220.2 3967.32 170.18 3960.68 164.13 3954.04 152.65 3947.4 164.46 3940.76 162.52 3934.12 133.79 3927.48 136.32 3920.84 151.27 3914.2 166.16 3907.56 174.82 3900.92 155.89 3894.28 130.55 3887.64 154.58 3881 159.41 3874.35 157.56 3867.71 142.03 3861.07 131.1 3854.43 155.63 3847.79 182.46 3841.15 192.69 3834.51 222.33 3827.87 242.65 3821.23 260.03 3814.59 260.03 3807.95 254.67 3801.31 241.41 3794.67 223.34 3788.03 196.8 3781.39 189.96 3774.75 160.38 3768.11 163.64 3761.47 151.45 3754.83 120.33 3748.19 139.34 3741.55 112.38 3734.91 120.55 3728.27 109.23 3721.63 115.2 3714.98 114.22 3708.34 118.73 3701.7 133.74 3695.06 115.77 3688.42 128.09 3681.78 129.35 3675.14 150.04 3668.5 181.32 3661.86 207.26 3655.22 242.4 3655.22 230.62"/>
        <polyline class="cls-8" points="3655.22 236.51 3661.86 195.36 3668.5 169.72 3675.14 137.27 3681.78 116.1 3688.42 116.34 3695.06 103.87 3701.7 121.51 3708.34 107.87 3714.98 104.34 3721.63 104.11 3728.27 99.64 3734.91 111.17 3741.55 101.52 3748.19 126.92 3754.83 109.75 3761.47 139.62 3768.11 151.38 3774.75 148.56 3781.39 178.19 3788.03 184.77 3794.67 213.94 3801.31 233.22 3807.95 248.74 3814.59 258.85 3821.23 256.74 3827.87 233.22 3834.51 208.29 3841.15 177.48 3847.79 168.55 3854.43 139.86 3861.07 116.81 3867.71 128.33 3874.35 142.21 3881 143.85 3887.64 139.39 3894.28 117.75 3900.92 141.03 3907.56 161.49 3914.2 150.91 3920.84 137.27 3927.48 120.81 3934.12 118.93 3940.76 147.62 3947.4 149.73 3954.04 137.97 3960.68 149.73 3967.32 156.32 3973.96 210.88 3980.6 183.6 3987.24 153.97 3993.88 142.21 4000.52 120.1 4007.16 104.11 4013.8 101.29 4020.44 109.75 4027.08 102.93 4033.72 87.41 4040.37 107.4 4047.01 94.47 4053.65 113.99 4060.29 118.22 4066.93 114.46 4073.57 129.74 4080.21 128.1 4086.85 156.08 4093.49 152.32 4100.13 187.6 4106.77 188.77 4113.41 213.47 4120.05 234.87 4126.69 249.45 4133.33 254.62 4139.97 253.21 4146.61 246.39 4153.25 224.75 4159.89 189.48 4166.53 164.08 4173.17 156.32 4179.81 144.79 4186.45 163.84 4193.09 146.91 4199.74 129.04 4206.38 125.75 4213.02 120.34 4219.66 137.27 4226.3 149.5 4232.94 132.57 4239.58 142.91 4246.22 140.8 4252.86 136.8 4259.5 138.21 4266.14 146.44 4272.78 176.78 4279.42 165.96 4286.06 172.78 4292.7 168.31"/>
        <rect class="cls-15" x="3655.22" y="263.75" width="159.37" height="7.22"/>
        <rect class="cls-10" x="3655.22" y="263.75" width="159.37" height="7.22"/>
        <rect x="3814.59" y="263.75" width="159.37" height="7.22"/>
        <rect class="cls-10" x="3814.59" y="263.75" width="159.37" height="7.22"/>
        <rect class="cls-15" x="3973.96" y="263.75" width="159.37" height="7.22"/>
        <rect class="cls-10" x="3973.96" y="263.75" width="159.37" height="7.22"/>
        <rect x="4133.33" y="263.75" width="159.37" height="7.22"/>
        <rect class="cls-10" x="4133.33" y="263.75" width="159.37" height="7.22"/>
      </g>
      <g class="cls-29">
        <polygon class="cls-23" points="3655.22 469.27 3661.86 461.45 3668.5 432.45 3675.14 419.54 3681.78 385.86 3688.42 394.03 3695.06 382.47 3701.7 368 3708.34 371.74 3714.98 368.07 3721.63 367.98 3728.27 352.68 3734.91 375.36 3741.55 345.62 3748.19 367.64 3754.83 377.4 3761.47 391.4 3768.11 388.51 3774.75 409.93 3781.39 409.09 3788.03 432.42 3794.67 453.29 3801.31 468.91 3807.95 482.6 3814.59 502.95 3821.23 493.26 3827.87 485.85 3834.51 441.41 3841.15 415.77 3847.79 398.81 3854.43 357.68 3861.07 357.22 3867.71 360.27 3874.35 373.23 3881 361.3 3887.64 389.07 3894.28 400.57 3900.92 381.33 3907.56 408.74 3914.2 378.91 3920.84 365.39 3927.48 390.26 3934.12 375.24 3940.76 383.03 3947.4 396.9 3954.04 415.97 3960.68 389.01 3967.32 407.6 3973.96 468.98 3980.6 443.63 3987.24 416.66 3993.88 398.96 4000.52 396.4 4007.16 375.07 4013.8 374 4020.44 370.82 4027.08 359.66 4033.72 347.62 4040.37 355.55 4047.01 349.24 4053.65 370.07 4060.29 360.35 4066.93 367.74 4073.57 370.19 4080.21 391.31 4086.85 394.22 4093.49 401.83 4100.13 421.72 4106.77 435.88 4113.41 453.37 4120.05 470.37 4126.69 485.01 4133.33 500.92 4139.97 495.57 4146.61 487.16 4153.25 452.63 4159.89 419.05 4166.53 410.34 4173.17 378.48 4179.81 365.48 4186.45 361.21 4193.09 362.32 4199.74 369.51 4206.38 380.83 4213.02 379.62 4219.66 376.73 4226.3 420.13 4232.94 405.82 4239.58 378.63 4246.22 369.04 4252.86 387.15 4259.5 396 4266.14 394.92 4272.78 424.04 4279.42 399.34 4286.06 419.29 4292.7 410.87 4292.7 449.08 4286.06 446.32 4279.42 426.28 4272.78 452.38 4266.14 421.77 4259.5 428.21 4252.86 415.42 4246.22 397.31 4239.58 409.84 4232.94 431.09 4226.3 447.35 4219.66 408.91 4213.02 409.79 4206.38 409.05 4199.74 400.14 4193.09 391.34 4186.45 389.16 4179.81 396.17 4173.17 409.51 4166.53 439.27 4159.89 450.31 4153.25 479.76 4146.61 498.38 4139.97 505.02 4133.33 504.84 4126.69 497.24 4120.05 489.3 4113.41 471.49 4106.77 457.94 4100.13 442.94 4093.49 424.74 4086.85 417.77 4080.21 414.09 4073.57 395.23 4066.93 394.38 4060.29 380.61 4053.65 395.81 4047.01 368.2 4040.37 381.64 4033.72 368.88 4027.08 381.77 4020.44 396.95 4013.8 401.3 4007.16 402.1 4000.52 424.05 3993.88 425.72 3987.24 441.41 3980.6 464.3 3973.96 481.75 3967.32 436.37 3960.68 419.67 3954.04 443.52 3947.4 427.31 3940.76 410.14 3934.12 404.76 3927.48 419.37 3920.84 392.97 3914.2 410.49 3907.56 439.46 3900.92 409.96 3894.28 429.29 3887.64 418.2 3881 390.95 3874.35 403.47 3867.71 386.34 3861.07 384.68 3854.43 388.93 3847.79 427.28 3841.15 444.66 3834.51 466.99 3827.87 499.69 3821.23 504.03 3814.59 506.57 3807.95 494 3801.31 483.71 3794.67 470.63 3788.03 451.52 3781.39 432.99 3774.75 433.1 3768.11 410.77 3761.47 418.69 3754.83 400.25 3748.19 391.19 3741.55 366.18 3734.91 398.99 3728.27 377.46 3721.63 391.32 3714.98 392.17 3708.34 398.38 3701.7 396.48 3695.06 408.81 3688.42 419.36 3681.78 417.18 3675.14 442.77 3668.5 455.73 3661.86 478.94 3655.22 481 3655.22 469.27"/>
        <polyline class="cls-6" points="3655.22 475.13 3661.86 470.19 3668.5 444.09 3675.14 431.15 3681.78 401.52 3688.42 406.7 3695.06 395.64 3701.7 382.24 3708.34 385.06 3714.98 380.12 3721.63 379.65 3728.27 365.07 3734.91 387.18 3741.55 355.9 3748.19 379.42 3754.83 388.82 3761.47 405.05 3768.11 399.64 3774.75 421.51 3781.39 421.04 3788.03 441.97 3794.67 461.96 3801.31 476.31 3807.95 488.3 3814.59 504.76 3821.23 498.65 3827.87 492.77 3834.51 454.2 3841.15 430.21 3847.79 413.05 3854.43 373.3 3861.07 370.95 3867.71 373.3 3874.35 388.35 3881 376.12 3887.64 403.64 3894.28 414.93 3900.92 395.64 3907.56 424.1 3914.2 394.7 3920.84 379.18 3927.48 404.81 3934.12 390 3940.76 396.58 3947.4 412.11 3954.04 429.74 3960.68 404.34 3967.32 421.98 3973.96 475.37 3980.6 453.97 3987.24 429.04 3993.88 412.34 4000.52 410.22 4007.16 388.59 4013.8 387.65 4020.44 383.88 4027.08 370.71 4033.72 358.25 4040.37 368.6 4047.01 358.72 4053.65 382.94 4060.29 370.48 4066.93 381.06 4073.57 382.71 4080.21 402.7 4086.85 405.99 4093.49 413.28 4100.13 432.33 4106.77 446.91 4113.41 462.43 4120.05 479.83 4126.69 491.12 4133.33 502.88 4139.97 500.3 4146.61 492.77 4153.25 466.19 4159.89 434.68 4166.53 424.8 4173.17 394 4179.81 380.83 4186.45 375.18 4193.09 376.83 4199.74 384.83 4206.38 394.94 4213.02 394.7 4219.66 392.82 4226.3 433.74 4232.94 418.45 4239.58 394.23 4246.22 383.18 4252.86 401.29 4259.5 412.11 4266.14 408.34 4272.78 438.21 4279.42 412.81 4286.06 432.8 4292.7 429.98"/>
        <rect class="cls-15" x="3655.22" y="511.3" width="159.37" height="7.22"/>
        <rect class="cls-10" x="3655.22" y="511.3" width="159.37" height="7.22"/>
        <rect x="3814.59" y="511.3" width="159.37" height="7.22"/>
        <rect class="cls-10" x="3814.59" y="511.3" width="159.37" height="7.22"/>
        <rect class="cls-15" x="3973.96" y="511.3" width="159.37" height="7.22"/>
        <rect class="cls-10" x="3973.96" y="511.3" width="159.37" height="7.22"/>
        <rect x="4133.33" y="511.3" width="159.37" height="7.22"/>
        <rect class="cls-10" x="4133.33" y="511.3" width="159.37" height="7.22"/>
      </g>
      <g class="cls-34">
        <text class="cls-12" transform="translate(419.06 23.53)"><tspan x="0" y="0">CS</tspan></text>
      </g>
      <g class="cls-32">
        <text class="cls-12" transform="translate(1096.67 23.53)"><tspan x="0" y="0">SIPL21</tspan></text>
      </g>
      <g class="cls-30">
        <text class="cls-12" transform="translate(1804.88 23.53)"><tspan x="0" y="0">SIPL22</tspan></text>
      </g>
      <g class="cls-5">
        <text class="cls-12" transform="translate(2511.97 23.53)"><tspan x="0" y="0">SIPS21</tspan></text>
      </g>
      <g class="cls-16">
        <text class="cls-12" transform="translate(3214.61 23.53)"><tspan x="0" y="0">SIPS210</tspan></text>
      </g>
      <g class="cls-20">
        <text class="cls-12" transform="translate(3928.37 23.53)"><tspan x="0" y="0">SIPS28</tspan></text>
      </g>
      <g class="cls-3">
        <text class="cls-12" transform="translate(4331.42 142.34) rotate(90)"><tspan x="0" y="0">M</tspan></text>
      </g>
      <g class="cls-31">
        <text class="cls-12" transform="translate(4354.83 133.7) rotate(90)"><tspan x="0" y="0">G</tspan><tspan class="cls-22" x="15.56" y="0">r</tspan><tspan x="22.8" y="0">p</tspan></text>
      </g>
      <g class="cls-19">
        <text class="cls-12" transform="translate(4331.42 389.9) rotate(90)"><tspan x="0" y="0">M</tspan></text>
      </g>
      <g class="cls-18">
        <text class="cls-12" transform="translate(4354.83 384.89) rotate(90)"><tspan x="0" y="0">Iso</tspan></text>
      </g>
      <line class="cls-9" x1="82.34" y1="518.52" x2="783.57" y2="518.52"/>
      <line class="cls-9" x1="114.21" y1="524.1" x2="114.21" y2="518.52"/>
      <line class="cls-9" x1="273.58" y1="524.1" x2="273.58" y2="518.52"/>
      <line class="cls-9" x1="432.95" y1="524.1" x2="432.95" y2="518.52"/>
      <line class="cls-9" x1="592.32" y1="524.1" x2="592.32" y2="518.52"/>
      <line class="cls-9" x1="751.69" y1="524.1" x2="751.69" y2="518.52"/>
      <text class="cls-11" transform="translate(107.54 540.14)"><tspan x="0" y="0" xml:space="preserve"> 0</tspan></text>
      <text class="cls-11" transform="translate(264.69 540.14)"><tspan x="0" y="0">12</tspan></text>
      <text class="cls-11" transform="translate(424.06 540.14)"><tspan x="0" y="0">24</tspan></text>
      <text class="cls-11" transform="translate(583.43 540.14)"><tspan x="0" y="0">36</tspan></text>
      <text class="cls-11" transform="translate(742.8 540.14)"><tspan x="0" y="0">48</tspan></text>
      <line class="cls-9" x1="790.54" y1="518.52" x2="1491.77" y2="518.52"/>
      <line class="cls-9" x1="822.41" y1="524.1" x2="822.41" y2="518.52"/>
      <line class="cls-9" x1="981.78" y1="524.1" x2="981.78" y2="518.52"/>
      <line class="cls-9" x1="1141.15" y1="524.1" x2="1141.15" y2="518.52"/>
      <line class="cls-9" x1="1300.52" y1="524.1" x2="1300.52" y2="518.52"/>
      <line class="cls-9" x1="1459.89" y1="524.1" x2="1459.89" y2="518.52"/>
      <text class="cls-11" transform="translate(815.74 540.14)"><tspan x="0" y="0" xml:space="preserve"> 0</tspan></text>
      <text class="cls-11" transform="translate(972.89 540.14)"><tspan x="0" y="0">12</tspan></text>
      <text class="cls-11" transform="translate(1132.26 540.14)"><tspan x="0" y="0">24</tspan></text>
      <text class="cls-11" transform="translate(1291.63 540.14)"><tspan x="0" y="0">36</tspan></text>
      <text class="cls-11" transform="translate(1451 540.14)"><tspan x="0" y="0">48</tspan></text>
      <line class="cls-9" x1="1498.74" y1="518.52" x2="2199.97" y2="518.52"/>
      <line class="cls-9" x1="1530.61" y1="524.1" x2="1530.61" y2="518.52"/>
      <line class="cls-9" x1="1689.98" y1="524.1" x2="1689.98" y2="518.52"/>
      <line class="cls-9" x1="1849.36" y1="524.1" x2="1849.36" y2="518.52"/>
      <line class="cls-9" x1="2008.73" y1="524.1" x2="2008.73" y2="518.52"/>
      <line class="cls-9" x1="2168.1" y1="524.1" x2="2168.1" y2="518.52"/>
      <text class="cls-11" transform="translate(1523.94 540.14)"><tspan x="0" y="0" xml:space="preserve"> 0</tspan></text>
      <text class="cls-11" transform="translate(1681.09 540.14)"><tspan x="0" y="0">12</tspan></text>
      <text class="cls-11" transform="translate(1840.46 540.14)"><tspan x="0" y="0">24</tspan></text>
      <text class="cls-11" transform="translate(1999.83 540.14)"><tspan x="0" y="0">36</tspan></text>
      <text class="cls-11" transform="translate(2159.2 540.14)"><tspan x="0" y="0">48</tspan></text>
      <line class="cls-9" x1="2206.94" y1="518.52" x2="2908.17" y2="518.52"/>
      <line class="cls-9" x1="2238.82" y1="524.1" x2="2238.82" y2="518.52"/>
      <line class="cls-9" x1="2398.19" y1="524.1" x2="2398.19" y2="518.52"/>
      <line class="cls-9" x1="2557.56" y1="524.1" x2="2557.56" y2="518.52"/>
      <line class="cls-9" x1="2716.93" y1="524.1" x2="2716.93" y2="518.52"/>
      <line class="cls-9" x1="2876.3" y1="524.1" x2="2876.3" y2="518.52"/>
      <text class="cls-11" transform="translate(2232.14 540.14)"><tspan x="0" y="0" xml:space="preserve"> 0</tspan></text>
      <text class="cls-11" transform="translate(2389.29 540.14)"><tspan x="0" y="0">12</tspan></text>
      <text class="cls-11" transform="translate(2548.66 540.14)"><tspan x="0" y="0">24</tspan></text>
      <text class="cls-11" transform="translate(2708.03 540.14)"><tspan x="0" y="0">36</tspan></text>
      <text class="cls-11" transform="translate(2867.4 540.14)"><tspan x="0" y="0">48</tspan></text>
      <line class="cls-9" x1="2915.14" y1="518.52" x2="3616.37" y2="518.52"/>
      <line class="cls-9" x1="2947.02" y1="524.1" x2="2947.02" y2="518.52"/>
      <line class="cls-9" x1="3106.39" y1="524.1" x2="3106.39" y2="518.52"/>
      <line class="cls-9" x1="3265.76" y1="524.1" x2="3265.76" y2="518.52"/>
      <line class="cls-9" x1="3425.13" y1="524.1" x2="3425.13" y2="518.52"/>
      <line class="cls-9" x1="3584.5" y1="524.1" x2="3584.5" y2="518.52"/>
      <text class="cls-11" transform="translate(2940.35 540.14)"><tspan x="0" y="0" xml:space="preserve"> 0</tspan></text>
      <text class="cls-11" transform="translate(3097.49 540.14)"><tspan x="0" y="0">12</tspan></text>
      <text class="cls-11" transform="translate(3256.86 540.14)"><tspan x="0" y="0">24</tspan></text>
      <text class="cls-11" transform="translate(3416.23 540.14)"><tspan x="0" y="0">36</tspan></text>
      <text class="cls-11" transform="translate(3575.6 540.14)"><tspan x="0" y="0">48</tspan></text>
      <line class="cls-9" x1="3623.35" y1="518.52" x2="4324.57" y2="518.52"/>
      <line class="cls-9" x1="3655.22" y1="524.1" x2="3655.22" y2="518.52"/>
      <line class="cls-9" x1="3814.59" y1="524.1" x2="3814.59" y2="518.52"/>
      <line class="cls-9" x1="3973.96" y1="524.1" x2="3973.96" y2="518.52"/>
      <line class="cls-9" x1="4133.33" y1="524.1" x2="4133.33" y2="518.52"/>
      <line class="cls-9" x1="4292.7" y1="524.1" x2="4292.7" y2="518.52"/>
      <text class="cls-11" transform="translate(3648.55 540.14)"><tspan x="0" y="0" xml:space="preserve"> 0</tspan></text>
      <text class="cls-11" transform="translate(3805.69 540.14)"><tspan x="0" y="0">12</tspan></text>
      <text class="cls-11" transform="translate(3965.06 540.14)"><tspan x="0" y="0">24</tspan></text>
      <text class="cls-11" transform="translate(4124.43 540.14)"><tspan x="0" y="0">36</tspan></text>
      <text class="cls-11" transform="translate(4283.8 540.14)"><tspan x="0" y="0">48</tspan></text>
      <line class="cls-9" x1="82.34" y1="270.97" x2="82.34" y2="30.38"/>
      <text class="cls-11" transform="translate(51.89 265.77)"><tspan x="0" y="0">0%</tspan></text>
      <text class="cls-11" transform="translate(43 211.1)"><tspan x="0" y="0">25%</tspan></text>
      <text class="cls-11" transform="translate(43 156.42)"><tspan x="0" y="0">50%</tspan></text>
      <text class="cls-11" transform="translate(43 101.74)"><tspan x="0" y="0">75%</tspan></text>
      <text class="cls-11" transform="translate(34.1 47.06)"><tspan x="0" y="0">100%</tspan></text>
      <line class="cls-9" x1="76.76" y1="260.03" x2="82.34" y2="260.03"/>
      <line class="cls-9" x1="76.76" y1="205.35" x2="82.34" y2="205.35"/>
      <line class="cls-9" x1="76.76" y1="150.67" x2="82.34" y2="150.67"/>
      <line class="cls-9" x1="76.76" y1="96" x2="82.34" y2="96"/>
      <line class="cls-9" x1="76.76" y1="41.32" x2="82.34" y2="41.32"/>
      <line class="cls-9" x1="82.34" y1="518.52" x2="82.34" y2="277.94"/>
      <text class="cls-11" transform="translate(51.89 513.33)"><tspan x="0" y="0">0%</tspan></text>
      <text class="cls-11" transform="translate(43 458.65)"><tspan x="0" y="0">25%</tspan></text>
      <text class="cls-11" transform="translate(43 403.97)"><tspan x="0" y="0">50%</tspan></text>
      <text class="cls-11" transform="translate(43 349.3)"><tspan x="0" y="0">75%</tspan></text>
      <text class="cls-11" transform="translate(34.1 294.62)"><tspan x="0" y="0">100%</tspan></text>
      <line class="cls-9" x1="76.76" y1="507.59" x2="82.34" y2="507.59"/>
      <line class="cls-9" x1="76.76" y1="452.91" x2="82.34" y2="452.91"/>
      <line class="cls-9" x1="76.76" y1="398.23" x2="82.34" y2="398.23"/>
      <line class="cls-9" x1="76.76" y1="343.55" x2="82.34" y2="343.55"/>
      <line class="cls-9" x1="76.76" y1="288.87" x2="82.34" y2="288.87"/>
      <text class="cls-12" transform="translate(2166.24 564.63)"><tspan x="0" y="0">Time (h)</tspan></text>
      <text class="cls-12" transform="translate(21.33 348.92) rotate(-90)"><tspan x="0" y="0">% Flies Sleeping</tspan></text>
      <rect class="cls-24" x="4392.31" y="257.17" width="25.11" height="17.28"/>
      <line class="cls-8" x1="4394.83" y1="265.81" x2="4414.91" y2="265.81"/>
      <rect class="cls-23" x="4392.31" y="274.45" width="25.11" height="17.28"/>
      <line class="cls-6" x1="4394.83" y1="283.09" x2="4414.91" y2="283.09"/>
      <text class="cls-11" transform="translate(4422.9 271.56)"><tspan x="0" y="0">G</tspan><tspan class="cls-27" x="12.45" y="0">r</tspan><tspan x="18.24" y="0">p</tspan></text>
      <text class="cls-11" transform="translate(4422.9 288.84)"><tspan x="0" y="0">Iso</tspan></text>
    </g>
  </g>
</svg>