<?xml version="1.0" encoding="UTF-8"?>
<svg xmlns="http://www.w3.org/2000/svg" version="1.1" xmlns:xlink="http://www.w3.org/1999/xlink" viewBox="0 0 4464 360">
  <defs>
    <style>
      .cls-1 {
        clip-path: url(#clippath-6);
      }

      .cls-2 {
        clip-path: url(#clippath-7);
      }

      .cls-3 {
        clip-path: url(#clippath-4);
      }

      .cls-4 {
        clip-path: url(#clippath-22);
      }

      .cls-5 {
        stroke: red;
      }

      .cls-5, .cls-6, .cls-7, .cls-8, .cls-9 {
        fill: none;
      }

      .cls-5, .cls-6, .cls-8, .cls-9 {
        stroke-linejoin: round;
      }

      .cls-5, .cls-8 {
        stroke-width: 2.13px;
      }

      .cls-10 {
        font-size: 16px;
      }

      .cls-10, .cls-11 {
        font-family: ArialMT, Arial;
      }

      .cls-12 {
        clip-path: url(#clippath-10);
      }

      .cls-13 {
        fill: #fff;
      }

      .cls-14 {
        clip-path: url(#clippath-25);
      }

      .cls-6 {
        stroke-linecap: square;
        stroke-width: 1.49px;
      }

      .cls-6, .cls-9 {
        stroke: #000;
      }

      .cls-15 {
        clip-path: url(#clippath-1);
      }

      .cls-11 {
        font-size: 20px;
      }

      .cls-16 {
        fill: red;
      }

      .cls-16, .cls-17 {
        opacity: .4;
      }

      .cls-18 {
        clip-path: url(#clippath-5);
      }

      .cls-8 {
        stroke: blue;
      }

      .cls-19 {
        letter-spacing: .03em;
      }

      .cls-20 {
        clip-path: url(#clippath-3);
      }

      .cls-17 {
        fill: blue;
      }

      .cls-21 {
        clip-path: url(#clippath-19);
      }

      .cls-22 {
        clip-path: url(#clippath-16);
      }

      .cls-23 {
        clip-path: url(#clippath-2);
      }

      .cls-9 {
        stroke-width: 1.07px;
      }

      .cls-24 {
        clip-path: url(#clippath-13);
      }

      .cls-25 {
        clip-path: url(#clippath);
      }
    </style>
    <clipPath id="clippath">
      <rect class="cls-7" width="4464" height="360"/>
    </clipPath>
    <clipPath id="clippath-1">
      <rect class="cls-7" x="82.34" y="30.38" width="705.13" height="272.14"/>
    </clipPath>
    <clipPath id="clippath-2">
      <rect class="cls-7" x="794.44" y="30.38" width="705.13" height="272.14"/>
    </clipPath>
    <clipPath id="clippath-3">
      <rect class="cls-7" x="1506.54" y="30.38" width="705.13" height="272.14"/>
    </clipPath>
    <clipPath id="clippath-4">
      <rect class="cls-7" x="2218.65" y="30.38" width="705.13" height="272.14"/>
    </clipPath>
    <clipPath id="clippath-5">
      <rect class="cls-7" x="2930.75" y="30.38" width="705.13" height="272.14"/>
    </clipPath>
    <clipPath id="clippath-6">
      <rect class="cls-7" x="3642.85" y="30.38" width="705.13" height="272.14"/>
    </clipPath>
    <clipPath id="clippath-7">
      <rect class="cls-7" x="82.34" y="6.97" width="705.13" height="23.41"/>
    </clipPath>
    <clipPath id="clippath-10">
      <rect class="cls-7" x="794.44" y="6.97" width="705.13" height="23.41"/>
    </clipPath>
    <clipPath id="clippath-13">
      <rect class="cls-7" x="1506.54" y="6.97" width="705.13" height="23.41"/>
    </clipPath>
    <clipPath id="clippath-16">
      <rect class="cls-7" x="2218.65" y="6.97" width="705.13" height="23.41"/>
    </clipPath>
    <clipPath id="clippath-19">
      <rect class="cls-7" x="2930.75" y="6.97" width="705.13" height="23.41"/>
    </clipPath>
    <clipPath id="clippath-22">
      <rect class="cls-7" x="3642.85" y="6.97" width="705.13" height="23.41"/>
    </clipPath>
    <clipPath id="clippath-25">
      <rect class="cls-7" x="4347.98" y="30.38" width="23.41" height="272.14"/>
    </clipPath>
  </defs>
  <!-- Generator: Adobe Illustrator 28.7.7, SVG Export Plug-In . SVG Version: 1.2.0 Build 194)  -->
  <g>
    <g id="Layer_1">
      <g class="cls-25">
        <rect class="cls-13" width="4464" height="360"/>
      </g>
      <g class="cls-15">
        <polygon class="cls-17" points="114.39 232.6 121.07 248.55 127.74 205.78 134.42 178.93 141.1 148.75 147.78 138.15 154.45 107.07 161.13 94.31 167.81 101.85 174.48 112.93 181.16 105.93 187.84 119.04 194.52 103.58 201.19 105.03 207.87 95.23 214.55 125.04 221.23 126.94 227.9 124.06 234.58 162.41 241.26 145.15 247.94 179.9 254.61 186.66 261.29 242.42 267.97 274.68 274.65 285.18 281.32 247.57 288 105.32 294.68 58.71 301.35 59.69 308.03 55.36 314.71 64.7 321.39 69.84 328.06 74.03 334.74 75.93 341.42 62.35 348.1 70.77 354.77 68.75 361.45 88.13 368.13 73.77 374.81 77.83 381.48 73.52 388.16 68.68 394.84 76.68 401.52 81.6 408.19 51.9 414.87 65.89 421.55 63.94 428.22 88.35 434.9 240.09 441.58 241.97 448.26 201.57 454.93 159.77 461.61 132.09 468.29 109.2 474.97 106.57 481.64 92.51 488.32 86.28 495 93.51 501.68 84.72 508.35 84.91 515.03 92.35 521.71 89 528.38 85.56 535.06 123.77 541.74 117.24 548.42 121.82 555.09 131.66 561.77 158.77 568.45 140.42 575.13 199.6 581.8 210.47 588.48 256.53 595.16 282.69 601.84 218.78 608.51 81.85 615.19 47.2 621.87 48.54 628.55 47.31 635.22 46.17 641.9 48.17 648.58 51.76 655.25 54.61 661.93 61.3 668.61 54.35 675.29 51.45 681.96 60.27 688.64 63.08 695.32 70.06 702 64.95 708.67 57.71 715.35 66.18 722.03 75.82 728.71 67.17 735.38 82.81 742.06 78.82 748.74 75.94 755.42 47.62 755.42 69.81 748.74 95.76 742.06 97.14 735.38 105.38 728.71 82.18 722.03 96.95 715.35 83.17 708.67 70.89 702 80.67 695.32 89.4 688.64 80.95 681.96 76.31 675.29 61.72 668.61 64.68 661.93 80.07 655.25 69.73 648.58 64.07 641.9 56.49 635.22 51.57 628.55 52.03 621.87 60.91 615.19 61.71 608.51 105.8 601.84 241.28 595.16 287.51 588.48 271.63 581.8 234.16 575.13 221.62 568.45 160.56 561.77 182.65 555.09 148.57 548.42 140.32 541.74 135.33 535.06 144.23 528.38 98.9 521.71 103.98 515.03 109.67 508.35 102.22 501.68 99.22 495 113.83 488.32 101.91 481.64 108.98 474.97 125.25 468.29 126.87 461.61 153.99 454.93 184.84 448.26 221.78 441.58 259.06 434.9 251.9 428.22 111.55 421.55 79.02 414.87 83.99 408.19 60.74 401.52 100.73 394.84 91.83 388.16 86.53 381.48 93.92 374.81 97.06 368.13 89.41 361.45 111.76 354.77 88.58 348.1 88.69 341.42 74.77 334.74 90.98 328.06 89.16 321.39 87.49 314.71 81.99 308.03 67.38 301.35 75.83 294.68 76.8 288 132.35 281.32 266.22 274.65 289.27 267.97 281.68 261.29 260.2 254.61 209.02 247.94 203.02 241.26 162.74 234.58 179.01 227.9 143.94 221.23 144.25 214.55 145.62 207.87 115.3 201.19 123.6 194.52 124.51 187.84 142.04 181.16 124.82 174.48 133.79 167.81 123.58 161.13 110.37 154.45 124.74 147.78 160.17 141.1 169.25 134.42 201.86 127.74 230.87 121.07 264.18 114.39 246.09 114.39 232.6"/>
        <polyline class="cls-8" points="114.39 239.34 121.07 256.37 127.74 218.33 134.42 190.39 141.1 159 147.78 149.16 154.45 115.91 161.13 102.34 167.81 112.72 174.48 123.36 181.16 115.38 187.84 130.54 194.52 114.05 201.19 114.31 207.87 105.27 214.55 135.33 221.23 135.59 227.9 134 234.58 170.71 241.26 153.95 247.94 191.46 254.61 197.84 261.29 251.31 267.97 278.18 274.65 287.22 281.32 256.9 288 118.83 294.68 67.76 301.35 67.76 308.03 61.37 314.71 73.35 321.39 78.67 328.06 81.59 334.74 83.45 341.42 68.56 348.1 79.73 354.77 78.67 361.45 99.95 368.13 81.59 374.81 87.44 381.48 83.72 388.16 77.6 394.84 84.25 401.52 91.17 408.19 56.32 414.87 74.94 421.55 71.48 428.22 99.95 434.9 245.99 441.58 250.51 448.26 211.68 454.93 172.3 461.61 143.04 468.29 118.04 474.97 115.91 481.64 100.75 488.32 94.09 495 103.67 501.68 91.97 508.35 93.56 515.03 101.01 521.71 96.49 528.38 92.23 535.06 134 541.74 126.28 548.42 131.07 555.09 140.12 561.77 170.71 568.45 150.49 575.13 210.61 581.8 222.32 588.48 264.08 595.16 285.1 601.84 230.03 608.51 93.83 615.19 54.46 621.87 54.72 628.55 49.67 635.22 48.87 641.9 52.33 648.58 57.92 655.25 62.17 661.93 70.69 668.61 59.51 675.29 56.59 681.96 68.29 688.64 72.02 695.32 79.73 702 72.81 708.67 64.3 715.35 74.68 722.03 86.38 728.71 74.68 735.38 94.09 742.06 87.98 748.74 85.85 755.42 58.71"/>
        <polygon class="cls-16" points="114.39 237.27 121.07 262.73 127.74 239.34 134.42 202.54 141.1 203.13 147.78 146.28 154.45 135.31 161.13 130.58 167.81 92.29 174.48 100.89 181.16 82.82 187.84 107.76 194.52 96.42 201.19 83.91 207.87 127.27 214.55 92.13 221.23 123.69 227.9 116.36 234.58 140.94 241.26 135.14 247.94 173.75 254.61 201.74 261.29 216.77 267.97 258.28 267.97 270.34 261.29 234.88 254.61 224.62 247.94 191.59 241.26 156.53 234.58 163.93 227.9 137.38 221.23 144.9 214.55 107.73 207.87 150.11 201.19 100.01 194.52 116.63 187.84 130.03 181.16 98.35 174.48 117.66 167.81 112.51 161.13 152.3 154.45 159.66 147.78 170.68 141.1 222.14 134.42 226.57 127.74 260.15 121.07 276.89 114.39 249.03 114.39 237.27"/>
        <polygon class="cls-16" points="281.32 255.75 288 160.03 294.68 92.07 301.35 60.47 308.03 66.29 314.71 75.16 321.39 71.31 328.06 72.74 334.74 77.03 341.42 82.44 348.1 66.25 354.77 75.32 361.45 67.04 368.13 73.71 374.81 71.66 381.48 63.05 388.16 76.63 394.84 69.9 401.52 69.85 408.19 84.88 414.87 78.76 421.55 69.01 428.22 75.95 434.9 223.28 441.58 267.62 448.26 217.71 454.93 187.26 461.61 168.84 468.29 133.05 474.97 131.16 481.64 109.34 488.32 102.05 495 76.31 501.68 101.39 508.35 110.55 515.03 100.29 521.71 92.57 528.38 123.31 535.06 119.59 541.74 114.21 548.42 139.28 555.09 130.24 561.77 146.81 568.45 155.96 575.13 184.2 581.8 220.79 588.48 246.56 595.16 282.61 601.84 233.47 608.51 115.64 615.19 72.96 621.87 58.55 628.55 56.48 635.22 65.15 641.9 64.08 648.58 70.82 655.25 66.81 661.93 73.92 668.61 71.88 675.29 70.49 681.96 68.04 688.64 64.98 695.32 66.02 702 62.95 708.67 69.79 715.35 69.53 722.03 77.62 728.71 67.9 735.38 72.37 742.06 67.63 748.74 67.24 755.42 60.12 755.42 91.36 748.74 84.79 742.06 83.85 735.38 90.66 728.71 84.13 722.03 95.85 715.35 86.9 708.67 86.09 702 78.09 695.32 82.16 688.64 79.36 681.96 85.64 675.29 86.49 668.61 95.54 661.93 93.5 655.25 80.82 648.58 86.16 641.9 86.3 635.22 84.68 628.55 74.11 621.87 76.99 615.19 99.41 608.51 150.74 601.84 257.77 595.16 287.25 588.48 257.33 581.8 239.67 575.13 200.94 568.45 179.7 561.77 167.4 555.09 150.99 548.42 160.63 541.74 132.93 535.06 138.55 528.38 144.17 521.71 112.24 515.03 123.21 508.35 131.64 501.68 123.21 495 89.46 488.32 118.7 481.64 132.31 474.97 152.26 468.29 160.82 461.61 193.2 454.93 210.52 448.26 241.09 441.58 277.49 434.9 234.97 428.22 96.42 421.55 86.87 414.87 102.96 408.19 108.38 401.52 88.78 394.84 89.28 388.16 98.49 381.48 75.23 374.81 89.16 368.13 95.36 361.45 84.99 354.77 91 348.1 85.23 341.42 102.58 334.74 96.98 328.06 90.84 321.39 89.51 314.71 94.47 308.03 82.44 301.35 76.17 294.68 119.88 288 197.62 281.32 274.52 281.32 255.75"/>
        <polyline class="cls-5" points="114.39 243.15 121.07 269.81 127.74 249.74 134.42 214.56 141.1 212.63 147.78 158.48 154.45 147.48 161.13 141.44 167.81 102.4 174.48 109.28 181.16 90.58 187.84 118.9 194.52 106.53 201.19 91.96 207.87 138.69 214.55 99.93 221.23 134.29 227.9 126.87 234.58 152.43 241.26 145.84 247.94 182.67 254.61 213.18 261.29 225.83 267.97 264.31 274.65 288.78 281.32 265.14 288 178.82 294.68 105.98 301.35 68.32 308.03 74.36 314.71 84.81 321.39 80.41 328.06 81.79 334.74 87.01 341.42 92.51 348.1 75.74 354.77 83.16 361.45 76.01 368.13 84.54 374.81 80.41 381.48 69.14 388.16 87.56 394.84 79.59 401.52 79.31 408.19 96.63 414.87 90.86 421.55 77.94 428.22 86.19 434.9 229.13 441.58 272.56 448.26 229.4 454.93 198.89 461.61 181.02 468.29 146.94 474.97 141.71 481.64 120.82 488.32 110.38 495 82.89 501.68 112.3 508.35 121.1 515.03 111.75 521.71 102.4 528.38 133.74 535.06 129.07 541.74 123.57 548.42 149.96 555.09 140.61 561.77 157.11 568.45 167.83 575.13 192.57 581.8 230.23 588.48 251.94 595.16 284.93 601.84 245.62 608.51 133.19 615.19 86.19 621.87 67.77 628.55 65.29 635.22 74.91 641.9 75.19 648.58 78.49 655.25 73.82 661.93 83.71 668.61 83.71 675.29 78.49 681.96 76.84 688.64 72.17 695.32 74.09 702 70.52 708.67 77.94 715.35 78.21 722.03 86.73 728.71 76.01 735.38 81.51 742.06 75.74 748.74 76.01 755.42 75.74"/>
        <rect class="cls-13" x="114.39" y="294.36" width="160.26" height="8.16"/>
        <rect class="cls-9" x="114.39" y="294.36" width="160.26" height="8.16"/>
        <rect x="274.65" y="294.36" width="160.26" height="8.16"/>
        <rect class="cls-9" x="274.65" y="294.36" width="160.26" height="8.16"/>
        <rect class="cls-13" x="434.9" y="294.36" width="160.26" height="8.16"/>
        <rect class="cls-9" x="434.9" y="294.36" width="160.26" height="8.16"/>
        <rect x="595.16" y="294.36" width="160.26" height="8.16"/>
        <rect class="cls-9" x="595.16" y="294.36" width="160.26" height="8.16"/>
        <rect class="cls-13" x="114.39" y="294.36" width="160.26" height="8.16"/>
        <rect class="cls-9" x="114.39" y="294.36" width="160.26" height="8.16"/>
        <rect x="274.65" y="294.36" width="160.26" height="8.16"/>
        <rect class="cls-9" x="274.65" y="294.36" width="160.26" height="8.16"/>
        <rect class="cls-13" x="434.9" y="294.36" width="160.26" height="8.16"/>
        <rect class="cls-9" x="434.9" y="294.36" width="160.26" height="8.16"/>
        <rect x="595.16" y="294.36" width="160.26" height="8.16"/>
        <rect class="cls-9" x="595.16" y="294.36" width="160.26" height="8.16"/>
      </g>
      <g class="cls-23">
        <polygon class="cls-17" points="826.49 200.43 833.17 209.97 839.85 139.12 846.52 119.77 853.2 93.4 859.88 89.13 866.56 63.64 873.23 79.49 879.91 57.06 886.59 74.44 893.27 60.03 899.94 62.24 906.62 63.92 913.3 60.21 919.97 68.79 926.65 69.8 933.33 84.77 940.01 72.98 946.68 69.93 953.36 61.2 960.04 105.18 966.72 100.3 973.39 112.89 980.07 186.58 986.75 138.56 993.43 44.97 1000.1 46.38 1006.78 45.28 1013.46 49.05 1020.14 46.74 1026.81 43.54 1033.49 43.46 1040.17 44.66 1046.84 46.01 1053.52 44.74 1060.2 48.79 1066.88 46.07 1073.55 45.64 1080.23 45.23 1086.91 53.16 1093.59 53.2 1100.26 53.11 1106.94 52.9 1113.62 62.35 1120.3 60.24 1126.97 70.26 1133.65 79.1 1140.33 72.15 1147.01 202.03 1153.68 213.22 1160.36 140.22 1167.04 110.61 1173.71 97.96 1180.39 73.34 1187.07 62.85 1193.75 74.25 1200.42 71.54 1207.1 70.75 1213.78 79.62 1220.46 71.54 1227.13 56.96 1233.81 62.93 1240.49 68.19 1247.17 69.68 1253.84 68.18 1260.52 81.11 1267.2 70.33 1273.88 96.69 1280.55 93.33 1287.23 114.25 1293.91 114.23 1300.58 183.55 1307.26 134.3 1313.94 43.57 1320.62 47.48 1327.29 50.79 1333.97 49.44 1340.65 46.14 1347.33 49.57 1354 46.23 1360.68 49.8 1367.36 54.1 1374.04 49.9 1380.71 51.27 1387.39 48.45 1394.07 59.7 1400.75 49.47 1407.42 53.89 1414.1 58.51 1420.78 60.08 1427.45 78.77 1434.13 61.52 1440.81 76.11 1447.49 66.52 1454.16 66.76 1460.84 79.12 1467.52 60.75 1467.52 93 1460.84 99.09 1454.16 81.3 1447.49 87.24 1440.81 91.86 1434.13 81.43 1427.45 96.6 1420.78 72.06 1414.1 70.22 1407.42 64.03 1400.75 55.37 1394.07 71.88 1387.39 56.97 1380.71 61.54 1374.04 56.65 1367.36 64.39 1360.68 60.73 1354 53.49 1347.33 61.53 1340.65 52.45 1333.97 57.11 1327.29 64.29 1320.62 55.09 1313.94 47.05 1307.26 157.08 1300.58 213.62 1293.91 144.74 1287.23 135.05 1280.55 120.71 1273.88 117.35 1267.2 85.7 1260.52 103.93 1253.84 83.3 1247.17 82.37 1240.49 88.41 1233.81 83.99 1227.13 71.77 1220.46 91.32 1213.78 102.57 1207.1 90.97 1200.42 88.47 1193.75 93.15 1187.07 81.24 1180.39 96.34 1173.71 128.03 1167.04 142.11 1160.36 172.21 1153.68 241.39 1147.01 219.03 1140.33 96.39 1133.65 109.35 1126.97 95.44 1120.3 71.9 1113.62 78.89 1106.94 68.43 1100.26 69.37 1093.59 64.73 1086.91 65.9 1080.23 51.09 1073.55 51.81 1066.88 55.93 1060.2 58.89 1053.52 55.55 1046.84 51.44 1040.17 48.81 1033.49 44.89 1026.81 45.95 1020.14 52.42 1013.46 58.06 1006.78 48.19 1000.1 51.07 993.43 48.5 986.75 159.65 980.07 214 973.39 135.27 966.72 126.25 960.04 128.19 953.36 74.92 946.68 85.53 940.01 93.29 933.33 106.52 926.65 94.76 919.97 87.81 913.3 79.89 906.62 80.73 899.94 79.57 893.27 76.09 886.59 96.95 879.91 80.2 873.23 97.02 866.56 84.99 859.88 118.08 853.2 124.62 846.52 151.71 839.85 175.01 833.17 236.12 826.49 222.33 826.49 200.43"/>
        <polyline class="cls-8" points="826.49 211.38 833.17 223.04 839.85 157.07 846.52 135.74 853.2 109.01 859.88 103.61 866.56 74.32 873.23 88.25 879.91 68.63 886.59 85.69 893.27 68.06 899.94 70.91 906.62 72.33 913.3 70.05 919.97 78.3 926.65 82.28 933.33 95.64 940.01 83.13 946.68 77.73 953.36 68.06 960.04 116.69 966.72 113.28 973.39 124.08 980.07 200.29 986.75 149.11 993.43 46.73 1000.1 48.72 1006.78 46.73 1013.46 53.56 1020.14 49.58 1026.81 44.74 1033.49 44.17 1040.17 46.73 1046.84 48.72 1053.52 50.15 1060.2 53.84 1066.88 51 1073.55 48.72 1080.23 48.16 1086.91 59.53 1093.59 58.96 1100.26 61.24 1106.94 60.67 1113.62 70.62 1120.3 66.07 1126.97 82.85 1133.65 94.22 1140.33 84.27 1147.01 210.53 1153.68 227.31 1160.36 156.21 1167.04 126.36 1173.71 112.99 1180.39 84.84 1187.07 72.04 1193.75 83.7 1200.42 80 1207.1 80.86 1213.78 91.1 1220.46 81.43 1227.13 64.36 1233.81 73.46 1240.49 78.3 1247.17 76.02 1253.84 75.74 1260.52 92.52 1267.2 78.01 1273.88 107.02 1280.55 107.02 1287.23 124.65 1293.91 129.48 1300.58 198.59 1307.26 145.69 1313.94 45.31 1320.62 51.28 1327.29 57.54 1333.97 53.27 1340.65 49.29 1347.33 55.55 1354 49.86 1360.68 55.27 1367.36 59.25 1374.04 53.27 1380.71 56.4 1387.39 52.71 1394.07 65.79 1400.75 52.42 1407.42 58.96 1414.1 64.36 1420.78 66.07 1427.45 87.68 1434.13 71.47 1440.81 83.99 1447.49 76.88 1454.16 74.03 1460.84 89.1 1467.52 76.88"/>
        <polygon class="cls-16" points="826.49 175.5 833.17 182.92 839.85 167.85 846.52 137.08 853.2 133.11 859.88 117.79 866.56 102.44 873.23 77.62 879.91 83.93 886.59 73.12 893.27 78.68 899.94 63.12 906.62 74.35 913.3 73.93 919.97 67.27 926.65 62.48 933.33 81.26 940.01 83.53 946.68 87.79 953.36 92.59 960.04 105.18 966.72 120.15 973.39 149.39 980.07 174.97 986.75 149.46 993.43 52.13 1000.1 54.17 1006.78 48.35 1013.46 51.07 1020.14 51.05 1026.81 48.78 1033.49 47.56 1040.17 48.39 1046.84 59.85 1053.52 50.93 1060.2 56.81 1066.88 52.71 1073.55 56.1 1080.23 54.6 1086.91 52.09 1093.59 56.54 1100.26 64.74 1106.94 79.9 1113.62 103.86 1120.3 86.23 1126.97 67.73 1133.65 88.86 1140.33 106.36 1147.01 186.12 1153.68 198.81 1160.36 160.19 1167.04 139.68 1173.71 113.41 1180.39 99.37 1187.07 91.51 1193.75 85.67 1200.42 64.61 1207.1 84.93 1213.78 72.78 1220.46 71.03 1227.13 67.04 1233.81 68.8 1240.49 72.06 1247.17 63.64 1253.84 74.59 1260.52 103.1 1267.2 82.37 1273.88 92.17 1280.55 100.28 1287.23 108.19 1293.91 153.5 1300.58 179.59 1307.26 142.75 1313.94 53.28 1320.62 59.7 1327.29 62.9 1333.97 52.84 1340.65 52.06 1347.33 53.24 1354 53.35 1360.68 54.99 1367.36 55.17 1374.04 50.27 1380.71 57.86 1387.39 55.92 1394.07 60.1 1400.75 61.21 1407.42 64.3 1414.1 66.07 1420.78 61.16 1427.45 80.24 1434.13 76.13 1440.81 116.38 1447.49 97.52 1454.16 88.87 1460.84 88.97 1467.52 71.8 1467.52 106.48 1460.84 118.18 1454.16 113.63 1447.49 125.09 1440.81 143.85 1434.13 100.09 1427.45 102.67 1420.78 76.41 1414.1 81.28 1407.42 85.11 1400.75 75.83 1394.07 71.79 1387.39 67.21 1380.71 72.49 1374.04 63.07 1367.36 66.41 1360.68 65.56 1354 63.6 1347.33 64.22 1340.65 68.5 1333.97 66.16 1327.29 85.48 1320.62 77.35 1313.94 69.85 1307.26 170.05 1300.58 208.97 1293.91 185.07 1287.23 133.49 1280.55 121.3 1273.88 112.91 1267.2 106.73 1260.52 129.81 1253.84 99.05 1247.17 81.14 1240.49 90.76 1233.81 87.32 1227.13 84.96 1220.46 89.21 1213.78 89 1207.1 109.33 1200.42 83.78 1193.75 111.17 1187.07 120.79 1180.39 124.26 1173.71 143.21 1167.04 176.73 1160.36 193.33 1153.68 226.86 1147.01 206.06 1140.33 136.34 1133.65 118.28 1126.97 87.35 1120.3 114.73 1113.62 132.66 1106.94 104.05 1100.26 79.53 1093.59 70.2 1086.91 63.83 1080.23 64.92 1073.55 68.58 1066.88 60.63 1060.2 69.93 1053.52 59.31 1046.84 73.07 1040.17 55.15 1033.49 55.98 1026.81 59.91 1020.14 59.2 1013.46 65.87 1006.78 63.95 1000.1 74.11 993.43 66.36 986.75 173.66 980.07 203.29 973.39 181.45 966.72 148.33 960.04 130.83 953.36 118.16 946.68 110.59 940.01 108.15 933.33 103.2 926.65 80.75 919.97 86.78 913.3 99.2 906.62 95.68 899.94 78.05 893.27 100.63 886.59 91.76 879.91 106.72 873.23 103.23 866.56 128.93 859.88 147.6 853.2 166.3 846.52 167.99 839.85 202.68 833.17 213.38 826.49 196.57 826.49 175.5"/>
        <polyline class="cls-5" points="826.49 186.04 833.17 198.15 839.85 185.26 846.52 152.54 853.2 149.7 859.88 132.69 866.56 115.68 873.23 90.43 879.91 95.33 886.59 82.44 893.27 89.66 899.94 70.59 906.62 85.02 913.3 86.56 919.97 77.03 926.65 71.62 933.33 92.23 940.01 95.84 946.68 99.19 953.36 105.38 960.04 118 966.72 134.24 973.39 165.42 980.07 189.13 986.75 161.56 993.43 59.25 1000.1 64.14 1006.78 56.15 1013.46 58.47 1020.14 55.12 1026.81 54.35 1033.49 51.77 1040.17 51.77 1046.84 66.46 1053.52 55.12 1060.2 63.37 1066.88 56.67 1073.55 62.34 1080.23 59.76 1086.91 57.96 1093.59 63.37 1100.26 72.13 1106.94 91.97 1113.62 118.26 1120.3 100.48 1126.97 77.54 1133.65 103.57 1140.33 121.35 1147.01 196.09 1153.68 212.84 1160.36 176.76 1167.04 158.21 1173.71 128.31 1180.39 111.82 1187.07 106.15 1193.75 98.42 1200.42 74.19 1207.1 97.13 1213.78 80.89 1220.46 80.12 1227.13 76 1233.81 78.06 1240.49 81.41 1247.17 72.39 1253.84 86.82 1260.52 116.46 1267.2 94.55 1273.88 102.54 1280.55 110.79 1287.23 120.84 1293.91 169.29 1300.58 194.28 1307.26 156.4 1313.94 61.57 1320.62 68.52 1327.29 74.19 1333.97 59.5 1340.65 60.28 1347.33 58.73 1354 58.47 1360.68 60.28 1367.36 60.79 1374.04 56.67 1380.71 65.17 1387.39 61.57 1394.07 65.95 1400.75 68.52 1407.42 74.71 1414.1 73.68 1420.78 68.78 1427.45 91.46 1434.13 88.11 1440.81 130.12 1447.49 111.3 1454.16 101.25 1460.84 103.57 1467.52 89.14"/>
        <rect class="cls-13" x="826.49" y="294.36" width="160.26" height="8.16"/>
        <rect class="cls-9" x="826.49" y="294.36" width="160.26" height="8.16"/>
        <rect x="986.75" y="294.36" width="160.26" height="8.16"/>
        <rect class="cls-9" x="986.75" y="294.36" width="160.26" height="8.16"/>
        <rect class="cls-13" x="1147.01" y="294.36" width="160.26" height="8.16"/>
        <rect class="cls-9" x="1147.01" y="294.36" width="160.26" height="8.16"/>
        <rect x="1307.26" y="294.36" width="160.26" height="8.16"/>
        <rect class="cls-9" x="1307.26" y="294.36" width="160.26" height="8.16"/>
        <rect class="cls-13" x="826.49" y="294.36" width="160.26" height="8.16"/>
        <rect class="cls-9" x="826.49" y="294.36" width="160.26" height="8.16"/>
        <rect x="986.75" y="294.36" width="160.26" height="8.16"/>
        <rect class="cls-9" x="986.75" y="294.36" width="160.26" height="8.16"/>
        <rect class="cls-13" x="1147.01" y="294.36" width="160.26" height="8.16"/>
        <rect class="cls-9" x="1147.01" y="294.36" width="160.26" height="8.16"/>
        <rect x="1307.26" y="294.36" width="160.26" height="8.16"/>
        <rect class="cls-9" x="1307.26" y="294.36" width="160.26" height="8.16"/>
      </g>
      <g class="cls-20">
        <polygon class="cls-17" points="1538.6 226.76 1545.27 246.6 1551.95 208.55 1558.63 163.92 1565.3 155.73 1571.98 124.57 1578.66 112.91 1585.34 102.17 1592.01 113.49 1598.69 84.9 1605.37 95.45 1612.05 108.73 1618.72 105.39 1625.4 96.03 1632.08 81.74 1638.76 78.02 1645.43 98.75 1652.11 111.37 1658.79 106.84 1665.47 117.12 1672.14 125.19 1678.82 150.34 1685.5 181.82 1692.17 207.98 1698.85 207.5 1705.53 75.55 1712.21 66.72 1718.88 59.73 1725.56 59.54 1732.24 60.3 1738.92 73.11 1745.59 60.37 1752.27 58.8 1758.95 67.47 1765.63 72.83 1772.3 69.04 1778.98 68.55 1785.66 72.72 1792.34 65.01 1799.01 72.78 1805.69 63.45 1812.37 78.3 1819.04 89.26 1825.72 93.51 1832.4 93.72 1839.08 89.02 1845.75 80.97 1852.43 79.41 1859.11 210.91 1865.79 231.48 1872.46 194.53 1879.14 152.23 1885.82 146.9 1892.5 110.72 1899.17 113.7 1905.85 101.48 1912.53 85.48 1919.21 82.36 1925.88 92.05 1932.56 73.39 1939.24 78.24 1945.91 70.54 1952.59 68.82 1959.27 99.85 1965.95 97.88 1972.62 97.53 1979.3 114.79 1985.98 104.78 1992.66 119.94 1999.33 125.86 2006.01 181.04 2012.69 225.33 2019.37 187.09 2026.04 69.65 2032.72 67.05 2039.4 62.9 2046.08 57.84 2052.75 60.86 2059.43 65.2 2066.11 60.97 2072.78 60.11 2079.46 63.71 2086.14 57.91 2092.82 67.89 2099.49 64.68 2106.17 61.74 2112.85 62.24 2119.53 77.82 2126.2 85.32 2132.88 75.31 2139.56 89.54 2146.24 82.07 2152.91 92.32 2159.59 85.45 2166.27 79.65 2172.94 75.12 2179.62 65.28 2179.62 97.54 2172.94 94.91 2166.27 101.21 2159.59 105.2 2152.91 112.76 2146.24 100.85 2139.56 105.75 2132.88 95.24 2126.2 105.84 2119.53 92.73 2112.85 74.8 2106.17 73.76 2099.49 77.52 2092.82 83.59 2086.14 67.28 2079.46 74.37 2072.78 73.84 2066.11 77.1 2059.43 79.06 2052.75 74.13 2046.08 68.39 2039.4 76.72 2032.72 84.43 2026.04 94.19 2019.37 212.3 2012.69 243.64 2006.01 205.98 1999.33 149.32 1992.66 146.99 1985.98 128.13 1979.3 140.81 1972.62 117.35 1965.95 122.14 1959.27 121.21 1952.59 85.23 1945.91 92.79 1939.24 100.56 1932.56 93.55 1925.88 111.48 1919.21 100.56 1912.53 104.14 1905.85 124.73 1899.17 140.35 1892.5 138.69 1885.82 175.69 1879.14 182.74 1872.46 220.32 1865.79 250.89 1859.11 227.13 1852.43 95.78 1845.75 106.07 1839.08 115.03 1832.4 114.97 1825.72 110.54 1819.04 107.57 1812.37 95.34 1805.69 77.2 1799.01 90.56 1792.34 82.86 1785.66 91.64 1778.98 82.93 1772.3 82.96 1765.63 88.96 1758.95 79.88 1752.27 70.52 1745.59 74.1 1738.92 91.25 1732.24 75.2 1725.56 70.8 1718.88 71.64 1712.21 79.09 1705.53 97.58 1698.85 227.46 1692.17 228.01 1685.5 207.78 1678.82 180.5 1672.14 151.02 1665.47 143.11 1658.79 130.2 1652.11 137.01 1645.43 120.76 1638.76 96.14 1632.08 101.17 1625.4 119.36 1618.72 130.1 1612.05 135.52 1605.37 118.39 1598.69 110.9 1592.01 136.95 1585.34 130.23 1578.66 143.2 1571.98 155.76 1565.3 186.45 1558.63 194.75 1551.95 234.14 1545.27 262.06 1538.6 240.67 1538.6 226.76"/>
        <polyline class="cls-8" points="1538.6 233.71 1545.27 254.33 1551.95 221.34 1558.63 179.34 1565.3 171.09 1571.98 140.17 1578.66 128.05 1585.34 116.2 1592.01 125.22 1598.69 97.9 1605.37 106.92 1612.05 122.13 1618.72 117.75 1625.4 107.69 1632.08 91.46 1638.76 87.08 1645.43 109.76 1652.11 124.19 1658.79 118.52 1665.47 130.12 1672.14 138.1 1678.82 165.42 1685.5 194.8 1692.17 217.99 1698.85 217.48 1705.53 86.56 1712.21 72.9 1718.88 65.69 1725.56 65.17 1732.24 67.75 1738.92 82.18 1745.59 67.24 1752.27 64.66 1758.95 73.68 1765.63 80.89 1772.3 76 1778.98 75.74 1785.66 82.18 1792.34 73.94 1799.01 81.67 1805.69 70.33 1812.37 86.82 1819.04 98.42 1825.72 102.03 1832.4 104.34 1839.08 102.03 1845.75 93.52 1852.43 87.59 1859.11 219.02 1865.79 241.19 1872.46 207.43 1879.14 167.48 1885.82 161.3 1892.5 124.7 1899.17 127.02 1905.85 113.11 1912.53 94.81 1919.21 91.46 1925.88 101.77 1932.56 83.47 1939.24 89.4 1945.91 81.67 1952.59 77.03 1959.27 110.53 1965.95 110.01 1972.62 107.44 1979.3 127.8 1985.98 116.46 1992.66 133.47 1999.33 137.59 2006.01 193.51 2012.69 234.49 2019.37 199.7 2026.04 81.92 2032.72 75.74 2039.4 69.81 2046.08 63.11 2052.75 67.49 2059.43 72.13 2066.11 69.04 2072.78 66.98 2079.46 69.04 2086.14 62.6 2092.82 75.74 2099.49 71.1 2106.17 67.75 2112.85 68.52 2119.53 85.27 2126.2 95.58 2132.88 85.27 2139.56 97.64 2146.24 91.46 2152.91 102.54 2159.59 95.33 2166.27 90.43 2172.94 85.02 2179.62 81.41"/>
        <polygon class="cls-16" points="1538.6 179.99 1545.27 224.96 1551.95 208.9 1558.63 178.02 1565.3 156.59 1571.98 137.94 1578.66 123.54 1585.34 115.68 1592.01 100.76 1598.69 95.82 1605.37 82.39 1612.05 83.77 1618.72 82.19 1625.4 80.58 1632.08 79.73 1638.76 84.88 1645.43 115.28 1652.11 92.48 1658.79 108.31 1665.47 105 1672.14 120.13 1678.82 134.24 1685.5 167.32 1692.17 204.63 1698.85 219.06 1705.53 91.57 1712.21 88.09 1718.88 75.3 1725.56 71.12 1732.24 79.73 1738.92 72.28 1745.59 66.83 1752.27 65.93 1758.95 79.46 1765.63 69.76 1772.3 66.33 1778.98 69.55 1785.66 62 1792.34 88.78 1799.01 77.13 1805.69 84.23 1812.37 71.38 1819.04 85.99 1825.72 105.56 1832.4 99.27 1839.08 109.21 1845.75 87.11 1852.43 90.94 1859.11 196.77 1865.79 240.87 1872.46 212.76 1879.14 180.53 1885.82 154.93 1892.5 137.3 1899.17 120.58 1905.85 94.08 1912.53 94.81 1919.21 84.08 1925.88 101.52 1932.56 91.14 1939.24 90.5 1945.91 75.28 1952.59 72.34 1959.27 76.94 1965.95 106.82 1972.62 81.51 1979.3 99.22 1985.98 109.37 1992.66 99.61 1999.33 155.5 2006.01 162.72 2012.69 185.43 2019.37 203.62 2026.04 88.99 2032.72 73.75 2039.4 63.21 2046.08 66.41 2052.75 72.8 2059.43 71.36 2066.11 59.47 2072.78 64.32 2079.46 65.56 2086.14 72.28 2092.82 75.32 2099.49 70.79 2106.17 72.55 2112.85 70.17 2119.53 73.26 2126.2 78.77 2132.88 91.94 2139.56 90.44 2146.24 99.66 2152.91 86.47 2159.59 91.56 2166.27 94.04 2172.94 86.35 2179.62 86.83 2179.62 126.36 2172.94 112.48 2166.27 119.16 2159.59 116.31 2152.91 108.64 2146.24 123.64 2139.56 116.37 2132.88 117.53 2126.2 101.97 2119.53 90.46 2112.85 87.16 2106.17 92.76 2099.49 90.27 2092.82 88.93 2086.14 91.43 2079.46 80.6 2072.78 79.17 2066.11 69.66 2059.43 90.23 2052.75 89.32 2046.08 81.88 2039.4 77.63 2032.72 89.96 2026.04 111.97 2019.37 225.59 2012.69 212.91 2006.01 188.27 1999.33 182.19 1992.66 121.03 1985.98 129.9 1979.3 125.15 1972.62 100.83 1965.95 129.78 1959.27 95.29 1952.59 92.97 1945.91 93.76 1939.24 113.12 1932.56 109.82 1925.88 124.45 1919.21 107.3 1912.53 118.38 1905.85 117.52 1899.17 148.48 1892.5 168.47 1885.82 183.29 1879.14 207.71 1872.46 236.66 1865.79 260.69 1859.11 219.14 1852.43 116.93 1845.75 109.06 1839.08 134.85 1832.4 127.76 1825.72 130.51 1819.04 111.78 1812.37 89.67 1805.69 107.68 1799.01 98.29 1792.34 111.65 1785.66 75.11 1778.98 87.25 1772.3 81.43 1765.63 88.1 1758.95 100.21 1752.27 78.1 1745.59 79.86 1738.92 88.25 1732.24 96.75 1725.56 87.81 1718.88 92.14 1712.21 105.42 1705.53 112.05 1698.85 237.27 1692.17 228.29 1685.5 194.84 1678.82 154.5 1672.14 144.67 1665.47 125.75 1658.79 130.95 1652.11 112.73 1645.43 143.14 1638.76 105.97 1632.08 103.14 1625.4 102.82 1618.72 100.68 1612.05 104.95 1605.37 105.27 1598.69 116.85 1592.01 123.6 1585.34 143.27 1578.66 155.63 1571.98 164.64 1565.3 184.83 1558.63 204.37 1551.95 230.41 1545.27 250.53 1538.6 205.58 1538.6 179.99"/>
        <polyline class="cls-5" points="1538.6 192.79 1545.27 237.75 1551.95 219.66 1558.63 191.19 1565.3 170.71 1571.98 151.29 1578.66 139.58 1585.34 129.48 1592.01 112.18 1598.69 106.33 1605.37 93.83 1612.05 94.36 1618.72 91.43 1625.4 91.7 1632.08 91.43 1638.76 95.42 1645.43 129.21 1652.11 102.61 1658.79 119.63 1665.47 115.38 1672.14 132.4 1678.82 144.37 1685.5 181.08 1692.17 216.46 1698.85 228.17 1705.53 101.81 1712.21 96.75 1718.88 83.72 1725.56 79.46 1732.24 88.24 1738.92 80.26 1745.59 73.35 1752.27 72.02 1758.95 89.84 1765.63 78.93 1772.3 73.88 1778.98 78.4 1785.66 68.56 1792.34 100.21 1799.01 87.71 1805.69 95.96 1812.37 80.53 1819.04 98.88 1825.72 118.04 1832.4 113.51 1839.08 122.03 1845.75 98.09 1852.43 103.94 1859.11 207.95 1865.79 250.78 1872.46 224.71 1879.14 194.12 1885.82 169.11 1892.5 152.89 1899.17 134.53 1905.85 105.8 1912.53 106.6 1919.21 95.69 1925.88 112.98 1932.56 100.48 1939.24 101.81 1945.91 84.52 1952.59 82.66 1959.27 86.11 1965.95 118.3 1972.62 91.17 1979.3 112.18 1985.98 119.63 1992.66 110.32 1999.33 168.85 2006.01 175.5 2012.69 199.17 2019.37 214.6 2026.04 100.48 2032.72 81.86 2039.4 70.42 2046.08 74.14 2052.75 81.06 2059.43 80.79 2066.11 64.57 2072.78 71.75 2079.46 73.08 2086.14 81.86 2092.82 82.12 2099.49 80.53 2106.17 82.66 2112.85 78.67 2119.53 81.86 2126.2 90.37 2132.88 104.74 2139.56 103.41 2146.24 111.65 2152.91 97.55 2159.59 103.94 2166.27 106.6 2172.94 99.42 2179.62 106.6"/>
        <rect class="cls-13" x="1538.6" y="294.36" width="160.26" height="8.16"/>
        <rect class="cls-9" x="1538.6" y="294.36" width="160.26" height="8.16"/>
        <rect x="1698.85" y="294.36" width="160.26" height="8.16"/>
        <rect class="cls-9" x="1698.85" y="294.36" width="160.26" height="8.16"/>
        <rect class="cls-13" x="1859.11" y="294.36" width="160.26" height="8.16"/>
        <rect class="cls-9" x="1859.11" y="294.36" width="160.26" height="8.16"/>
        <rect x="2019.37" y="294.36" width="160.26" height="8.16"/>
        <rect class="cls-9" x="2019.37" y="294.36" width="160.26" height="8.16"/>
        <rect class="cls-13" x="1538.6" y="294.36" width="160.26" height="8.16"/>
        <rect class="cls-9" x="1538.6" y="294.36" width="160.26" height="8.16"/>
        <rect x="1698.85" y="294.36" width="160.26" height="8.16"/>
        <rect class="cls-9" x="1698.85" y="294.36" width="160.26" height="8.16"/>
        <rect class="cls-13" x="1859.11" y="294.36" width="160.26" height="8.16"/>
        <rect class="cls-9" x="1859.11" y="294.36" width="160.26" height="8.16"/>
        <rect x="2019.37" y="294.36" width="160.26" height="8.16"/>
        <rect class="cls-9" x="2019.37" y="294.36" width="160.26" height="8.16"/>
      </g>
      <g class="cls-3">
        <polygon class="cls-17" points="2250.7 229.58 2257.38 218.49 2264.05 163.15 2270.73 159.97 2277.41 143.22 2284.09 134.95 2290.76 117.09 2297.44 116.89 2304.12 91.64 2310.8 122.06 2317.47 93.62 2324.15 126.98 2330.83 120.24 2337.5 93.9 2344.18 111.12 2350.86 145.67 2357.54 137.68 2364.21 109.89 2370.89 158.3 2377.57 168.37 2384.25 186.66 2390.92 186.88 2397.6 201.41 2404.28 228.13 2410.96 284.09 2417.63 284.09 2424.31 234.02 2430.99 209.88 2437.67 162.6 2444.34 136.11 2451.02 137.3 2457.7 123.6 2464.37 107.8 2471.05 101.38 2477.73 84.97 2484.41 135.36 2491.08 141.09 2497.76 165.99 2504.44 224.16 2511.12 161.42 2517.79 151.54 2524.47 137.6 2531.15 152.76 2537.83 135.21 2544.5 141.63 2551.18 154.44 2557.86 184.53 2564.54 158.18 2571.21 173.37 2577.89 189.89 2584.57 144.73 2591.24 167.12 2597.92 124.15 2604.6 108.82 2611.28 110.34 2617.95 119.34 2624.63 96.75 2631.31 110.62 2637.99 117.22 2644.66 87.53 2651.34 88.56 2658.02 149.35 2664.7 129.45 2671.37 124.82 2678.05 117.26 2684.73 163.03 2691.4 146.93 2698.08 178.15 2704.76 195.01 2711.44 202.46 2718.11 206.18 2724.79 244.54 2724.79 269.79 2718.11 247.68 2711.44 245.89 2704.76 234.66 2698.08 225.12 2691.4 192.57 2684.73 203.96 2678.05 163.96 2671.37 160.8 2664.7 161.67 2658.02 197.85 2651.34 124.49 2644.66 124.43 2637.99 161.81 2631.31 146.42 2624.63 142.69 2617.95 166.29 2611.28 154.39 2604.6 150.42 2597.92 172.47 2591.24 206.47 2584.57 190.37 2577.89 232.07 2571.21 216.71 2564.54 209.91 2557.86 234.14 2551.18 208.15 2544.5 194.58 2537.83 192.2 2531.15 213.13 2524.47 190.9 2517.79 208.85 2511.12 214.36 2504.44 262.68 2497.76 213.09 2491.08 187.42 2484.41 188.74 2477.73 136.88 2471.05 152.36 2464.37 162.43 2457.7 174.12 2451.02 192.31 2444.34 193.5 2437.67 218.69 2430.99 257.16 2424.31 271.52 2417.63 289.62 2410.96 289.62 2404.28 268.61 2397.6 248.05 2390.92 233.99 2384.25 224.32 2377.57 214.01 2370.89 206.49 2364.21 148.25 2357.54 175.43 2350.86 192.73 2344.18 156.91 2337.5 132.35 2330.83 164.28 2324.15 158.64 2317.47 131.53 2310.8 160.27 2304.12 126.92 2297.44 155.54 2290.76 145.45 2284.09 172.66 2277.41 189.68 2270.73 200.42 2264.05 214.84 2257.38 256.26 2250.7 262.75 2250.7 229.58"/>
        <polygon class="cls-17" points="2738.15 263.76 2744.82 222.35 2751.5 204.19 2758.18 195.1 2764.86 164.44 2771.53 151.07 2778.21 157.16 2784.89 170.22 2791.57 161.95 2798.24 156.68 2804.92 170.02 2811.6 165.86 2818.27 176.9 2824.95 174.45 2831.63 188.32 2838.31 155.31 2844.98 140.94 2851.66 136.7 2858.34 158.56 2865.02 201.34 2871.69 169.21 2878.37 180.44 2885.05 187.44 2891.73 214.22 2891.73 267.12 2885.05 237.82 2878.37 237.13 2871.69 220.87 2865.02 248.11 2858.34 215.03 2851.66 192.9 2844.98 199.66 2838.31 213.88 2831.63 242.44 2824.95 221.13 2818.27 226.37 2811.6 226.42 2804.92 217.86 2798.24 219.1 2791.57 214.94 2784.89 224.26 2778.21 217.53 2771.53 204.93 2764.86 217.94 2758.18 247.76 2751.5 257.36 2744.82 265.59 2738.15 290.15 2738.15 263.76"/>
        <polyline class="cls-8" points="2250.7 246.17 2257.38 237.37 2264.05 188.99 2270.73 180.2 2277.41 166.45 2284.09 153.81 2290.76 131.27 2297.44 136.21 2304.12 109.28 2310.8 141.16 2317.47 112.57 2324.15 142.81 2330.83 142.26 2337.5 113.12 2344.18 134.02 2350.86 169.2 2357.54 156.56 2364.21 129.07 2370.89 182.4 2377.57 191.19 2384.25 205.49 2390.92 210.43 2397.6 224.73 2404.28 248.37 2410.96 286.85 2417.63 286.85 2424.31 252.77 2430.99 233.52 2437.67 190.64 2444.34 164.8 2451.02 164.8 2457.7 148.86 2464.37 135.11 2471.05 126.87 2477.73 110.92 2484.41 162.05 2491.08 164.25 2497.76 189.54 2504.44 243.42 2511.12 187.89 2517.79 180.2 2524.47 164.25 2531.15 182.95 2537.83 163.7 2544.5 168.1 2551.18 181.3 2557.86 209.33 2564.54 184.04 2571.21 195.04 2577.89 210.98 2584.57 167.55 2591.24 186.79 2597.92 148.31 2604.6 129.62 2611.28 132.37 2617.95 142.81 2624.63 119.72 2631.31 128.52 2637.99 139.51 2644.66 105.98 2651.34 106.53 2658.02 173.6 2664.7 145.56 2671.37 142.81 2678.05 140.61 2684.73 183.49 2691.4 169.75 2698.08 201.64 2704.76 214.83 2711.44 224.18 2718.11 226.93 2724.79 257.16 2731.47 287.4 2738.15 276.96 2744.82 243.97 2751.5 230.78 2758.18 221.43 2764.86 191.19 2771.53 178 2778.21 187.34 2784.89 197.24 2791.57 188.44 2798.24 187.89 2804.92 193.94 2811.6 196.14 2818.27 201.64 2824.95 197.79 2831.63 215.38 2838.31 184.59 2844.98 170.3 2851.66 164.8 2858.34 186.79 2865.02 224.73 2871.69 195.04 2878.37 208.78 2885.05 212.63 2891.73 240.67"/>
        <polygon class="cls-16" points="2250.7 210.36 2257.38 216.78 2264.05 201.9 2270.73 193.33 2277.41 182.82 2284.09 154.64 2290.76 161.84 2297.44 149.48 2304.12 163.01 2310.8 134.75 2317.47 117.8 2324.15 149.81 2330.83 128.73 2337.5 136.13 2344.18 148.96 2350.86 154.06 2357.54 173.31 2364.21 168.03 2370.89 191.04 2377.57 193.09 2384.25 211.68 2390.92 223.98 2397.6 242.11 2404.28 256.45 2410.96 283 2417.63 285.86 2424.31 279.9 2430.99 283.46 2437.67 252.09 2444.34 224.55 2451.02 212.59 2457.7 172.62 2464.37 183.33 2471.05 189.63 2477.73 197.54 2484.41 210.43 2491.08 194.63 2497.76 209.74 2504.44 222.78 2511.12 218.97 2517.79 206.95 2524.47 203.63 2531.15 215.9 2537.83 223.82 2544.5 229.03 2551.18 219.23 2557.86 202.62 2564.54 180.28 2571.21 178.91 2577.89 204.67 2584.57 182.16 2591.24 175.78 2597.92 158.06 2604.6 142.36 2611.28 142.55 2617.95 123.83 2624.63 117.15 2631.31 137.2 2637.99 140.59 2644.66 125.05 2651.34 134.1 2658.02 121.72 2664.7 138.33 2671.37 152.45 2678.05 155.99 2684.73 177.49 2691.4 192.62 2698.08 192.52 2704.76 206.46 2711.44 241.94 2718.11 246.42 2724.79 258.55 2731.47 280.89 2738.15 290.15 2731.47 288.97 2724.79 277.22 2718.11 264.61 2711.44 265.79 2704.76 232 2698.08 220.1 2691.4 221.1 2684.73 204.89 2678.05 184.61 2671.37 182.1 2664.7 164.88 2658.02 152.9 2651.34 161.42 2644.66 156.18 2637.99 167.57 2631.31 169.86 2624.63 148.13 2617.95 155.2 2611.28 171.11 2604.6 169.65 2597.92 186.94 2591.24 206.6 2584.57 213.96 2577.89 232.7 2571.21 207.33 2564.54 216.94 2557.86 236.94 2551.18 251.12 2544.5 258.36 2537.83 249.83 2531.15 247.3 2524.47 239.23 2517.79 241.41 2511.12 253.03 2504.44 254.16 2497.76 245.76 2491.08 228.98 2484.41 244.53 2477.73 234.32 2471.05 226.29 2464.37 222.69 2457.7 209.22 2451.02 246.76 2444.34 252.94 2437.67 269.94 2430.99 288.05 2424.31 286.66 2417.63 289.5 2410.96 289.06 2404.28 277.12 2397.6 266.18 2390.92 249.11 2384.25 241.08 2377.57 220.08 2370.89 216.08 2364.21 199.51 2357.54 202.47 2350.86 185.44 2344.18 178.45 2337.5 162.14 2330.83 156.9 2324.15 184.2 2317.47 146.39 2310.8 166.27 2304.12 195.73 2297.44 183.43 2290.76 191.96 2284.09 187.61 2277.41 211.11 2270.73 225.33 2264.05 231.06 2257.38 245.87 2250.7 240.74 2250.7 210.36"/>
        <polygon class="cls-16" points="2751.5 268.29 2758.18 247.56 2764.86 225.54 2771.53 205.2 2778.21 195.78 2784.89 188.84 2791.57 181.17 2798.24 203.21 2804.92 187.26 2811.6 182.44 2818.27 204.46 2824.95 211.08 2831.63 219.48 2838.31 216.79 2844.98 198.65 2851.66 200.16 2858.34 223.12 2865.02 217.25 2871.69 204.09 2878.37 210.92 2885.05 207.29 2891.73 212.99 2891.73 251.86 2885.05 242.72 2878.37 241.28 2871.69 240.41 2865.02 246.5 2858.34 254.37 2851.66 234.45 2844.98 234.86 2838.31 244.21 2831.63 245.92 2824.95 241.12 2818.27 238.94 2811.6 218.63 2804.92 223.71 2798.24 238.55 2791.57 217.15 2784.89 224.88 2778.21 230.03 2771.53 239.31 2764.86 253.6 2758.18 270.61 2751.5 280.12 2751.5 268.29"/>
        <polyline class="cls-5" points="2250.7 225.55 2257.38 231.33 2264.05 216.48 2270.73 209.33 2277.41 196.96 2284.09 171.13 2290.76 176.9 2297.44 166.45 2304.12 179.37 2310.8 150.51 2317.47 132.09 2324.15 167 2330.83 142.81 2337.5 149.13 2344.18 163.7 2350.86 169.75 2357.54 187.89 2364.21 183.77 2370.89 203.56 2377.57 206.59 2384.25 226.38 2390.92 236.55 2397.6 254.14 2404.28 266.79 2410.96 286.03 2417.63 287.68 2424.31 283.28 2430.99 285.75 2437.67 261.01 2444.34 238.75 2451.02 229.68 2457.7 190.92 2464.37 203.01 2471.05 207.96 2477.73 215.93 2484.41 227.48 2491.08 211.81 2497.76 227.75 2504.44 238.47 2511.12 236 2517.79 224.18 2524.47 221.43 2531.15 231.6 2537.83 236.82 2544.5 243.7 2551.18 235.17 2557.86 219.78 2564.54 198.61 2571.21 193.12 2577.89 218.68 2584.57 198.06 2591.24 191.19 2597.92 172.5 2604.6 156.01 2611.28 156.83 2617.95 139.51 2624.63 132.64 2631.31 153.53 2637.99 154.08 2644.66 140.61 2651.34 147.76 2658.02 137.31 2664.7 151.61 2671.37 167.28 2678.05 170.3 2684.73 191.19 2691.4 206.86 2698.08 206.31 2704.76 219.23 2711.44 253.87 2718.11 255.52 2724.79 267.89 2731.47 284.93 2738.15 290.15 2744.82 288.78 2751.5 274.21 2758.18 259.09 2764.86 239.57 2771.53 222.25 2778.21 212.91 2784.89 206.86 2791.57 199.16 2798.24 220.88 2804.92 205.49 2811.6 200.54 2818.27 221.7 2824.95 226.1 2831.63 232.7 2838.31 230.5 2844.98 216.76 2851.66 217.31 2858.34 238.75 2865.02 231.88 2871.69 222.25 2878.37 226.1 2885.05 225 2891.73 232.42"/>
        <rect class="cls-13" x="2250.7" y="294.36" width="160.26" height="8.16"/>
        <rect class="cls-9" x="2250.7" y="294.36" width="160.26" height="8.16"/>
        <rect x="2410.96" y="294.36" width="160.26" height="8.16"/>
        <rect class="cls-9" x="2410.96" y="294.36" width="160.26" height="8.16"/>
        <rect class="cls-13" x="2571.21" y="294.36" width="160.26" height="8.16"/>
        <rect class="cls-9" x="2571.21" y="294.36" width="160.26" height="8.16"/>
        <rect x="2731.47" y="294.36" width="160.26" height="8.16"/>
        <rect class="cls-9" x="2731.47" y="294.36" width="160.26" height="8.16"/>
        <rect class="cls-13" x="2250.7" y="294.36" width="160.26" height="8.16"/>
        <rect class="cls-9" x="2250.7" y="294.36" width="160.26" height="8.16"/>
        <rect x="2410.96" y="294.36" width="160.26" height="8.16"/>
        <rect class="cls-9" x="2410.96" y="294.36" width="160.26" height="8.16"/>
        <rect class="cls-13" x="2571.21" y="294.36" width="160.26" height="8.16"/>
        <rect class="cls-9" x="2571.21" y="294.36" width="160.26" height="8.16"/>
        <rect x="2731.47" y="294.36" width="160.26" height="8.16"/>
        <rect class="cls-9" x="2731.47" y="294.36" width="160.26" height="8.16"/>
      </g>
      <g class="cls-18">
        <polygon class="cls-17" points="2962.8 245.49 2969.48 194.62 2976.16 164.02 2982.83 160.27 2989.51 127.54 2996.19 115.18 3002.87 127.95 3009.54 94.86 3016.22 112.22 3022.9 99.06 3029.58 101.44 3036.25 100.94 3042.93 108.67 3049.61 128.44 3056.29 147.69 3062.96 140.12 3069.64 144.81 3076.32 187.71 3082.99 213.04 3089.67 228.48 3096.35 225.33 3103.03 257.48 3109.7 278.59 3116.38 279.95 3123.06 290.15 3129.74 281.96 3136.41 267.78 3143.09 230.12 3149.77 177.18 3156.45 155.34 3163.12 146.05 3169.8 136.21 3176.48 129.71 3183.16 142.03 3189.83 148.81 3196.51 158.98 3203.19 152.45 3209.86 140.23 3216.54 164.53 3223.22 168.85 3229.9 126.79 3236.57 115.46 3243.25 144.27 3249.93 169.11 3256.61 158.8 3263.28 177.2 3269.96 171.37 3276.64 172.59 3283.32 237.96 3289.99 189.08 3296.67 153.55 3303.35 131.05 3310.03 129.95 3316.7 97.43 3323.38 96.38 3330.06 113.87 3336.73 94.57 3343.41 97.81 3350.09 115.65 3356.77 119.44 3363.44 102.15 3370.12 114.93 3376.8 126.96 3383.48 148.66 3390.15 149.11 3396.83 172.57 3403.51 198.59 3410.19 210.03 3416.86 241.08 3423.54 248.4 3430.22 269.53 3436.9 286.54 3443.57 288.09 3450.25 287.57 3456.93 276.19 3463.6 233.38 3470.28 187.6 3476.96 166.01 3483.64 135.98 3490.31 149.78 3496.99 136.79 3503.67 152.22 3510.35 154.05 3517.02 147.91 3523.7 141.36 3530.38 160.46 3537.06 169.86 3543.73 152.78 3550.41 146.65 3557.09 126.4 3563.77 137 3570.44 154.21 3577.12 192.54 3583.8 176.48 3590.47 181.01 3597.15 166.03 3603.83 175.87 3603.83 218.89 3597.15 200.37 3590.47 214.78 3583.8 210.55 3577.12 223.86 3570.44 192.09 3563.77 171.68 3557.09 163.73 3550.41 181.1 3543.73 189.92 3537.06 203.25 3530.38 193.57 3523.7 175.57 3517.02 186.54 3510.35 191.73 3503.67 190.48 3496.99 174.98 3490.31 185.7 3483.64 174.77 3476.96 202.46 3470.28 220.55 3463.6 258.78 3456.93 289.17 3450.25 290.15 3443.57 290.15 3436.9 290.15 3430.22 281.39 3423.54 265.93 3416.86 261.39 3410.19 236.78 3403.51 226.05 3396.83 197.45 3390.15 177.09 3383.48 174.45 3376.8 150.79 3370.12 142.72 3363.44 126.64 3356.77 145.94 3350.09 143.03 3343.41 122.73 3336.73 115.66 3330.06 135.54 3323.38 113.86 3316.7 122.6 3310.03 156.06 3303.35 162.68 3296.67 182.96 3289.99 221.65 3283.32 256.27 3276.64 201.03 3269.96 204.31 3263.28 209.3 3256.61 191.62 3249.93 206.06 3243.25 176.78 3236.57 149.92 3229.9 161.28 3223.22 204.26 3216.54 196.2 3209.86 177.73 3203.19 188.7 3196.51 194.54 3189.83 185.12 3183.16 176.96 3176.48 165.57 3169.8 171.96 3163.12 180.67 3156.45 192 3149.77 210.36 3143.09 258.44 3136.41 282.11 3129.74 289.06 3123.06 290.15 3116.38 289.01 3109.7 287.28 3103.03 275.4 3096.35 248.8 3089.67 249.25 3082.99 238.92 3076.32 213.23 3069.64 175.21 3062.96 165.98 3056.29 172.33 3049.61 156.53 3042.93 134.55 3036.25 126.82 3029.58 126.83 3022.9 124.07 3016.22 137.18 3009.54 112.29 3002.87 152.38 2996.19 137.32 2989.51 155.37 2982.83 190.68 2976.16 197.75 2969.48 223.84 2962.8 261.63 2962.8 245.49"/>
        <polyline class="cls-8" points="2962.8 253.56 2969.48 209.23 2976.16 180.88 2982.83 175.47 2989.51 141.45 2996.19 126.25 3002.87 140.17 3009.54 103.57 3016.22 124.7 3022.9 111.56 3029.58 114.14 3036.25 113.88 3042.93 121.61 3049.61 142.49 3056.29 160.01 3062.96 153.05 3069.64 160.01 3076.32 200.47 3082.99 225.98 3089.67 238.87 3096.35 237.06 3103.03 266.44 3109.7 282.94 3116.38 284.48 3123.06 290.15 3129.74 285.51 3136.41 274.95 3143.09 244.28 3149.77 193.77 3156.45 173.67 3163.12 163.36 3169.8 154.08 3176.48 147.64 3183.16 159.49 3189.83 166.97 3196.51 176.76 3203.19 170.58 3209.86 158.98 3216.54 180.37 3223.22 186.55 3229.9 144.03 3236.57 132.69 3243.25 160.52 3249.93 187.58 3256.61 175.21 3263.28 193.25 3269.96 187.84 3276.64 186.81 3283.32 247.11 3289.99 205.37 3296.67 168.26 3303.35 146.87 3310.03 143 3316.7 110.01 3323.38 105.12 3330.06 124.7 3336.73 105.12 3343.41 110.27 3350.09 129.34 3356.77 132.69 3363.44 114.4 3370.12 128.83 3376.8 138.88 3383.48 161.56 3390.15 163.1 3396.83 185.01 3403.51 212.32 3410.19 223.41 3416.86 251.24 3423.54 257.16 3430.22 275.46 3436.9 288.35 3443.57 289.12 3450.25 288.86 3456.93 282.68 3463.6 246.08 3470.28 204.08 3476.96 184.23 3483.64 155.37 3490.31 167.74 3496.99 155.89 3503.67 171.35 3510.35 172.89 3517.02 167.23 3523.7 158.46 3530.38 177.02 3537.06 186.55 3543.73 171.35 3550.41 163.87 3557.09 145.06 3563.77 154.34 3570.44 173.15 3577.12 208.2 3583.8 193.51 3590.47 197.89 3597.15 183.2 3603.83 197.38"/>
        <polygon class="cls-16" points="2962.8 260.78 2969.48 238.4 2976.16 219.54 2982.83 203.28 2989.51 201.07 2996.19 188.28 3002.87 163.76 3009.54 142.71 3016.22 130.35 3022.9 159 3029.58 139.97 3036.25 143.58 3042.93 138.94 3049.61 154.46 3056.29 173.44 3062.96 153.08 3069.64 189.43 3076.32 176.06 3082.99 198.51 3089.67 230.89 3096.35 250.35 3103.03 274.64 3109.7 285.36 3116.38 285.18 3116.38 289.27 3109.7 290.15 3103.03 283.31 3096.35 267.7 3089.67 253.64 3082.99 226.44 3076.32 206.33 3069.64 214.24 3062.96 185.14 3056.29 202.03 3049.61 180.04 3042.93 166.83 3036.25 173.36 3029.58 170.58 3022.9 190.4 3016.22 163.18 3009.54 173.7 3002.87 193.62 2996.19 217.52 2989.51 231.33 2982.83 233.9 2976.16 246.9 2969.48 263.16 2962.8 273.24 2962.8 260.78"/>
        <polygon class="cls-16" points="3129.74 267.09 3136.41 248.74 3143.09 229.19 3149.77 197.39 3156.45 158.9 3163.12 148.46 3169.8 124.29 3176.48 106.81 3183.16 122.88 3189.83 112.95 3196.51 126.59 3203.19 120.97 3209.86 103.57 3216.54 178.89 3223.22 144.86 3229.9 105.05 3236.57 115.1 3243.25 111.81 3249.93 149.44 3256.61 155.89 3263.28 145.06 3269.96 151.46 3276.64 161.79 3283.32 248.82 3289.99 258.29 3296.67 209.11 3303.35 186.44 3310.03 180.45 3316.7 145.1 3323.38 136.25 3330.06 142.9 3336.73 137 3343.41 137.2 3350.09 130.04 3356.77 154.44 3363.44 135.71 3370.12 161.65 3376.8 140.5 3383.48 140.23 3390.15 195.21 3396.83 203.02 3403.51 208.07 3410.19 235.95 3416.86 263.33 3423.54 271.72 3430.22 281.36 3436.9 289.62 3443.57 286.43 3450.25 266.84 3456.93 253.28 3463.6 233.97 3470.28 221.71 3476.96 185.26 3483.64 148.83 3490.31 130.62 3496.99 103.84 3503.67 139.85 3510.35 123.91 3517.02 127.49 3523.7 116.95 3530.38 129.07 3537.06 124.5 3543.73 132 3550.41 114.05 3557.09 125.41 3563.77 115.33 3570.44 138.04 3577.12 172.5 3583.8 190.81 3590.47 182.08 3597.15 188.34 3603.83 206.54 3603.83 246.07 3597.15 219.58 3590.47 215.73 3583.8 220.84 3577.12 206.16 3570.44 173.05 3563.77 149.47 3557.09 161.74 3550.41 147.56 3543.73 168.98 3537.06 162.64 3530.38 164.99 3523.7 149.45 3517.02 163.92 3510.35 158.45 3503.67 176.03 3496.99 138.62 3490.31 167.7 3483.64 182.47 3476.96 218.41 3470.28 251.65 3463.6 263.87 3456.93 275.42 3450.25 282.07 3443.57 290.15 3436.9 290.15 3430.22 287.77 3423.54 281.44 3416.86 276.01 3410.19 254.44 3403.51 233.9 3396.83 226.72 3390.15 220.69 3383.48 171.93 3376.8 169.52 3370.12 189.88 3363.44 166.34 3356.77 178.47 3350.09 160.83 3343.41 166.44 3336.73 166.11 3330.06 173.51 3323.38 164.73 3316.7 177.7 3310.03 208.85 3303.35 219.36 3296.67 239.25 3289.99 274.12 3283.32 264.98 3276.64 195.06 3269.96 187.83 3263.28 180.39 3256.61 191.38 3249.93 187.19 3243.25 146.61 3236.57 148.11 3229.9 139.53 3223.22 178.46 3216.54 212 3209.86 139.42 3203.19 152.35 3196.51 165.35 3189.83 145.47 3183.16 158.41 3176.48 139.91 3169.8 160.73 3163.12 184.44 3156.45 195.29 3149.77 229.16 3143.09 259.07 3136.41 272.5 3129.74 283.95 3129.74 267.09"/>
        <polyline class="cls-5" points="2962.8 267.01 2969.48 250.78 2976.16 233.22 2982.83 218.59 2989.51 216.2 2996.19 202.9 3002.87 178.69 3009.54 158.21 3016.22 146.77 3022.9 174.7 3029.58 155.28 3036.25 158.47 3042.93 152.89 3049.61 167.25 3056.29 187.73 3062.96 169.11 3069.64 201.83 3076.32 191.19 3082.99 212.47 3089.67 242.27 3096.35 259.03 3103.03 278.98 3109.7 287.76 3116.38 287.22 3123.06 288.55 3129.74 275.52 3136.41 260.62 3143.09 244.13 3149.77 213.27 3156.45 177.09 3163.12 166.45 3169.8 142.51 3176.48 123.36 3183.16 140.65 3189.83 129.21 3196.51 145.97 3203.19 136.66 3209.86 121.49 3216.54 195.45 3223.22 161.66 3229.9 122.29 3236.57 131.6 3243.25 129.21 3249.93 168.31 3256.61 173.63 3263.28 162.73 3269.96 169.64 3276.64 178.42 3283.32 256.9 3289.99 266.21 3296.67 224.18 3303.35 202.9 3310.03 194.65 3316.7 161.4 3323.38 150.49 3330.06 158.21 3336.73 151.55 3343.41 151.82 3350.09 145.44 3356.77 166.45 3363.44 151.02 3370.12 175.76 3376.8 155.01 3383.48 156.08 3390.15 207.95 3396.83 214.87 3403.51 220.99 3410.19 245.19 3416.86 269.67 3423.54 276.58 3430.22 284.56 3436.9 289.88 3443.57 288.29 3450.25 274.46 3456.93 264.35 3463.6 248.92 3470.28 236.68 3476.96 201.83 3483.64 165.65 3490.31 149.16 3496.99 121.23 3503.67 157.94 3510.35 141.18 3517.02 145.7 3523.7 133.2 3530.38 147.03 3537.06 143.57 3543.73 150.49 3550.41 130.81 3557.09 143.57 3563.77 132.4 3570.44 155.55 3577.12 189.33 3583.8 205.82 3590.47 198.91 3597.15 203.96 3603.83 226.31"/>
        <rect class="cls-13" x="2962.8" y="294.36" width="160.26" height="8.16"/>
        <rect class="cls-9" x="2962.8" y="294.36" width="160.26" height="8.16"/>
        <rect x="3123.06" y="294.36" width="160.26" height="8.16"/>
        <rect class="cls-9" x="3123.06" y="294.36" width="160.26" height="8.16"/>
        <rect class="cls-13" x="3283.32" y="294.36" width="160.26" height="8.16"/>
        <rect class="cls-9" x="3283.32" y="294.36" width="160.26" height="8.16"/>
        <rect x="3443.57" y="294.36" width="160.26" height="8.16"/>
        <rect class="cls-9" x="3443.57" y="294.36" width="160.26" height="8.16"/>
        <rect class="cls-13" x="2962.8" y="294.36" width="160.26" height="8.16"/>
        <rect class="cls-9" x="2962.8" y="294.36" width="160.26" height="8.16"/>
        <rect x="3123.06" y="294.36" width="160.26" height="8.16"/>
        <rect class="cls-9" x="3123.06" y="294.36" width="160.26" height="8.16"/>
        <rect class="cls-13" x="3283.32" y="294.36" width="160.26" height="8.16"/>
        <rect class="cls-9" x="3283.32" y="294.36" width="160.26" height="8.16"/>
        <rect x="3443.57" y="294.36" width="160.26" height="8.16"/>
        <rect class="cls-9" x="3443.57" y="294.36" width="160.26" height="8.16"/>
      </g>
      <g class="cls-1">
        <polygon class="cls-17" points="3674.91 256.88 3681.58 203.53 3688.26 174.88 3694.94 136.85 3701.62 112.36 3708.29 114.32 3714.97 100.06 3721.65 119.63 3728.32 105.75 3735 102.88 3741.68 101.23 3748.36 97.88 3755.03 111.15 3761.71 98.57 3768.39 125.54 3775.07 108.2 3781.74 140.56 3788.42 153.38 3795.1 150.68 3801.78 184.26 3808.45 191.43 3815.13 227.38 3821.81 250.56 3828.49 270.67 3835.16 287.49 3841.84 282.7 3848.52 249.16 3855.19 215.74 3861.87 179.58 3868.55 170.93 3875.23 136.37 3881.9 111.98 3888.58 125.68 3895.26 139.51 3901.94 141.14 3908.61 136.49 3915.29 114.73 3921.97 138.74 3928.65 163.61 3935.32 149.47 3942 135.46 3948.68 115.12 3955.36 113.73 3962.03 146.14 3968.71 148.73 3975.39 135.49 3982.06 149.11 3988.74 157.15 3995.42 224.01 4002.1 190.51 4008.77 155.64 4015.45 142.01 4022.13 116.55 4028.81 100.57 4035.48 98.48 4042.16 106.97 4048.84 98.7 4055.52 85.51 4062.19 105.17 4068.87 92 4075.55 113.21 4082.23 117.94 4088.9 112.99 4095.58 128.97 4102.26 126.42 4108.93 158.52 4115.61 154.01 4122.29 195.55 4128.97 196.67 4135.64 224.61 4142.32 252.27 4149 272.22 4155.68 281.41 4162.35 278.85 4169.03 267.27 4175.71 237.32 4182.39 192.28 4189.06 163.44 4195.74 155.01 4202.42 143.98 4209.1 165.08 4215.77 144.41 4222.45 125.15 4229.13 122.29 4235.8 116.49 4242.48 136.09 4249.16 147.46 4255.84 128.78 4262.51 140.08 4269.19 139.4 4275.87 133.95 4282.55 135.62 4289.22 144 4295.9 180.23 4302.58 165.94 4309.26 174.69 4315.93 164.11 4315.93 208.69 4309.26 208.23 4302.58 201.55 4295.9 211.73 4289.22 179.33 4282.55 169.08 4275.87 167.56 4269.19 171.16 4262.51 175.26 4255.84 163.16 4249.16 182.79 4242.48 166.49 4235.8 147.78 4229.13 154.21 4222.45 158.8 4215.77 179.98 4209.1 197.62 4202.42 175.63 4195.74 190.66 4189.06 199.79 4182.39 228.41 4175.71 263.18 4169.03 282.17 4162.35 286.02 4155.68 286.65 4149 284.14 4142.32 271.11 4135.64 250.34 4128.97 222.42 4122.29 220.89 4115.61 182.62 4108.93 186.62 4102.26 155.41 4095.58 156.58 4088.9 137.98 4082.23 141.54 4075.55 136.69 4068.87 113.75 4062.19 129.84 4055.52 104.27 4048.84 126.2 4042.16 133.36 4035.48 122.69 4028.81 126.99 4022.13 147.19 4015.45 171.74 4008.77 184.71 4002.1 216.88 3995.42 245.1 3988.74 188.52 3982.06 181.67 3975.39 168.68 3968.71 182.05 3962.03 179.85 3955.36 147.35 3948.68 150.21 3942 167.12 3935.32 183.97 3928.65 193.76 3921.97 172.35 3915.29 143.69 3908.61 170.87 3901.94 176.34 3895.26 174.24 3888.58 156.68 3881.9 144.31 3875.23 172.06 3868.55 202.4 3861.87 213.98 3855.19 247.51 3848.52 270.49 3841.84 290.15 3835.16 290.15 3828.49 284.09 3821.81 269.09 3815.13 248.65 3808.45 218.62 3801.78 210.89 3795.1 177.43 3788.42 181.12 3781.74 167.33 3775.07 132.13 3768.39 153.63 3761.71 123.14 3755.03 132.37 3748.36 119.57 3741.68 126.33 3735 125.21 3728.32 130.32 3721.65 147.3 3714.97 126.97 3708.29 140.91 3701.62 142.33 3694.94 165.73 3688.26 201.12 3681.58 230.46 3674.91 270.21 3674.91 256.88"/>
        <polyline class="cls-8" points="3674.91 263.55 3681.58 217 3688.26 188 3694.94 151.29 3701.62 127.35 3708.29 127.61 3714.97 113.51 3721.65 133.47 3728.32 118.04 3735 114.05 3741.68 113.78 3748.36 108.73 3755.03 121.76 3761.71 110.85 3768.39 139.58 3775.07 120.16 3781.74 153.95 3788.42 167.25 3795.1 164.06 3801.78 197.58 3808.45 205.02 3815.13 238.01 3821.81 259.82 3828.49 277.38 3835.16 288.82 3841.84 286.43 3848.52 259.82 3855.19 231.63 3861.87 196.78 3868.55 186.67 3875.23 154.22 3881.9 128.15 3888.58 141.18 3895.26 156.88 3901.94 158.74 3908.61 153.68 3915.29 129.21 3921.97 155.55 3928.65 178.69 3935.32 166.72 3942 151.29 3948.68 132.67 3955.36 130.54 3962.03 162.99 3968.71 165.39 3975.39 152.09 3982.06 165.39 3988.74 172.84 3995.42 234.55 4002.1 203.69 4008.77 170.18 4015.45 156.88 4022.13 131.87 4028.81 113.78 4035.48 110.59 4042.16 120.16 4048.84 112.45 4055.52 94.89 4062.19 117.5 4068.87 102.87 4075.55 124.95 4082.23 129.74 4088.9 125.49 4095.58 142.78 4102.26 140.91 4108.93 172.57 4115.61 168.31 4122.29 208.22 4128.97 209.55 4135.64 237.48 4142.32 261.69 4149 278.18 4155.68 284.03 4162.35 282.44 4169.03 274.72 4175.71 250.25 4182.39 210.35 4189.06 181.62 4195.74 172.84 4202.42 159.8 4209.1 181.35 4215.77 162.2 4222.45 141.98 4229.13 138.25 4235.8 132.14 4242.48 151.29 4249.16 165.12 4255.84 145.97 4262.51 157.67 4269.19 155.28 4275.87 150.76 4282.55 152.35 4289.22 161.66 4295.9 195.98 4302.58 183.74 4309.26 191.46 4315.93 186.4"/>
        <polygon class="cls-16" points="3674.91 246.81 3681.58 237.96 3688.26 205.16 3694.94 190.55 3701.62 152.47 3708.29 161.7 3714.97 148.63 3721.65 132.25 3728.32 136.49 3735 132.34 3741.68 132.24 3748.36 114.93 3755.03 140.59 3761.71 106.94 3768.39 131.85 3775.07 142.89 3781.74 158.73 3788.42 155.46 3795.1 179.68 3801.78 178.74 3808.45 205.13 3815.13 228.73 3821.81 246.4 3828.49 261.89 3835.16 284.91 3841.84 273.95 3848.52 265.56 3855.19 215.3 3861.87 186.29 3868.55 167.11 3875.23 120.58 3881.9 120.06 3888.58 123.51 3895.26 138.17 3901.94 124.67 3908.61 156.1 3915.29 169.1 3921.97 147.33 3928.65 178.34 3935.32 144.6 3942 129.31 3948.68 157.43 3955.36 140.45 3962.03 149.26 3968.71 164.94 3975.39 186.52 3982.06 156.03 3988.74 177.05 3995.42 246.48 4002.1 217.81 4008.77 187.3 4015.45 167.27 4022.13 164.38 4028.81 140.26 4035.48 139.04 4042.16 135.45 4048.84 122.82 4055.52 109.21 4062.19 118.18 4068.87 111.04 4075.55 134.6 4082.23 123.61 4088.9 131.96 4095.58 134.74 4102.26 158.62 4108.93 161.91 4115.61 170.52 4122.29 193.02 4128.97 209.04 4135.64 228.82 4142.32 248.05 4149 264.61 4155.68 282.62 4162.35 276.56 4169.03 267.04 4175.71 227.99 4182.39 190 4189.06 180.15 4195.74 144.11 4202.42 129.41 4209.1 124.57 4215.77 125.83 4222.45 133.96 4229.13 146.77 4235.8 145.4 4242.48 142.13 4249.16 191.23 4255.84 175.04 4262.51 144.28 4269.19 133.44 4275.87 153.92 4282.55 163.93 4289.22 162.71 4295.9 195.65 4302.58 167.71 4309.26 190.27 4315.93 180.75 4315.93 223.98 4309.26 220.84 4302.58 198.18 4295.9 227.7 4289.22 193.08 4282.55 200.36 4275.87 185.9 4269.19 165.42 4262.51 179.58 4255.84 203.62 4249.16 222.02 4242.48 178.53 4235.8 179.53 4229.13 178.69 4222.45 168.61 4215.77 158.66 4209.1 156.19 4202.42 164.13 4195.74 179.22 4189.06 212.88 4182.39 225.37 4175.71 258.67 4169.03 279.74 4162.35 287.24 4155.68 287.05 4149 278.44 4142.32 269.47 4135.64 249.33 4128.97 233.99 4122.29 217.03 4115.61 196.43 4108.93 188.55 4102.26 184.39 4095.58 163.05 4088.9 162.1 4082.23 146.52 4075.55 163.72 4068.87 132.48 4062.19 147.69 4055.52 133.25 4048.84 147.84 4042.16 165 4035.48 169.92 4028.81 170.83 4022.13 195.66 4015.45 197.55 4008.77 215.3 4002.1 241.19 3995.42 260.93 3988.74 209.59 3982.06 190.71 3975.39 217.68 3968.71 199.35 3962.03 179.92 3955.36 173.84 3948.68 190.37 3942 160.5 3935.32 180.32 3928.65 213.09 3921.97 179.72 3915.29 201.58 3908.61 189.05 3901.94 158.22 3895.26 172.38 3888.58 153 3881.9 151.13 3875.23 155.93 3868.55 199.31 3861.87 218.97 3855.19 244.23 3848.52 281.22 3841.84 286.13 3835.16 289.01 3828.49 274.79 3821.81 263.14 3815.13 248.35 3808.45 226.73 3801.78 205.77 3795.1 205.89 3788.42 180.64 3781.74 189.6 3775.07 168.74 3768.39 158.49 3761.71 130.2 3755.03 167.31 3748.36 142.96 3741.68 158.63 3735 159.6 3728.32 166.62 3721.65 164.47 3714.97 178.42 3708.29 190.36 3701.62 187.89 3694.94 216.84 3688.26 231.49 3681.58 257.74 3674.91 260.07 3674.91 246.81"/>
        <polyline class="cls-5" points="3674.91 253.44 3681.58 247.85 3688.26 218.33 3694.94 203.69 3701.62 170.18 3708.29 176.03 3714.97 163.53 3721.65 148.36 3728.32 151.55 3735 145.97 3741.68 145.44 3748.36 128.94 3755.03 153.95 3761.71 118.57 3768.39 145.17 3775.07 155.81 3781.74 174.17 3788.42 168.05 3795.1 192.79 3801.78 192.26 3808.45 215.93 3815.13 238.54 3821.81 254.77 3828.49 268.34 3835.16 286.96 3841.84 280.04 3848.52 273.39 3855.19 229.76 3861.87 202.63 3868.55 183.21 3875.23 138.25 3881.9 135.59 3888.58 138.25 3895.26 155.28 3901.94 141.45 3908.61 172.57 3915.29 185.34 3921.97 163.53 3928.65 195.71 3935.32 162.46 3942 144.9 3948.68 173.9 3955.36 157.14 3962.03 164.59 3968.71 182.15 3975.39 202.1 3982.06 173.37 3988.74 193.32 3995.42 253.71 4002.1 229.5 4008.77 201.3 4015.45 182.41 4022.13 180.02 4028.81 155.55 4035.48 154.48 4042.16 150.22 4048.84 135.33 4055.52 121.23 4062.19 132.93 4068.87 121.76 4075.55 149.16 4082.23 135.06 4088.9 147.03 4095.58 148.89 4102.26 171.51 4108.93 175.23 4115.61 183.48 4122.29 205.02 4128.97 221.52 4135.64 239.08 4142.32 258.76 4149 271.53 4155.68 284.83 4162.35 281.9 4169.03 273.39 4175.71 243.33 4182.39 207.69 4189.06 196.51 4195.74 161.66 4202.42 146.77 4209.1 140.38 4215.77 142.24 4222.45 151.29 4229.13 162.73 4235.8 162.46 4242.48 160.33 4249.16 206.62 4255.84 189.33 4262.51 161.93 4269.19 149.43 4275.87 169.91 4282.55 182.15 4289.22 177.89 4295.9 211.68 4302.58 182.95 4309.26 205.56 4315.93 202.36"/>
        <rect class="cls-13" x="3674.91" y="294.36" width="160.26" height="8.16"/>
        <rect class="cls-9" x="3674.91" y="294.36" width="160.26" height="8.16"/>
        <rect x="3835.16" y="294.36" width="160.26" height="8.16"/>
        <rect class="cls-9" x="3835.16" y="294.36" width="160.26" height="8.16"/>
        <rect class="cls-13" x="3995.42" y="294.36" width="160.26" height="8.16"/>
        <rect class="cls-9" x="3995.42" y="294.36" width="160.26" height="8.16"/>
        <rect x="4155.68" y="294.36" width="160.26" height="8.16"/>
        <rect class="cls-9" x="4155.68" y="294.36" width="160.26" height="8.16"/>
        <rect class="cls-13" x="3674.91" y="294.36" width="160.26" height="8.16"/>
        <rect class="cls-9" x="3674.91" y="294.36" width="160.26" height="8.16"/>
        <rect x="3835.16" y="294.36" width="160.26" height="8.16"/>
        <rect class="cls-9" x="3835.16" y="294.36" width="160.26" height="8.16"/>
        <rect class="cls-13" x="3995.42" y="294.36" width="160.26" height="8.16"/>
        <rect class="cls-9" x="3995.42" y="294.36" width="160.26" height="8.16"/>
        <rect x="4155.68" y="294.36" width="160.26" height="8.16"/>
        <rect class="cls-9" x="4155.68" y="294.36" width="160.26" height="8.16"/>
      </g>
      <g class="cls-2">
        <text class="cls-11" transform="translate(421.01 23.53)"><tspan x="0" y="0">CS</tspan></text>
      </g>
      <g class="cls-12">
        <text class="cls-11" transform="translate(1102.53 23.53)"><tspan x="0" y="0">SIPL21</tspan></text>
      </g>
      <g class="cls-24">
        <text class="cls-11" transform="translate(1814.63 23.53)"><tspan x="0" y="0">SIPL22</tspan></text>
      </g>
      <g class="cls-22">
        <text class="cls-11" transform="translate(2525.62 23.53)"><tspan x="0" y="0">SIPS21</tspan></text>
      </g>
      <g class="cls-21">
        <text class="cls-11" transform="translate(3232.17 23.53)"><tspan x="0" y="0">SIPS210</tspan></text>
      </g>
      <g class="cls-4">
        <text class="cls-11" transform="translate(3949.83 23.53)"><tspan x="0" y="0">SIPS28</tspan></text>
      </g>
      <g class="cls-14">
        <text class="cls-11" transform="translate(4354.83 158.12) rotate(90)"><tspan x="0" y="0">M</tspan></text>
      </g>
      <line class="cls-6" x1="82.34" y1="302.52" x2="787.47" y2="302.52"/>
      <line class="cls-6" x1="114.39" y1="308.1" x2="114.39" y2="302.52"/>
      <line class="cls-6" x1="274.65" y1="308.1" x2="274.65" y2="302.52"/>
      <line class="cls-6" x1="434.9" y1="308.1" x2="434.9" y2="302.52"/>
      <line class="cls-6" x1="595.16" y1="308.1" x2="595.16" y2="302.52"/>
      <line class="cls-6" x1="755.42" y1="308.1" x2="755.42" y2="302.52"/>
      <text class="cls-10" transform="translate(107.72 324.14)"><tspan x="0" y="0" xml:space="preserve"> 0</tspan></text>
      <text class="cls-10" transform="translate(265.75 324.14)"><tspan x="0" y="0">12</tspan></text>
      <text class="cls-10" transform="translate(426.01 324.14)"><tspan x="0" y="0">24</tspan></text>
      <text class="cls-10" transform="translate(586.26 324.14)"><tspan x="0" y="0">36</tspan></text>
      <text class="cls-10" transform="translate(746.52 324.14)"><tspan x="0" y="0">48</tspan></text>
      <line class="cls-6" x1="794.44" y1="302.52" x2="1499.57" y2="302.52"/>
      <line class="cls-6" x1="826.49" y1="308.1" x2="826.49" y2="302.52"/>
      <line class="cls-6" x1="986.75" y1="308.1" x2="986.75" y2="302.52"/>
      <line class="cls-6" x1="1147.01" y1="308.1" x2="1147.01" y2="302.52"/>
      <line class="cls-6" x1="1307.26" y1="308.1" x2="1307.26" y2="302.52"/>
      <line class="cls-6" x1="1467.52" y1="308.1" x2="1467.52" y2="302.52"/>
      <text class="cls-10" transform="translate(819.82 324.14)"><tspan x="0" y="0" xml:space="preserve"> 0</tspan></text>
      <text class="cls-10" transform="translate(977.85 324.14)"><tspan x="0" y="0">12</tspan></text>
      <text class="cls-10" transform="translate(1138.11 324.14)"><tspan x="0" y="0">24</tspan></text>
      <text class="cls-10" transform="translate(1298.37 324.14)"><tspan x="0" y="0">36</tspan></text>
      <text class="cls-10" transform="translate(1458.62 324.14)"><tspan x="0" y="0">48</tspan></text>
      <line class="cls-6" x1="1506.54" y1="302.52" x2="2211.67" y2="302.52"/>
      <line class="cls-6" x1="1538.6" y1="308.1" x2="1538.6" y2="302.52"/>
      <line class="cls-6" x1="1698.85" y1="308.1" x2="1698.85" y2="302.52"/>
      <line class="cls-6" x1="1859.11" y1="308.1" x2="1859.11" y2="302.52"/>
      <line class="cls-6" x1="2019.37" y1="308.1" x2="2019.37" y2="302.52"/>
      <line class="cls-6" x1="2179.62" y1="308.1" x2="2179.62" y2="302.52"/>
      <text class="cls-10" transform="translate(1531.92 324.14)"><tspan x="0" y="0" xml:space="preserve"> 0</tspan></text>
      <text class="cls-10" transform="translate(1689.96 324.14)"><tspan x="0" y="0">12</tspan></text>
      <text class="cls-10" transform="translate(1850.21 324.14)"><tspan x="0" y="0">24</tspan></text>
      <text class="cls-10" transform="translate(2010.47 324.14)"><tspan x="0" y="0">36</tspan></text>
      <text class="cls-10" transform="translate(2170.73 324.14)"><tspan x="0" y="0">48</tspan></text>
      <line class="cls-6" x1="2218.65" y1="302.52" x2="2923.78" y2="302.52"/>
      <line class="cls-6" x1="2250.7" y1="308.1" x2="2250.7" y2="302.52"/>
      <line class="cls-6" x1="2410.96" y1="308.1" x2="2410.96" y2="302.52"/>
      <line class="cls-6" x1="2571.21" y1="308.1" x2="2571.21" y2="302.52"/>
      <line class="cls-6" x1="2731.47" y1="308.1" x2="2731.47" y2="302.52"/>
      <line class="cls-6" x1="2891.73" y1="308.1" x2="2891.73" y2="302.52"/>
      <text class="cls-10" transform="translate(2244.03 324.14)"><tspan x="0" y="0" xml:space="preserve"> 0</tspan></text>
      <text class="cls-10" transform="translate(2402.06 324.14)"><tspan x="0" y="0">12</tspan></text>
      <text class="cls-10" transform="translate(2562.32 324.14)"><tspan x="0" y="0">24</tspan></text>
      <text class="cls-10" transform="translate(2722.57 324.14)"><tspan x="0" y="0">36</tspan></text>
      <text class="cls-10" transform="translate(2882.83 324.14)"><tspan x="0" y="0">48</tspan></text>
      <line class="cls-6" x1="2930.75" y1="302.52" x2="3635.88" y2="302.52"/>
      <line class="cls-6" x1="2962.8" y1="308.1" x2="2962.8" y2="302.52"/>
      <line class="cls-6" x1="3123.06" y1="308.1" x2="3123.06" y2="302.52"/>
      <line class="cls-6" x1="3283.32" y1="308.1" x2="3283.32" y2="302.52"/>
      <line class="cls-6" x1="3443.57" y1="308.1" x2="3443.57" y2="302.52"/>
      <line class="cls-6" x1="3603.83" y1="308.1" x2="3603.83" y2="302.52"/>
      <text class="cls-10" transform="translate(2956.13 324.14)"><tspan x="0" y="0" xml:space="preserve"> 0</tspan></text>
      <text class="cls-10" transform="translate(3114.16 324.14)"><tspan x="0" y="0">12</tspan></text>
      <text class="cls-10" transform="translate(3274.42 324.14)"><tspan x="0" y="0">24</tspan></text>
      <text class="cls-10" transform="translate(3434.68 324.14)"><tspan x="0" y="0">36</tspan></text>
      <text class="cls-10" transform="translate(3594.93 324.14)"><tspan x="0" y="0">48</tspan></text>
      <line class="cls-6" x1="3642.85" y1="302.52" x2="4347.98" y2="302.52"/>
      <line class="cls-6" x1="3674.91" y1="308.1" x2="3674.91" y2="302.52"/>
      <line class="cls-6" x1="3835.16" y1="308.1" x2="3835.16" y2="302.52"/>
      <line class="cls-6" x1="3995.42" y1="308.1" x2="3995.42" y2="302.52"/>
      <line class="cls-6" x1="4155.68" y1="308.1" x2="4155.68" y2="302.52"/>
      <line class="cls-6" x1="4315.93" y1="308.1" x2="4315.93" y2="302.52"/>
      <text class="cls-10" transform="translate(3668.23 324.14)"><tspan x="0" y="0" xml:space="preserve"> 0</tspan></text>
      <text class="cls-10" transform="translate(3826.27 324.14)"><tspan x="0" y="0">12</tspan></text>
      <text class="cls-10" transform="translate(3986.52 324.14)"><tspan x="0" y="0">24</tspan></text>
      <text class="cls-10" transform="translate(4146.78 324.14)"><tspan x="0" y="0">36</tspan></text>
      <text class="cls-10" transform="translate(4307.04 324.14)"><tspan x="0" y="0">48</tspan></text>
      <line class="cls-6" x1="82.34" y1="302.52" x2="82.34" y2="30.38"/>
      <text class="cls-10" transform="translate(51.89 295.9)"><tspan x="0" y="0">0%</tspan></text>
      <text class="cls-10" transform="translate(43 234.05)"><tspan x="0" y="0">25%</tspan></text>
      <text class="cls-10" transform="translate(43 172.2)"><tspan x="0" y="0">50%</tspan></text>
      <text class="cls-10" transform="translate(43 110.35)"><tspan x="0" y="0">75%</tspan></text>
      <text class="cls-10" transform="translate(34.1 48.5)"><tspan x="0" y="0">100%</tspan></text>
      <line class="cls-6" x1="76.76" y1="290.15" x2="82.34" y2="290.15"/>
      <line class="cls-6" x1="76.76" y1="228.3" x2="82.34" y2="228.3"/>
      <line class="cls-6" x1="76.76" y1="166.45" x2="82.34" y2="166.45"/>
      <line class="cls-6" x1="76.76" y1="104.6" x2="82.34" y2="104.6"/>
      <line class="cls-6" x1="76.76" y1="42.75" x2="82.34" y2="42.75"/>
      <text class="cls-11" transform="translate(2177.94 348.63)"><tspan x="0" y="0">Time (h)</tspan></text>
      <text class="cls-11" transform="translate(21.33 240.92) rotate(-90)"><tspan x="0" y="0">% Flies Sleeping</tspan></text>
      <rect class="cls-17" x="4392.31" y="149.17" width="25.11" height="17.28"/>
      <line class="cls-8" x1="4394.83" y1="157.81" x2="4414.91" y2="157.81"/>
      <rect class="cls-16" x="4392.31" y="166.45" width="25.11" height="17.28"/>
      <line class="cls-5" x1="4394.83" y1="175.09" x2="4414.91" y2="175.09"/>
      <text class="cls-10" transform="translate(4422.9 163.56)"><tspan x="0" y="0">G</tspan><tspan class="cls-19" x="12.45" y="0">r</tspan><tspan x="18.24" y="0">p</tspan></text>
      <text class="cls-10" transform="translate(4422.9 180.84)"><tspan x="0" y="0">Iso</tspan></text>
    </g>
  </g>
</svg>