<?xml version="1.0" encoding="UTF-8"?>
<svg xmlns="http://www.w3.org/2000/svg" version="1.1" xmlns:xlink="http://www.w3.org/1999/xlink" viewBox="0 0 2304 360">
  <defs>
    <style>
      .cls-1 {
        clip-path: url(#clippath-6);
      }

      .cls-2 {
        clip-path: url(#clippath-7);
      }

      .cls-3 {
        clip-path: url(#clippath-4);
      }

      .cls-4 {
        clip-path: url(#clippath-22);
      }

      .cls-5 {
        stroke: red;
      }

      .cls-5, .cls-6, .cls-7, .cls-8, .cls-9 {
        fill: none;
      }

      .cls-5, .cls-6, .cls-8, .cls-9 {
        stroke-linejoin: round;
      }

      .cls-5, .cls-8 {
        stroke-width: 2.13px;
      }

      .cls-10 {
        font-size: 16px;
      }

      .cls-10, .cls-11 {
        font-family: ArialMT, Arial;
      }

      .cls-12 {
        clip-path: url(#clippath-10);
      }

      .cls-13 {
        fill: #fff;
      }

      .cls-14 {
        clip-path: url(#clippath-25);
      }

      .cls-6 {
        stroke-linecap: square;
        stroke-width: 1.49px;
      }

      .cls-6, .cls-9 {
        stroke: #000;
      }

      .cls-15 {
        clip-path: url(#clippath-1);
      }

      .cls-11 {
        font-size: 20px;
      }

      .cls-16 {
        fill: red;
      }

      .cls-16, .cls-17 {
        opacity: .4;
      }

      .cls-18 {
        clip-path: url(#clippath-5);
      }

      .cls-8 {
        stroke: blue;
      }

      .cls-19 {
        letter-spacing: .03em;
      }

      .cls-20 {
        clip-path: url(#clippath-3);
      }

      .cls-17 {
        fill: blue;
      }

      .cls-21 {
        clip-path: url(#clippath-19);
      }

      .cls-22 {
        clip-path: url(#clippath-16);
      }

      .cls-23 {
        clip-path: url(#clippath-2);
      }

      .cls-9 {
        stroke-width: 1.07px;
      }

      .cls-24 {
        clip-path: url(#clippath-13);
      }

      .cls-25 {
        clip-path: url(#clippath);
      }
    </style>
    <clipPath id="clippath">
      <rect class="cls-7" width="2304" height="360"/>
    </clipPath>
    <clipPath id="clippath-1">
      <rect class="cls-7" x="82.34" y="30.38" width="345.13" height="272.14"/>
    </clipPath>
    <clipPath id="clippath-2">
      <rect class="cls-7" x="434.44" y="30.38" width="345.13" height="272.14"/>
    </clipPath>
    <clipPath id="clippath-3">
      <rect class="cls-7" x="786.54" y="30.38" width="345.13" height="272.14"/>
    </clipPath>
    <clipPath id="clippath-4">
      <rect class="cls-7" x="1138.65" y="30.38" width="345.13" height="272.14"/>
    </clipPath>
    <clipPath id="clippath-5">
      <rect class="cls-7" x="1490.75" y="30.38" width="345.13" height="272.14"/>
    </clipPath>
    <clipPath id="clippath-6">
      <rect class="cls-7" x="1842.85" y="30.38" width="345.13" height="272.14"/>
    </clipPath>
    <clipPath id="clippath-7">
      <rect class="cls-7" x="82.34" y="6.97" width="345.13" height="23.41"/>
    </clipPath>
    <clipPath id="clippath-10">
      <rect class="cls-7" x="434.44" y="6.97" width="345.13" height="23.41"/>
    </clipPath>
    <clipPath id="clippath-13">
      <rect class="cls-7" x="786.54" y="6.97" width="345.13" height="23.41"/>
    </clipPath>
    <clipPath id="clippath-16">
      <rect class="cls-7" x="1138.65" y="6.97" width="345.13" height="23.41"/>
    </clipPath>
    <clipPath id="clippath-19">
      <rect class="cls-7" x="1490.75" y="6.97" width="345.13" height="23.41"/>
    </clipPath>
    <clipPath id="clippath-22">
      <rect class="cls-7" x="1842.85" y="6.97" width="345.13" height="23.41"/>
    </clipPath>
    <clipPath id="clippath-25">
      <rect class="cls-7" x="2187.98" y="30.38" width="23.41" height="272.14"/>
    </clipPath>
  </defs>
  <!-- Generator: Adobe Illustrator 28.7.7, SVG Export Plug-In . SVG Version: 1.2.0 Build 194)  -->
  <g>
    <g id="Layer_1">
      <g class="cls-25">
        <rect class="cls-13" width="2304" height="360"/>
      </g>
      <g class="cls-15">
        <polygon class="cls-17" points="98.02 234.62 104.56 246.66 111.1 205.42 117.63 172.01 124.17 143.39 130.71 125.59 137.24 108.66 143.78 95.97 150.32 97.28 156.85 104.84 163.39 97.86 169.93 105.71 176.46 100.5 183 98.7 189.54 92.53 196.07 125.75 202.61 123.97 209.15 126.24 215.68 148.53 222.22 155.37 228.76 162.04 235.29 194.43 241.83 227.92 248.37 266.31 254.9 284.33 261.44 233.75 267.97 94.79 274.51 54.86 281.05 55.89 287.58 52.48 294.12 56.54 300.66 60.44 307.19 64.33 313.73 67.54 320.27 63.27 326.8 64.05 333.34 61.36 339.88 77.08 346.41 70.77 352.95 77.22 359.49 71.13 366.02 64.77 372.56 73.72 379.1 80.8 385.63 61.3 392.17 78.54 398.71 73.9 405.24 85.64 405.24 100.15 398.71 85.56 392.17 90.5 385.63 69.69 379.1 96.75 372.56 85.2 366.02 77.13 359.49 85.4 352.95 89.96 346.41 82.83 339.88 91.16 333.34 73.89 326.8 75.2 320.27 75.97 313.73 78.09 307.19 75.18 300.66 70.55 294.12 65.68 287.58 58.57 281.05 66.59 274.51 67.36 267.97 117.87 261.44 253.18 254.9 287.99 248.37 275.96 241.83 245.7 235.29 214.03 228.76 179.91 222.22 169.29 215.68 162.3 209.15 138.83 202.61 137.91 196.07 143.57 189.54 104.97 183 112.1 176.46 114.56 169.93 118.4 163.39 109.48 156.85 122.19 150.32 109.53 143.78 107.12 137.24 123.15 130.71 141.6 124.17 158.65 117.63 190.69 111.1 224.59 104.56 260.22 98.02 244.68 98.02 234.62"/>
        <polyline class="cls-8" points="98.02 239.65 104.56 253.44 111.1 215 117.63 181.35 124.17 151.02 130.71 133.6 137.24 115.91 143.78 101.54 150.32 103.41 156.85 113.51 163.39 103.67 169.93 112.05 176.46 107.53 183 105.4 189.54 98.75 196.07 134.66 202.61 130.94 209.15 132.53 215.68 155.41 222.22 162.33 228.76 170.97 235.29 204.23 241.83 236.81 248.37 271.13 254.9 286.16 261.44 243.46 267.97 106.33 274.51 61.11 281.05 61.24 287.58 55.52 294.12 61.11 300.66 65.5 307.19 69.75 313.73 72.81 320.27 69.62 326.8 69.62 333.34 67.63 339.88 84.12 346.41 76.8 352.95 83.59 359.49 78.27 366.02 70.95 372.56 79.46 379.1 88.77 385.63 65.5 392.17 84.52 398.71 79.73 405.24 92.9"/>
        <polygon class="cls-16" points="98.02 229 104.56 266.32 111.1 230.8 117.63 196.93 124.17 187.69 130.71 141.01 137.24 135.59 143.78 122.36 150.32 98.45 156.85 90.42 163.39 93.77 169.93 111.32 176.46 100.7 183 90.27 189.54 127.2 196.07 107.72 202.61 120.76 209.15 130.88 215.68 137.7 222.22 143.11 228.76 167.78 235.29 194.3 241.83 221.09 248.37 254.08 254.9 285.55 261.44 245.46 267.97 138.93 274.51 83.87 281.05 62.24 287.58 62.96 294.12 72.47 300.66 69.67 307.19 73.2 313.73 73.09 320.27 80.88 326.8 71.25 333.34 75.18 339.88 69.81 346.41 71.74 352.95 70.86 359.49 64.65 366.02 76.14 372.56 72.41 379.1 75.97 385.63 78.47 392.17 78.54 398.71 71.21 405.24 74.63 405.24 87.57 398.71 82.47 392.17 93.83 385.63 94.18 379.1 90.08 372.56 85.39 366.02 89.35 359.49 75.01 352.95 83.65 346.41 84.97 339.88 83.04 333.34 86.47 326.8 88.2 320.27 95.34 313.73 87.74 307.19 87.07 300.66 85.93 294.12 87.26 287.58 76.7 281.05 73.84 274.51 108.3 267.97 173.08 261.44 265.29 254.9 288.15 248.37 262.17 241.83 234.97 235.29 211.45 228.76 182.72 222.22 159.83 215.68 155.34 209.15 145.94 202.61 137.1 196.07 121.28 189.54 145.23 183 104.1 176.46 117.58 169.93 128.68 163.39 109.12 156.85 101.74 150.32 114.33 143.78 139.9 137.24 153.61 130.71 164.4 124.17 205.96 117.63 216.52 111.1 248.34 104.56 276.05 98.02 238.01 98.02 229"/>
        <polyline class="cls-5" points="98.02 233.51 104.56 271.18 111.1 239.57 117.63 206.72 124.17 196.83 130.71 152.71 137.24 144.6 143.78 131.13 150.32 106.39 156.85 96.08 163.39 101.44 169.93 120 176.46 109.14 183 97.18 189.54 136.21 196.07 114.5 202.61 128.93 209.15 138.41 215.68 146.52 222.22 151.47 228.76 175.25 235.29 202.87 241.83 228.03 248.37 258.13 254.9 286.85 261.44 255.38 267.97 156.01 274.51 96.08 281.05 68.04 287.58 69.83 294.12 79.86 300.66 77.8 307.19 80.14 313.73 80.41 320.27 88.11 326.8 79.73 333.34 80.82 339.88 76.43 346.41 78.35 352.95 77.25 359.49 69.83 366.02 82.75 372.56 78.9 379.1 83.02 385.63 86.32 392.17 86.19 398.71 76.84 405.24 81.1"/>
        <rect class="cls-13" x="98.02" y="294.36" width="156.88" height="8.16"/>
        <rect class="cls-9" x="98.02" y="294.36" width="156.88" height="8.16"/>
        <rect x="254.9" y="294.36" width="150.34" height="8.16"/>
        <rect class="cls-9" x="254.9" y="294.36" width="150.34" height="8.16"/>
        <rect class="cls-13" x="98.02" y="294.36" width="156.88" height="8.16"/>
        <rect class="cls-9" x="98.02" y="294.36" width="156.88" height="8.16"/>
        <rect x="254.9" y="294.36" width="150.34" height="8.16"/>
        <rect class="cls-9" x="254.9" y="294.36" width="150.34" height="8.16"/>
      </g>
      <g class="cls-23">
        <polygon class="cls-17" points="450.13 201.62 456.66 213.04 463.2 140.6 469.74 117.08 476.27 97.5 482.81 82.46 489.35 64.52 495.88 78.38 502.42 67.84 508.96 75.06 515.49 72.28 522.03 68.99 528.57 61.9 535.1 63.08 541.64 70.13 548.18 72.81 554.71 79.28 561.25 79.84 567.79 72.3 574.32 80.46 580.86 102.1 587.4 109.65 593.93 115.59 600.47 186.14 607.01 138.15 613.54 44.76 620.08 47.44 626.61 48.63 633.15 50.36 639.69 47.45 646.22 46.9 652.76 45.08 659.3 47.81 665.83 50.45 672.37 47.92 678.91 51.42 685.44 48.72 691.98 53.81 698.52 48.02 705.05 55.16 711.59 57.31 718.13 58.39 724.66 67.12 731.2 64.15 737.74 69.65 744.27 70.27 750.81 75.35 757.35 77.6 757.35 95.78 750.81 92.91 744.27 89.46 737.74 80.41 731.2 77.94 724.66 81.23 718.13 68.92 711.59 66.02 705.05 63.33 698.52 52.56 691.98 60.7 685.44 54.99 678.91 58.83 672.37 55.5 665.83 57.52 659.3 54.19 652.76 48.95 646.22 53.4 639.69 51.42 633.15 56.47 626.61 55.65 620.08 52.57 613.54 47.29 607.01 156.65 600.47 212.74 593.93 137.97 587.4 128.27 580.86 121.61 574.32 94.63 567.79 83.45 561.25 95.81 554.71 92.1 548.18 85.5 541.64 86.47 535.1 80.44 528.57 74.79 522.03 83.34 515.49 86.88 508.96 91.49 502.42 80.8 495.88 93.57 489.35 81.84 482.81 105.99 476.27 124.5 469.74 145.02 463.2 172.68 456.66 237.3 450.13 215.89 450.13 201.62"/>
        <polyline class="cls-8" points="450.13 208.76 456.66 225.17 463.2 156.64 469.74 131.05 476.27 111 482.81 94.22 489.35 73.18 495.88 85.98 502.42 74.32 508.96 83.28 515.49 79.58 522.03 76.17 528.57 68.35 535.1 71.76 541.64 78.3 548.18 79.15 554.71 85.69 561.25 87.82 567.79 77.87 574.32 87.54 580.86 111.85 587.4 118.96 593.93 126.78 600.47 199.44 607.01 147.4 613.54 46.02 620.08 50 626.61 52.14 633.15 53.42 639.69 49.44 646.22 50.15 652.76 47.02 659.3 51 665.83 53.99 672.37 51.71 678.91 55.12 685.44 51.85 691.98 57.26 698.52 50.29 705.05 59.25 711.59 61.66 718.13 63.65 724.66 74.18 731.2 71.05 737.74 75.03 744.27 79.86 750.81 84.13 757.35 86.69"/>
        <polygon class="cls-16" points="450.13 181.45 456.66 191.85 463.2 164.99 469.74 139.32 476.27 124.45 482.81 109.99 489.35 98.25 495.88 82.69 502.42 75.58 508.96 81.32 515.49 77.81 522.03 68.83 528.57 72.15 535.1 73.6 541.64 71.24 548.18 65.07 554.71 78.66 561.25 95.51 567.79 87.12 574.32 95.76 580.86 105.27 587.4 116.51 593.93 153.73 600.47 178.87 607.01 147.2 613.54 53.01 620.08 57.87 626.61 56.79 633.15 52.31 639.69 52.83 646.22 51.95 652.76 50.92 659.3 52.08 665.83 58.81 672.37 51.66 678.91 59.13 685.44 55.05 691.98 59.63 698.52 59.79 705.05 59.29 711.59 62.56 718.13 64.82 724.66 81.06 731.2 91.54 737.74 103.45 744.27 85.32 750.81 89.93 757.35 100.82 757.35 124.1 750.81 114.89 744.27 103.53 737.74 127.15 731.2 114.83 724.66 102.37 718.13 76.09 711.59 74.49 705.05 73.37 698.52 68.49 691.98 68.66 685.44 63.18 678.91 69.41 672.37 60.13 665.83 68.44 659.3 59.97 652.76 59.33 646.22 61.13 639.69 62.57 633.15 65.67 626.61 73.56 620.08 74.8 613.54 67.8 607.01 170.76 600.47 204.54 593.93 180.98 587.4 138.57 580.86 123.52 574.32 112.16 567.79 106.63 561.25 116.79 554.71 100.39 548.18 78.94 541.64 87.19 535.1 91.03 528.57 88.86 522.03 81.88 515.49 92.73 508.96 98.25 502.42 93.94 495.88 106.16 489.35 123.58 482.81 134.52 476.27 153.56 469.74 171.43 463.2 197.03 456.66 219.14 450.13 197.34 450.13 181.45"/>
        <polyline class="cls-5" points="450.13 189.39 456.66 205.49 463.2 181.01 469.74 155.37 476.27 139.01 482.81 122.26 489.35 110.92 495.88 94.42 502.42 84.76 508.96 89.78 515.49 85.27 522.03 75.35 528.57 80.51 535.1 82.31 541.64 79.22 548.18 72 554.71 89.53 561.25 106.15 567.79 96.87 574.32 103.96 580.86 114.4 587.4 127.54 593.93 167.35 600.47 191.71 607.01 158.98 613.54 60.41 620.08 66.33 626.61 65.17 633.15 58.99 639.69 57.7 646.22 56.54 652.76 55.12 659.3 56.02 665.83 63.63 672.37 55.9 678.91 64.27 685.44 59.12 691.98 64.14 698.52 64.14 705.05 66.33 711.59 68.52 718.13 70.46 724.66 91.72 731.2 103.19 737.74 115.3 744.27 94.42 750.81 102.41 757.35 112.46"/>
        <rect class="cls-13" x="450.13" y="294.36" width="156.88" height="8.16"/>
        <rect class="cls-9" x="450.13" y="294.36" width="156.88" height="8.16"/>
        <rect x="607.01" y="294.36" width="150.34" height="8.16"/>
        <rect class="cls-9" x="607.01" y="294.36" width="150.34" height="8.16"/>
        <rect class="cls-13" x="450.13" y="294.36" width="156.88" height="8.16"/>
        <rect class="cls-9" x="450.13" y="294.36" width="156.88" height="8.16"/>
        <rect x="607.01" y="294.36" width="150.34" height="8.16"/>
        <rect class="cls-9" x="607.01" y="294.36" width="150.34" height="8.16"/>
      </g>
      <g class="cls-20">
        <polygon class="cls-17" points="802.23 217.61 808.77 241.54 815.3 204.21 821.84 158.86 828.38 152.81 834.91 119.04 841.45 114.77 847.99 103.86 854.52 102.14 861.06 86.47 867.6 95.86 874.13 94.28 880.67 94.49 887.21 85.31 893.74 77.45 900.28 90.88 906.82 99.98 913.35 106.55 919.89 112.44 926.43 114.49 932.96 124.77 939.5 140.66 946.04 184.02 952.57 217.38 959.11 198.03 965.65 74.09 972.18 68.21 978.72 63.1 985.26 60 991.79 61.51 998.33 70.92 1004.86 62.17 1011.4 60.91 1017.94 66.88 1024.47 66.63 1031.01 69.77 1037.55 67.87 1044.08 68.73 1050.62 65.37 1057.16 77.97 1063.69 76.75 1070.23 79.61 1076.77 90.83 1083.3 89.6 1089.84 94.86 1096.38 88.51 1102.91 82.47 1109.45 78.53 1109.45 94.08 1102.91 101.48 1096.38 108.84 1089.84 112.02 1083.3 103.88 1076.77 105.23 1070.23 92.48 1063.69 89.16 1057.16 88.97 1050.62 77.09 1044.08 81.2 1037.55 78.97 1031.01 81.97 1024.47 76.86 1017.94 75.84 1011.4 70.72 1004.86 74.1 998.33 83.39 991.79 73.73 985.26 68.29 978.72 72.4 972.18 80.43 965.65 94.4 959.11 219.14 952.57 235.1 946.04 204.29 939.5 162.35 932.96 146.8 926.43 132.08 919.89 133.87 913.35 125.08 906.82 119.79 900.28 106.73 893.74 91.03 887.21 104.05 880.67 112.65 874.13 111.32 867.6 112.83 861.06 102.89 854.52 117.89 847.99 125.44 841.45 140.31 834.91 145.83 828.38 179.58 821.84 187.96 815.3 224.56 808.77 253.98 802.23 230.37 802.23 217.61"/>
        <polyline class="cls-8" points="802.23 223.99 808.77 247.76 815.3 214.39 821.84 173.41 828.38 166.19 834.91 132.43 841.45 127.54 847.99 114.65 854.52 110.01 861.06 94.68 867.6 104.34 874.13 102.8 880.67 103.57 887.21 94.68 893.74 84.24 900.28 98.8 906.82 109.89 913.35 115.81 919.89 123.16 926.43 123.29 932.96 135.78 939.5 151.51 946.04 194.16 952.57 226.24 959.11 208.59 965.65 84.24 972.18 74.32 978.72 67.75 985.26 64.14 991.79 67.62 998.33 77.16 1004.86 68.14 1011.4 65.82 1017.94 71.36 1024.47 71.74 1031.01 75.87 1037.55 73.42 1044.08 74.97 1050.62 71.23 1057.16 83.47 1063.69 82.96 1070.23 86.05 1076.77 98.03 1083.3 96.74 1089.84 103.44 1096.38 98.68 1102.91 91.97 1109.45 86.31"/>
        <polygon class="cls-16" points="802.23 187.76 808.77 234.31 815.3 212.25 821.84 180.43 828.38 157.16 834.91 139.36 841.45 123.69 847.99 106.65 854.52 99.16 861.06 91.51 867.6 93.97 874.13 89.32 880.67 87.81 887.21 78.86 893.74 77.88 900.28 82.67 906.82 113.11 913.35 90.33 919.89 106.27 926.43 109.71 932.96 112.01 939.5 146.19 946.04 167.26 952.57 196.92 959.11 212.22 965.65 91.58 972.18 82.33 978.72 70.95 985.26 70.43 991.79 78.79 998.33 74.35 1004.86 64.56 1011.4 66.2 1017.94 73.92 1024.47 72.6 1031.01 72.41 1037.55 72.3 1044.08 68.83 1050.62 80.55 1057.16 76.3 1063.69 83 1070.23 84.05 1076.77 89.78 1083.3 105.21 1089.84 94.31 1096.38 102.99 1102.91 92.97 1109.45 91.69 1109.45 111.67 1102.91 111.72 1096.38 122.97 1089.84 116.76 1083.3 124.48 1076.77 112.51 1070.23 101.21 1063.69 103.33 1057.16 93.26 1050.62 98.32 1044.08 82.38 1037.55 86.63 1031.01 83.59 1024.47 88.19 1017.94 89 1011.4 77.56 1004.86 73.35 998.33 86.71 991.79 90.51 985.26 83.18 978.72 83.19 972.18 96.28 965.65 110.71 959.11 230.55 952.57 218.71 946.04 189.32 939.5 167.02 932.96 130.72 926.43 125.3 919.89 125.55 913.35 103.45 906.82 134.41 900.28 98.87 893.74 96.21 887.21 97.36 880.67 105.43 874.13 105.52 867.6 112.84 861.06 110.51 854.52 119.62 847.99 128.62 841.45 150.42 834.91 164.81 828.38 182.66 821.84 204.88 815.3 232.12 808.77 254.22 802.23 209.9 802.23 187.76"/>
        <polyline class="cls-5" points="802.23 198.83 808.77 244.26 815.3 222.18 821.84 192.65 828.38 169.91 834.91 152.09 841.45 137.06 847.99 117.64 854.52 109.39 861.06 101.01 867.6 103.41 874.13 97.42 880.67 96.62 887.21 88.11 893.74 87.05 900.28 90.77 906.82 123.76 913.35 96.89 919.89 115.91 926.43 117.5 932.96 121.36 939.5 156.61 946.04 178.29 952.57 207.82 959.11 221.39 965.65 101.14 972.18 89.31 978.72 77.07 985.26 76.8 991.79 84.65 998.33 80.53 1004.86 68.96 1011.4 71.88 1017.94 81.46 1024.47 80.39 1031.01 78 1037.55 79.46 1044.08 75.61 1050.62 89.44 1057.16 84.78 1063.69 93.16 1070.23 92.63 1076.77 101.14 1083.3 114.84 1089.84 105.53 1096.38 112.98 1102.91 102.34 1109.45 101.68"/>
        <rect class="cls-13" x="802.23" y="294.36" width="156.88" height="8.16"/>
        <rect class="cls-9" x="802.23" y="294.36" width="156.88" height="8.16"/>
        <rect x="959.11" y="294.36" width="150.34" height="8.16"/>
        <rect class="cls-9" x="959.11" y="294.36" width="150.34" height="8.16"/>
        <rect class="cls-13" x="802.23" y="294.36" width="156.88" height="8.16"/>
        <rect class="cls-9" x="802.23" y="294.36" width="156.88" height="8.16"/>
        <rect x="959.11" y="294.36" width="150.34" height="8.16"/>
        <rect class="cls-9" x="959.11" y="294.36" width="150.34" height="8.16"/>
      </g>
      <g class="cls-3">
        <polygon class="cls-17" points="1154.34 204.02 1160.87 205.74 1167.41 154.59 1173.94 166.02 1180.48 135.78 1187.02 124.63 1193.55 116.66 1200.09 120.69 1206.63 97.79 1213.16 121.86 1219.7 108.65 1226.24 110.62 1232.77 110.12 1239.31 124.93 1245.85 124.2 1252.38 138.24 1258.92 128.26 1265.46 139.01 1271.99 154.75 1278.53 174.25 1285.07 191.79 1291.6 194.95 1298.14 204.98 1304.68 237.05 1311.21 285.06 1317.75 273.95 1324.29 229.59 1330.82 207.41 1337.36 179.74 1343.9 150.75 1350.43 144.98 1356.97 142.64 1363.5 141.25 1370.04 133.93 1376.58 124.6 1383.11 157.38 1389.65 156.9 1396.19 175.15 1402.72 201.7 1409.26 176.1 1415.8 154.7 1422.33 142.19 1428.87 150.6 1435.41 151 1441.94 174.75 1448.48 164.1 1455.02 185.93 1461.55 174.89 1461.55 221.79 1455.02 232.19 1448.48 212.24 1441.94 218.08 1435.41 199.5 1428.87 197.15 1422.33 192.36 1415.8 210.09 1409.26 227.17 1402.72 239.51 1396.19 216.03 1389.65 203.49 1383.11 198.62 1376.58 174.22 1370.04 181.38 1363.5 191.11 1356.97 193.56 1350.43 197.82 1343.9 205.24 1337.36 232.33 1330.82 256.89 1324.29 267.15 1317.75 289.86 1311.21 289.2 1304.68 268.48 1298.14 246.68 1291.6 239.67 1285.07 228.53 1278.53 218.58 1271.99 197.4 1265.46 173.56 1258.92 168.91 1252.38 173.77 1245.85 155.37 1239.31 161.8 1232.77 138.67 1226.24 138.17 1219.7 143.44 1213.16 147.82 1206.63 131.21 1200.09 158.33 1193.55 146.97 1187.02 158.79 1180.48 178.98 1173.94 200.97 1167.41 201.95 1160.87 242.62 1154.34 237.85 1154.34 204.02"/>
        <polyline class="cls-8" points="1154.34 220.93 1160.87 224.18 1167.41 178.27 1173.94 183.49 1180.48 157.38 1187.02 141.71 1193.55 131.82 1200.09 139.51 1206.63 114.5 1213.16 134.84 1219.7 126.04 1226.24 124.39 1232.77 124.39 1239.31 143.36 1245.85 139.79 1252.38 156.01 1258.92 148.58 1265.46 156.28 1271.99 176.07 1278.53 196.41 1285.07 210.16 1291.6 217.31 1298.14 225.83 1304.68 252.77 1311.21 287.13 1317.75 281.9 1324.29 248.37 1330.82 232.15 1337.36 206.04 1343.9 178 1350.43 171.4 1356.97 168.1 1363.5 166.18 1370.04 157.66 1376.58 149.41 1383.11 178 1389.65 180.2 1396.19 195.59 1402.72 220.6 1409.26 201.64 1415.8 182.4 1422.33 167.28 1428.87 173.87 1435.41 175.25 1441.94 196.41 1448.48 188.17 1455.02 209.06 1461.55 198.34"/>
        <polygon class="cls-16" points="1154.34 196.14 1160.87 212.36 1167.41 192.61 1173.94 186.57 1180.48 171.4 1187.02 150.62 1193.55 153.49 1200.09 138.97 1206.63 141.39 1213.16 137.98 1219.7 131.28 1226.24 139.31 1232.77 133.84 1239.31 130.17 1245.85 146.72 1252.38 155.35 1258.92 166.32 1265.46 174.77 1271.99 193.91 1278.53 194.69 1285.07 209.98 1291.6 233.5 1298.14 244.57 1304.68 257.86 1311.21 282.09 1317.75 288 1324.29 283.81 1330.82 276.41 1337.36 250.56 1343.9 225.27 1350.43 209.93 1356.97 185.34 1363.5 188.08 1370.04 188.02 1376.58 201.86 1383.11 201.29 1389.65 190.12 1396.19 208.61 1402.72 218.51 1409.26 221.47 1415.8 213.2 1422.33 201.93 1428.87 209.37 1435.41 224.92 1441.94 224.79 1448.48 213.37 1455.02 209.54 1461.55 197.96 1461.55 225.66 1455.02 236.34 1448.48 244.06 1441.94 250.78 1435.41 250.65 1428.87 239.53 1422.33 236.26 1415.8 241.48 1409.26 247.23 1402.72 246.07 1396.19 240.85 1389.65 222.22 1383.11 231.67 1376.58 234.95 1370.04 219.1 1363.5 221.79 1356.97 218.48 1350.43 242 1343.9 253.05 1337.36 269.54 1330.82 283.55 1324.29 288.25 1317.75 289.82 1311.21 288.87 1304.68 276.81 1298.14 265.09 1291.6 256.91 1285.07 235.63 1278.53 218.2 1271.99 216.51 1265.46 200.19 1258.92 191.87 1252.38 181.67 1245.85 168.59 1239.31 156.28 1232.77 156.73 1226.24 168.31 1219.7 154.89 1213.16 166.06 1206.63 170.62 1200.09 167 1193.55 180.24 1187.02 176.52 1180.48 198.06 1173.94 213.96 1167.41 221.94 1160.87 237.65 1154.34 223.29 1154.34 196.14"/>
        <polyline class="cls-5" points="1154.34 209.71 1160.87 225 1167.41 207.27 1173.94 200.26 1180.48 184.73 1187.02 163.57 1193.55 166.86 1200.09 152.98 1206.63 156.01 1213.16 152.02 1219.7 143.09 1226.24 153.81 1232.77 145.29 1239.31 143.22 1245.85 157.66 1252.38 168.51 1258.92 179.1 1265.46 187.48 1271.99 205.21 1278.53 206.45 1285.07 222.8 1291.6 245.21 1298.14 254.83 1304.68 267.34 1311.21 285.48 1317.75 288.91 1324.29 286.03 1330.82 279.98 1337.36 260.05 1343.9 239.16 1350.43 225.96 1356.97 201.91 1363.5 204.94 1370.04 203.56 1376.58 218.41 1383.11 216.48 1389.65 206.17 1396.19 224.73 1402.72 232.29 1409.26 234.35 1415.8 227.34 1422.33 219.09 1428.87 224.45 1435.41 237.79 1441.94 237.79 1448.48 228.71 1455.02 222.94 1461.55 211.81"/>
        <rect class="cls-13" x="1154.34" y="294.36" width="156.88" height="8.16"/>
        <rect class="cls-9" x="1154.34" y="294.36" width="156.88" height="8.16"/>
        <rect x="1311.21" y="294.36" width="150.34" height="8.16"/>
        <rect class="cls-9" x="1311.21" y="294.36" width="150.34" height="8.16"/>
        <rect class="cls-13" x="1154.34" y="294.36" width="156.88" height="8.16"/>
        <rect class="cls-9" x="1154.34" y="294.36" width="156.88" height="8.16"/>
        <rect x="1311.21" y="294.36" width="150.34" height="8.16"/>
        <rect class="cls-9" x="1311.21" y="294.36" width="150.34" height="8.16"/>
      </g>
      <g class="cls-18">
        <polygon class="cls-17" points="1506.44 242.3 1512.98 193.48 1519.51 160.3 1526.05 147.45 1532.58 131.05 1539.12 109.01 1545.66 114.79 1552.19 107.59 1558.73 106.26 1565.27 101.44 1571.8 110.77 1578.34 112.28 1584.88 109.07 1591.41 125.52 1597.95 139.56 1604.49 146.42 1611.02 148.61 1617.56 181.69 1624.1 206.91 1630.63 220.37 1637.17 234.01 1643.71 253.56 1650.24 274.19 1656.78 283.28 1663.32 289.12 1669.85 284.8 1676.39 272.33 1682.93 232.51 1689.46 183.28 1696 161.95 1702.54 141.91 1709.07 144.16 1715.61 134.3 1722.14 148.69 1728.68 153.52 1735.22 155.85 1741.75 148.4 1748.29 153.13 1754.83 169.98 1761.36 163.95 1767.9 138.67 1774.44 123.23 1780.97 143.73 1787.51 165.52 1794.05 178.33 1800.58 179.42 1807.12 177.5 1813.66 170.49 1813.66 199.53 1807.12 208.23 1800.58 207.35 1794.05 205.09 1787.51 195.21 1780.97 171.13 1774.44 154.52 1767.9 169.23 1761.36 193.95 1754.83 196.94 1748.29 182.87 1741.75 180.64 1735.22 188.14 1728.68 186.34 1722.14 182.15 1715.61 169.23 1709.07 177.66 1702.54 176.82 1696 195.95 1689.46 214.56 1682.93 257.85 1676.39 285.29 1669.85 289.57 1663.32 290.15 1656.78 289.55 1650.24 284.21 1643.71 270.05 1637.17 254.29 1630.63 241.9 1624.1 231.4 1617.56 203.79 1611.02 174.5 1604.49 168.19 1597.95 159.33 1591.41 145.79 1584.88 126.93 1578.34 134.3 1571.8 132.71 1565.27 120.39 1558.73 123.56 1552.19 120.68 1545.66 130.5 1539.12 127.25 1532.58 153.4 1526.05 174.88 1519.51 188.84 1512.98 221.12 1506.44 256.63 1506.44 242.3"/>
        <polyline class="cls-8" points="1506.44 249.47 1512.98 207.3 1519.51 174.57 1526.05 161.17 1532.58 142.23 1539.12 118.13 1545.66 122.64 1552.19 114.14 1558.73 114.91 1565.27 110.92 1571.8 121.74 1578.34 123.29 1584.88 118 1591.41 135.66 1597.95 149.44 1604.49 157.3 1611.02 161.56 1617.56 192.74 1624.1 219.15 1630.63 231.14 1637.17 244.15 1643.71 261.8 1650.24 279.2 1656.78 286.41 1663.32 289.64 1669.85 287.19 1676.39 278.81 1682.93 245.18 1689.46 198.92 1696 178.95 1702.54 159.37 1709.07 160.91 1715.61 151.76 1722.14 165.42 1728.68 169.93 1735.22 171.99 1741.75 164.52 1748.29 168 1754.83 183.46 1761.36 178.95 1767.9 153.95 1774.44 138.88 1780.97 157.43 1787.51 180.37 1794.05 191.71 1800.58 193.38 1807.12 192.87 1813.66 185.01"/>
        <polygon class="cls-16" points="1506.44 255.46 1512.98 250.14 1519.51 215.06 1526.05 195.84 1532.58 192.52 1539.12 168.47 1545.66 151.13 1552.19 145.58 1558.73 135.64 1565.27 150.71 1571.8 136.94 1578.34 150.71 1584.88 139.87 1591.41 160.62 1597.95 159.13 1604.49 150.07 1611.02 194.45 1617.56 191.44 1624.1 204.25 1630.63 235.01 1637.17 257.86 1643.71 273.75 1650.24 284.22 1656.78 287.53 1663.32 286.69 1669.85 267.4 1676.39 251.4 1682.93 232 1689.46 211.11 1696 173.6 1702.54 150.95 1709.07 128.97 1715.61 106.73 1722.14 133.33 1728.68 121.41 1735.22 130.13 1741.75 120.91 1748.29 118.82 1754.83 155.16 1761.36 141.93 1767.9 112.64 1774.44 124.12 1780.97 116.05 1787.51 147.32 1794.05 168.42 1800.58 171.97 1807.12 169.9 1813.66 178.25 1813.66 204.14 1807.12 198.65 1800.58 196.58 1794.05 194.55 1787.51 176.54 1780.97 145.56 1774.44 151.06 1767.9 140.46 1761.36 170.22 1754.83 183.86 1748.29 149.71 1741.75 148.94 1735.22 161.54 1728.68 148.98 1722.14 165.26 1715.61 137.86 1709.07 162.7 1702.54 181.16 1696 205.33 1689.46 238.84 1682.93 261.05 1676.39 273.57 1669.85 282.57 1663.32 290.15 1656.78 289.58 1650.24 288.11 1643.71 281.81 1637.17 270.84 1630.63 252.46 1624.1 229.21 1617.56 214.62 1611.02 215.33 1604.49 175.12 1597.95 183.61 1591.41 182.4 1584.88 164.04 1578.34 174.22 1571.8 163.78 1565.27 175.81 1558.73 162.68 1552.19 170.83 1545.66 178.05 1539.12 195.82 1532.58 218.33 1526.05 225.65 1519.51 242.34 1512.98 266.85 1506.44 267.28 1506.44 255.46"/>
        <polyline class="cls-5" points="1506.44 261.37 1512.98 258.49 1519.51 228.7 1526.05 210.74 1532.58 205.42 1539.12 182.15 1545.66 164.59 1552.19 158.21 1558.73 149.16 1565.27 163.26 1571.8 150.36 1578.34 162.46 1584.88 151.95 1591.41 171.51 1597.95 171.37 1604.49 162.59 1611.02 204.89 1617.56 203.03 1624.1 216.73 1630.63 243.73 1637.17 264.35 1643.71 277.78 1650.24 286.16 1656.78 288.55 1663.32 288.42 1669.85 274.99 1676.39 262.48 1682.93 246.52 1689.46 224.98 1696 189.46 1702.54 166.05 1709.07 145.84 1715.61 122.29 1722.14 149.29 1728.68 135.19 1735.22 145.84 1741.75 134.93 1748.29 134.26 1754.83 169.51 1761.36 156.08 1767.9 126.55 1774.44 137.59 1780.97 130.81 1787.51 161.93 1794.05 181.48 1800.58 184.28 1807.12 184.28 1813.66 191.19"/>
        <rect class="cls-13" x="1506.44" y="294.36" width="156.88" height="8.16"/>
        <rect class="cls-9" x="1506.44" y="294.36" width="156.88" height="8.16"/>
        <rect x="1663.32" y="294.36" width="150.34" height="8.16"/>
        <rect class="cls-9" x="1663.32" y="294.36" width="150.34" height="8.16"/>
        <rect class="cls-13" x="1506.44" y="294.36" width="156.88" height="8.16"/>
        <rect class="cls-9" x="1506.44" y="294.36" width="156.88" height="8.16"/>
        <rect x="1663.32" y="294.36" width="150.34" height="8.16"/>
        <rect class="cls-9" x="1663.32" y="294.36" width="150.34" height="8.16"/>
      </g>
      <g class="cls-1">
        <polygon class="cls-17" points="1858.54 240.84 1865.08 198.63 1871.62 167.39 1878.15 141.02 1884.69 115.78 1891.23 109.74 1897.76 101.43 1904.3 116.8 1910.83 102.92 1917.37 96.24 1923.91 104.87 1930.44 98.08 1936.98 114.39 1943.52 109.85 1950.05 121.56 1956.59 119.74 1963.13 135.97 1969.66 159.26 1976.2 154.61 1982.74 191.56 1989.27 194.62 1995.81 227.28 2002.35 252.61 2008.88 271.66 2015.42 284.71 2021.96 281.07 2028.49 259 2035.03 227.63 2041.57 186.92 2048.1 168.15 2054.64 146.55 2061.18 129.25 2067.71 146.99 2074.25 144.05 2080.78 135.66 2087.32 133.35 2093.86 118.28 2100.39 140.87 2106.93 157.42 2113.47 141.25 2120 139.65 2126.54 131.47 2133.08 128.13 2139.61 143.79 2146.15 148.63 2152.69 161.57 2159.22 160.1 2165.76 167.57 2165.76 196.72 2159.22 189.03 2152.69 186.5 2146.15 178.42 2139.61 171.56 2133.08 153.17 2126.54 156.48 2120 169.31 2113.47 171.44 2106.93 186.39 2100.39 165.96 2093.86 143.07 2087.32 158.58 2080.78 165.05 2074.25 175.02 2067.71 175.54 2061.18 158.7 2054.64 180.51 2048.1 200.14 2041.57 220.21 2035.03 254.24 2028.49 275.54 2021.96 287.8 2015.42 288.14 2008.88 283.9 2002.35 268.9 1995.81 248.21 1989.27 219.95 1982.74 214.24 1976.2 177.76 1969.66 180.56 1963.13 158.9 1956.59 143.2 1950.05 143.51 1943.52 130.75 1936.98 132.32 1930.44 113.52 1923.91 126.42 1917.37 112.69 1910.83 127.56 1904.3 136.83 1897.76 122.68 1891.23 131.66 1884.69 143.44 1878.15 167.14 1871.62 190.78 1865.08 222.06 1858.54 255.21 1858.54 240.84"/>
        <polyline class="cls-8" points="1858.54 248.02 1865.08 210.35 1871.62 179.09 1878.15 154.08 1884.69 129.61 1891.23 120.7 1897.76 112.05 1904.3 126.82 1910.83 115.24 1917.37 104.47 1923.91 115.64 1930.44 105.8 1936.98 123.36 1943.52 120.3 1950.05 132.53 1956.59 131.47 1963.13 147.43 1969.66 169.91 1976.2 166.19 1982.74 202.9 1989.27 207.29 1995.81 237.75 2002.35 260.76 2008.88 277.78 2015.42 286.43 2021.96 284.43 2028.49 267.27 2035.03 240.94 2041.57 203.56 2048.1 184.14 2054.64 163.53 2061.18 143.97 2067.71 161.26 2074.25 159.54 2080.78 150.36 2087.32 145.97 2093.86 130.67 2100.39 153.42 2106.93 171.91 2113.47 156.34 2120 154.48 2126.54 143.97 2133.08 140.65 2139.61 157.67 2146.15 163.53 2152.69 174.03 2159.22 174.57 2165.76 182.15"/>
        <polygon class="cls-16" points="1858.54 246.74 1865.08 228.74 1871.62 197.55 1878.15 180.05 1884.69 160.03 1891.23 152.72 1897.76 144.34 1904.3 135.02 1910.83 131.45 1917.37 122.34 1923.91 126.74 1930.44 114.39 1936.98 138.79 1943.52 116.48 1950.05 133.57 1956.59 140.54 1963.13 161.06 1969.66 159.88 1976.2 176.96 1982.74 187.92 1989.27 209.33 1995.81 229.96 2002.35 248.04 2008.88 264.8 2015.42 284.36 2021.96 275.35 2028.49 267.54 2035.03 222.89 2041.57 188.94 2048.1 174.35 2054.64 133.3 2061.18 126.66 2067.71 125.59 2074.25 133.83 2080.78 131.16 2087.32 154.06 2093.86 159.46 2100.39 146.06 2106.93 187.35 2113.47 162.98 2120 139.83 2126.54 147.36 2133.08 148.38 2139.61 159.19 2146.15 165.75 2152.69 192.39 2159.22 164.29 2165.76 186.08 2165.76 212.8 2159.22 192.03 2152.69 221.38 2146.15 194.29 2139.61 187.54 2133.08 178.67 2126.54 175.97 2120 167 2113.47 188.81 2106.93 214.99 2100.39 177.8 2093.86 188.34 2087.32 181.23 2080.78 161.58 2074.25 163.69 2067.71 153.05 2061.18 155.7 2054.64 166.62 2048.1 205.38 2041.57 221.38 2035.03 250.21 2028.49 279.24 2021.96 286.59 2015.42 287.43 2008.88 275.07 2002.35 265.5 1995.81 247.66 1989.27 228.12 1982.74 209.36 1976.2 199.3 1969.66 183.4 1963.13 184.62 1956.59 164.16 1950.05 158.63 1943.52 137.15 1936.98 164.32 1930.44 136.32 1923.91 151.63 1917.37 144.86 1910.83 155.43 1904.3 163.57 1897.76 173.66 1891.23 178.86 1884.69 190.16 1878.15 206.06 1871.62 222.07 1865.08 248.61 1858.54 258.73 1858.54 246.74"/>
        <polyline class="cls-5" points="1858.54 252.73 1865.08 238.68 1871.62 209.81 1878.15 193.05 1884.69 175.1 1891.23 165.79 1897.76 159 1904.3 149.29 1910.83 143.44 1917.37 133.6 1923.91 139.19 1930.44 125.35 1936.98 151.55 1943.52 126.82 1950.05 146.1 1956.59 152.35 1963.13 172.84 1969.66 171.64 1976.2 188.13 1982.74 198.64 1989.27 218.72 1995.81 238.81 2002.35 256.77 2008.88 269.93 2015.42 285.89 2021.96 280.97 2028.49 273.39 2035.03 236.55 2041.57 205.16 2048.1 189.86 2054.64 149.96 2061.18 141.18 2067.71 139.32 2074.25 148.76 2080.78 146.37 2087.32 167.65 2093.86 173.9 2100.39 161.93 2106.93 201.17 2113.47 175.9 2120 153.42 2126.54 161.66 2133.08 163.53 2139.61 173.37 2146.15 180.02 2152.69 206.89 2159.22 178.16 2165.76 199.44"/>
        <rect class="cls-13" x="1858.54" y="294.36" width="156.88" height="8.16"/>
        <rect class="cls-9" x="1858.54" y="294.36" width="156.88" height="8.16"/>
        <rect x="2015.42" y="294.36" width="150.34" height="8.16"/>
        <rect class="cls-9" x="2015.42" y="294.36" width="150.34" height="8.16"/>
        <rect class="cls-13" x="1858.54" y="294.36" width="156.88" height="8.16"/>
        <rect class="cls-9" x="1858.54" y="294.36" width="156.88" height="8.16"/>
        <rect x="2015.42" y="294.36" width="150.34" height="8.16"/>
        <rect class="cls-9" x="2015.42" y="294.36" width="150.34" height="8.16"/>
      </g>
      <g class="cls-2">
        <text class="cls-11" transform="translate(241.01 23.53)"><tspan x="0" y="0">CS</tspan></text>
      </g>
      <g class="cls-12">
        <text class="cls-11" transform="translate(562.53 23.53)"><tspan x="0" y="0">SIP−L2−1</tspan></text>
      </g>
      <g class="cls-24">
        <text class="cls-11" transform="translate(914.63 23.53)"><tspan x="0" y="0">SIP−L2−2</tspan></text>
      </g>
      <g class="cls-22">
        <text class="cls-11" transform="translate(1265.62 23.53)"><tspan x="0" y="0">SIP−S2−1</tspan></text>
      </g>
      <g class="cls-21">
        <text class="cls-11" transform="translate(1612.17 23.53)"><tspan x="0" y="0">SIP−S2−10</tspan></text>
      </g>
      <g class="cls-4">
        <text class="cls-11" transform="translate(1969.83 23.53)"><tspan x="0" y="0">SIP−S2−8</tspan></text>
      </g>
      <g class="cls-14">
        <text class="cls-11" transform="translate(2194.83 158.12) rotate(90)"><tspan x="0" y="0">M</tspan></text>
      </g>
      <line class="cls-6" x1="82.34" y1="302.52" x2="427.47" y2="302.52"/>
      <line class="cls-6" x1="98.02" y1="308.1" x2="98.02" y2="302.52"/>
      <line class="cls-6" x1="176.46" y1="308.1" x2="176.46" y2="302.52"/>
      <line class="cls-6" x1="254.9" y1="308.1" x2="254.9" y2="302.52"/>
      <line class="cls-6" x1="333.34" y1="308.1" x2="333.34" y2="302.52"/>
      <line class="cls-6" x1="411.78" y1="308.1" x2="411.78" y2="302.52"/>
      <text class="cls-10" transform="translate(91.35 324.14)"><tspan x="0" y="0" xml:space="preserve"> 0</tspan></text>
      <text class="cls-10" transform="translate(169.79 324.14)"><tspan x="0" y="0" xml:space="preserve"> 6</tspan></text>
      <text class="cls-10" transform="translate(246.01 324.14)"><tspan x="0" y="0">12</tspan></text>
      <text class="cls-10" transform="translate(324.44 324.14)"><tspan x="0" y="0">18</tspan></text>
      <text class="cls-10" transform="translate(402.88 324.14)"><tspan x="0" y="0">24</tspan></text>
      <line class="cls-6" x1="434.44" y1="302.52" x2="779.57" y2="302.52"/>
      <line class="cls-6" x1="450.13" y1="308.1" x2="450.13" y2="302.52"/>
      <line class="cls-6" x1="528.57" y1="308.1" x2="528.57" y2="302.52"/>
      <line class="cls-6" x1="607.01" y1="308.1" x2="607.01" y2="302.52"/>
      <line class="cls-6" x1="685.44" y1="308.1" x2="685.44" y2="302.52"/>
      <line class="cls-6" x1="763.88" y1="308.1" x2="763.88" y2="302.52"/>
      <text class="cls-10" transform="translate(443.46 324.14)"><tspan x="0" y="0" xml:space="preserve"> 0</tspan></text>
      <text class="cls-10" transform="translate(521.89 324.14)"><tspan x="0" y="0" xml:space="preserve"> 6</tspan></text>
      <text class="cls-10" transform="translate(598.11 324.14)"><tspan x="0" y="0">12</tspan></text>
      <text class="cls-10" transform="translate(676.55 324.14)"><tspan x="0" y="0">18</tspan></text>
      <text class="cls-10" transform="translate(754.99 324.14)"><tspan x="0" y="0">24</tspan></text>
      <line class="cls-6" x1="786.54" y1="302.52" x2="1131.67" y2="302.52"/>
      <line class="cls-6" x1="802.23" y1="308.1" x2="802.23" y2="302.52"/>
      <line class="cls-6" x1="880.67" y1="308.1" x2="880.67" y2="302.52"/>
      <line class="cls-6" x1="959.11" y1="308.1" x2="959.11" y2="302.52"/>
      <line class="cls-6" x1="1037.55" y1="308.1" x2="1037.55" y2="302.52"/>
      <line class="cls-6" x1="1115.99" y1="308.1" x2="1115.99" y2="302.52"/>
      <text class="cls-10" transform="translate(795.56 324.14)"><tspan x="0" y="0" xml:space="preserve"> 0</tspan></text>
      <text class="cls-10" transform="translate(874 324.14)"><tspan x="0" y="0" xml:space="preserve"> 6</tspan></text>
      <text class="cls-10" transform="translate(950.21 324.14)"><tspan x="0" y="0">12</tspan></text>
      <text class="cls-10" transform="translate(1028.65 324.14)"><tspan x="0" y="0">18</tspan></text>
      <text class="cls-10" transform="translate(1107.09 324.14)"><tspan x="0" y="0">24</tspan></text>
      <line class="cls-6" x1="1138.65" y1="302.52" x2="1483.78" y2="302.52"/>
      <line class="cls-6" x1="1154.34" y1="308.1" x2="1154.34" y2="302.52"/>
      <line class="cls-6" x1="1232.77" y1="308.1" x2="1232.77" y2="302.52"/>
      <line class="cls-6" x1="1311.21" y1="308.1" x2="1311.21" y2="302.52"/>
      <line class="cls-6" x1="1389.65" y1="308.1" x2="1389.65" y2="302.52"/>
      <line class="cls-6" x1="1468.09" y1="308.1" x2="1468.09" y2="302.52"/>
      <text class="cls-10" transform="translate(1147.66 324.14)"><tspan x="0" y="0" xml:space="preserve"> 0</tspan></text>
      <text class="cls-10" transform="translate(1226.1 324.14)"><tspan x="0" y="0" xml:space="preserve"> 6</tspan></text>
      <text class="cls-10" transform="translate(1302.32 324.14)"><tspan x="0" y="0">12</tspan></text>
      <text class="cls-10" transform="translate(1380.75 324.14)"><tspan x="0" y="0">18</tspan></text>
      <text class="cls-10" transform="translate(1459.19 324.14)"><tspan x="0" y="0">24</tspan></text>
      <line class="cls-6" x1="1490.75" y1="302.52" x2="1835.88" y2="302.52"/>
      <line class="cls-6" x1="1506.44" y1="308.1" x2="1506.44" y2="302.52"/>
      <line class="cls-6" x1="1584.88" y1="308.1" x2="1584.88" y2="302.52"/>
      <line class="cls-6" x1="1663.32" y1="308.1" x2="1663.32" y2="302.52"/>
      <line class="cls-6" x1="1741.75" y1="308.1" x2="1741.75" y2="302.52"/>
      <line class="cls-6" x1="1820.19" y1="308.1" x2="1820.19" y2="302.52"/>
      <text class="cls-10" transform="translate(1499.77 324.14)"><tspan x="0" y="0" xml:space="preserve"> 0</tspan></text>
      <text class="cls-10" transform="translate(1578.21 324.14)"><tspan x="0" y="0" xml:space="preserve"> 6</tspan></text>
      <text class="cls-10" transform="translate(1654.42 324.14)"><tspan x="0" y="0">12</tspan></text>
      <text class="cls-10" transform="translate(1732.86 324.14)"><tspan x="0" y="0">18</tspan></text>
      <text class="cls-10" transform="translate(1811.3 324.14)"><tspan x="0" y="0">24</tspan></text>
      <line class="cls-6" x1="1842.85" y1="302.52" x2="2187.98" y2="302.52"/>
      <line class="cls-6" x1="1858.54" y1="308.1" x2="1858.54" y2="302.52"/>
      <line class="cls-6" x1="1936.98" y1="308.1" x2="1936.98" y2="302.52"/>
      <line class="cls-6" x1="2015.42" y1="308.1" x2="2015.42" y2="302.52"/>
      <line class="cls-6" x1="2093.86" y1="308.1" x2="2093.86" y2="302.52"/>
      <line class="cls-6" x1="2172.3" y1="308.1" x2="2172.3" y2="302.52"/>
      <text class="cls-10" transform="translate(1851.87 324.14)"><tspan x="0" y="0" xml:space="preserve"> 0</tspan></text>
      <text class="cls-10" transform="translate(1930.31 324.14)"><tspan x="0" y="0" xml:space="preserve"> 6</tspan></text>
      <text class="cls-10" transform="translate(2006.52 324.14)"><tspan x="0" y="0">12</tspan></text>
      <text class="cls-10" transform="translate(2084.96 324.14)"><tspan x="0" y="0">18</tspan></text>
      <text class="cls-10" transform="translate(2163.4 324.14)"><tspan x="0" y="0">24</tspan></text>
      <line class="cls-6" x1="82.34" y1="302.52" x2="82.34" y2="30.38"/>
      <text class="cls-10" transform="translate(51.89 295.9)"><tspan x="0" y="0">0%</tspan></text>
      <text class="cls-10" transform="translate(43 234.05)"><tspan x="0" y="0">25%</tspan></text>
      <text class="cls-10" transform="translate(43 172.2)"><tspan x="0" y="0">50%</tspan></text>
      <text class="cls-10" transform="translate(43 110.35)"><tspan x="0" y="0">75%</tspan></text>
      <text class="cls-10" transform="translate(34.1 48.5)"><tspan x="0" y="0">100%</tspan></text>
      <line class="cls-6" x1="76.76" y1="290.15" x2="82.34" y2="290.15"/>
      <line class="cls-6" x1="76.76" y1="228.3" x2="82.34" y2="228.3"/>
      <line class="cls-6" x1="76.76" y1="166.45" x2="82.34" y2="166.45"/>
      <line class="cls-6" x1="76.76" y1="104.6" x2="82.34" y2="104.6"/>
      <line class="cls-6" x1="76.76" y1="42.75" x2="82.34" y2="42.75"/>
      <text class="cls-11" transform="translate(1097.94 348.63)"><tspan x="0" y="0">Time (h)</tspan></text>
      <text class="cls-11" transform="translate(21.33 240.92) rotate(-90)"><tspan x="0" y="0">% Flies Sleeping</tspan></text>
      <rect class="cls-17" x="2232.31" y="149.17" width="25.11" height="17.28"/>
      <line class="cls-8" x1="2234.83" y1="157.81" x2="2254.91" y2="157.81"/>
      <rect class="cls-16" x="2232.31" y="166.45" width="25.11" height="17.28"/>
      <line class="cls-5" x1="2234.83" y1="175.09" x2="2254.91" y2="175.09"/>
      <text class="cls-10" transform="translate(2262.9 163.56)"><tspan x="0" y="0">G</tspan><tspan class="cls-19" x="12.45" y="0">r</tspan><tspan x="18.24" y="0">p</tspan></text>
      <text class="cls-10" transform="translate(2262.9 180.84)"><tspan x="0" y="0">Iso</tspan></text>
    </g>
  </g>
</svg>