<?xml version="1.0" encoding="UTF-8"?>
<svg xmlns="http://www.w3.org/2000/svg" version="1.1" xmlns:xlink="http://www.w3.org/1999/xlink" viewBox="0 0 2304 576">
  <defs>
    <style>
      .cls-1 {
        clip-path: url(#clippath-6);
      }

      .cls-2 {
        clip-path: url(#clippath-7);
      }

      .cls-3 {
        clip-path: url(#clippath-31);
      }

      .cls-4 {
        clip-path: url(#clippath-4);
      }

      .cls-5 {
        clip-path: url(#clippath-22);
      }

      .cls-6 {
        stroke: red;
      }

      .cls-6, .cls-7, .cls-8, .cls-9, .cls-10 {
        fill: none;
      }

      .cls-6, .cls-8, .cls-9 {
        stroke-width: 2.13px;
      }

      .cls-6, .cls-8, .cls-9, .cls-10 {
        stroke-linejoin: round;
      }

      .cls-11 {
        font-size: 16px;
      }

      .cls-11, .cls-12 {
        font-family: ArialMT, Arial;
      }

      .cls-13 {
        clip-path: url(#clippath-9);
      }

      .cls-14 {
        clip-path: url(#clippath-10);
      }

      .cls-15 {
        fill: #fff;
      }

      .cls-16 {
        clip-path: url(#clippath-25);
      }

      .cls-17 {
        clip-path: url(#clippath-11);
      }

      .cls-18 {
        clip-path: url(#clippath-36);
      }

      .cls-19 {
        clip-path: url(#clippath-35);
      }

      .cls-20 {
        clip-path: url(#clippath-28);
      }

      .cls-21 {
        clip-path: url(#clippath-1);
      }

      .cls-12 {
        font-size: 20px;
      }

      .cls-22 {
        letter-spacing: .03em;
      }

      .cls-23 {
        fill: red;
      }

      .cls-23, .cls-24 {
        opacity: .4;
      }

      .cls-25 {
        clip-path: url(#clippath-5);
      }

      .cls-26 {
        clip-path: url(#clippath-8);
      }

      .cls-8 {
        stroke: blue;
      }

      .cls-27 {
        letter-spacing: .03em;
      }

      .cls-28 {
        clip-path: url(#clippath-3);
      }

      .cls-24 {
        fill: blue;
      }

      .cls-29 {
        clip-path: url(#clippath-12);
      }

      .cls-30 {
        clip-path: url(#clippath-19);
      }

      .cls-9 {
        stroke-linecap: square;
      }

      .cls-9, .cls-10 {
        stroke: #000;
      }

      .cls-31 {
        clip-path: url(#clippath-32);
      }

      .cls-32 {
        clip-path: url(#clippath-16);
      }

      .cls-33 {
        clip-path: url(#clippath-2);
      }

      .cls-10 {
        stroke-width: 1.07px;
      }

      .cls-34 {
        clip-path: url(#clippath-13);
      }

      .cls-35 {
        clip-path: url(#clippath);
      }
    </style>
    <clipPath id="clippath">
      <rect class="cls-7" width="2304" height="576"/>
    </clipPath>
    <clipPath id="clippath-1">
      <rect class="cls-7" x="82.34" y="30.39" width="341.23" height="240.58"/>
    </clipPath>
    <clipPath id="clippath-2">
      <rect class="cls-7" x="82.34" y="277.94" width="341.23" height="240.58"/>
    </clipPath>
    <clipPath id="clippath-3">
      <rect class="cls-7" x="430.54" y="30.39" width="341.23" height="240.58"/>
    </clipPath>
    <clipPath id="clippath-4">
      <rect class="cls-7" x="430.54" y="277.94" width="341.23" height="240.58"/>
    </clipPath>
    <clipPath id="clippath-5">
      <rect class="cls-7" x="778.74" y="30.39" width="341.23" height="240.58"/>
    </clipPath>
    <clipPath id="clippath-6">
      <rect class="cls-7" x="778.74" y="277.94" width="341.23" height="240.58"/>
    </clipPath>
    <clipPath id="clippath-7">
      <rect class="cls-7" x="1126.94" y="30.39" width="341.23" height="240.58"/>
    </clipPath>
    <clipPath id="clippath-8">
      <rect class="cls-7" x="1126.94" y="277.94" width="341.23" height="240.58"/>
    </clipPath>
    <clipPath id="clippath-9">
      <rect class="cls-7" x="1475.14" y="30.39" width="341.23" height="240.58"/>
    </clipPath>
    <clipPath id="clippath-10">
      <rect class="cls-7" x="1475.14" y="277.94" width="341.23" height="240.58"/>
    </clipPath>
    <clipPath id="clippath-11">
      <rect class="cls-7" x="1823.35" y="30.39" width="341.23" height="240.58"/>
    </clipPath>
    <clipPath id="clippath-12">
      <rect class="cls-7" x="1823.35" y="277.94" width="341.23" height="240.58"/>
    </clipPath>
    <clipPath id="clippath-13">
      <rect class="cls-7" x="82.34" y="6.97" width="341.23" height="23.41"/>
    </clipPath>
    <clipPath id="clippath-16">
      <rect class="cls-7" x="430.54" y="6.97" width="341.23" height="23.41"/>
    </clipPath>
    <clipPath id="clippath-19">
      <rect class="cls-7" x="778.74" y="6.97" width="341.23" height="23.41"/>
    </clipPath>
    <clipPath id="clippath-22">
      <rect class="cls-7" x="1126.94" y="6.97" width="341.23" height="23.41"/>
    </clipPath>
    <clipPath id="clippath-25">
      <rect class="cls-7" x="1475.14" y="6.97" width="341.23" height="23.41"/>
    </clipPath>
    <clipPath id="clippath-28">
      <rect class="cls-7" x="1823.35" y="6.97" width="341.23" height="23.41"/>
    </clipPath>
    <clipPath id="clippath-31">
      <rect class="cls-7" x="2164.57" y="30.39" width="46.82" height="240.58"/>
    </clipPath>
    <clipPath id="clippath-32">
      <rect class="cls-7" x="2164.57" y="30.39" width="46.82" height="240.58"/>
    </clipPath>
    <clipPath id="clippath-35">
      <rect class="cls-7" x="2164.57" y="277.94" width="46.82" height="240.58"/>
    </clipPath>
    <clipPath id="clippath-36">
      <rect class="cls-7" x="2164.57" y="277.94" width="46.82" height="240.58"/>
    </clipPath>
  </defs>
  <!-- Generator: Adobe Illustrator 28.7.7, SVG Export Plug-In . SVG Version: 1.2.0 Build 194)  -->
  <g>
    <g id="Layer_1">
      <g class="cls-35">
        <rect class="cls-15" width="2304" height="576"/>
      </g>
      <g class="cls-21">
        <polygon class="cls-24" points="97.85 210.94 104.31 221.58 110.77 185.12 117.24 155.59 123.7 130.29 130.16 114.55 136.62 99.59 143.09 88.36 149.55 89.52 156.01 96.21 162.47 90.04 168.94 96.97 175.4 92.37 181.86 90.78 188.32 85.32 194.79 114.69 201.25 113.11 207.71 115.12 214.18 134.83 220.64 140.87 227.1 146.77 233.56 175.41 240.03 205.02 246.49 238.95 252.95 254.89 259.41 210.16 265.88 87.33 272.34 52.02 278.8 52.94 285.26 49.92 291.73 53.5 298.19 56.96 304.65 60.4 311.11 63.23 317.58 59.46 324.04 60.14 330.5 57.77 336.97 71.67 343.43 66.09 349.89 71.79 356.35 66.4 362.82 60.78 369.28 68.7 375.74 74.95 382.2 57.72 388.67 72.96 395.13 68.85 401.59 79.23 401.59 92.06 395.13 79.16 388.67 83.53 382.2 65.13 375.74 89.05 369.28 78.85 362.82 71.71 356.35 79.02 349.89 83.05 343.43 76.75 336.97 84.11 330.5 68.84 324.04 70 317.58 70.68 311.11 72.56 304.65 69.98 298.19 65.89 291.73 61.59 285.26 55.3 278.8 62.39 272.34 63.07 265.88 107.72 259.41 227.35 252.95 258.12 246.49 247.48 240.03 220.74 233.56 192.73 227.1 162.57 220.64 153.18 214.18 147 207.71 126.26 201.25 125.44 194.79 130.45 188.32 96.32 181.86 102.62 175.4 104.8 168.94 108.19 162.47 100.31 156.01 111.54 149.55 100.35 143.09 98.22 136.62 112.4 130.16 128.71 123.7 143.78 117.24 172.1 110.77 202.07 104.31 233.57 97.85 219.83 97.85 210.94"/>
        <polyline class="cls-8" points="97.85 215.39 104.31 227.58 110.77 193.59 117.24 163.84 123.7 137.03 130.16 121.63 136.62 105.99 143.09 93.29 149.55 94.94 156.01 103.87 162.47 95.17 168.94 102.58 175.4 98.58 181.86 96.7 188.32 90.82 194.79 122.57 201.25 119.28 207.71 120.69 214.18 140.91 220.64 147.03 227.1 154.67 233.56 184.07 240.03 212.88 246.49 243.21 252.95 256.5 259.41 218.76 265.88 97.52 272.34 57.55 278.8 57.66 285.26 52.61 291.73 57.55 298.19 61.43 304.65 65.19 311.11 67.89 317.58 65.07 324.04 65.07 330.5 63.31 336.97 77.89 343.43 71.42 349.89 77.42 356.35 72.71 362.82 66.25 369.28 73.77 375.74 82 382.2 61.43 388.67 78.24 395.13 74.01 401.59 85.65"/>
        <rect class="cls-15" x="97.85" y="263.75" width="155.1" height="7.22"/>
        <rect class="cls-10" x="97.85" y="263.75" width="155.1" height="7.22"/>
        <rect x="252.95" y="263.75" width="148.64" height="7.22"/>
        <rect class="cls-10" x="252.95" y="263.75" width="148.64" height="7.22"/>
      </g>
      <g class="cls-33">
        <polygon class="cls-23" points="97.85 453.52 104.31 486.52 110.77 455.12 117.24 425.17 123.7 417 130.16 375.74 136.62 370.95 143.09 359.25 149.55 338.11 156.01 331.02 162.47 333.97 168.94 349.49 175.4 340.1 181.86 330.88 188.32 363.53 194.79 346.31 201.25 357.84 207.71 366.79 214.18 372.81 220.64 377.59 227.1 399.4 233.56 422.85 240.03 446.53 246.49 475.7 252.95 503.52 259.41 468.08 265.88 373.9 272.34 325.22 278.8 306.1 285.26 306.74 291.73 315.14 298.19 312.67 304.65 315.79 311.11 315.69 317.58 322.58 324.04 314.07 330.5 317.54 336.97 312.8 343.43 314.5 349.89 313.72 356.35 308.23 362.82 318.39 369.28 315.09 375.74 318.24 382.2 320.45 388.67 320.51 395.13 314.03 401.59 317.06 401.59 328.49 395.13 323.99 388.67 334.03 382.2 334.34 375.74 330.72 369.28 326.57 362.82 330.07 356.35 317.39 349.89 325.03 343.43 326.19 336.97 324.49 330.5 327.52 324.04 329.05 317.58 335.36 311.11 328.64 304.65 328.06 298.19 327.04 291.73 328.22 285.26 318.88 278.8 316.36 272.34 346.82 265.88 404.09 259.41 485.61 252.95 505.82 246.49 482.85 240.03 458.8 233.56 438.01 227.1 412.61 220.64 392.38 214.18 388.41 207.71 380.1 201.25 372.28 194.79 358.29 188.32 379.47 181.86 343.1 175.4 355.02 168.94 364.83 162.47 347.54 156.01 341.02 149.55 352.15 143.09 374.76 136.62 386.88 130.16 396.42 123.7 433.16 117.24 442.49 110.77 470.62 104.31 495.12 97.85 461.49 97.85 453.52"/>
        <polyline class="cls-6" points="97.85 457.51 104.31 490.82 110.77 462.87 117.24 433.83 123.7 425.08 130.16 386.08 136.62 378.91 143.09 367 149.55 345.13 156.01 336.02 162.47 340.76 168.94 357.16 175.4 347.56 181.86 336.99 188.32 371.5 194.79 352.3 201.25 365.06 207.71 373.44 214.18 380.61 220.64 384.99 227.1 406.01 233.56 430.43 240.03 452.66 246.49 479.27 252.95 504.67 259.41 476.84 265.88 389 272.34 336.02 278.8 311.23 285.26 312.81 291.73 321.68 298.19 319.86 304.65 321.92 311.11 322.17 317.58 328.97 324.04 321.56 330.5 322.53 336.97 318.64 343.43 320.34 349.89 319.37 356.35 312.81 362.82 324.23 369.28 320.83 375.74 324.48 382.2 327.39 388.67 327.27 395.13 319.01 401.59 322.77"/>
        <rect class="cls-15" x="97.85" y="511.3" width="155.1" height="7.22"/>
        <rect class="cls-10" x="97.85" y="511.3" width="155.1" height="7.22"/>
        <rect x="252.95" y="511.3" width="148.64" height="7.22"/>
        <rect class="cls-10" x="252.95" y="511.3" width="148.64" height="7.22"/>
      </g>
      <g class="cls-28">
        <polygon class="cls-24" points="446.05 181.77 452.51 191.86 458.97 127.82 465.44 107.03 471.9 89.72 478.36 76.42 484.83 60.56 491.29 72.82 497.75 63.5 504.21 69.88 510.68 67.42 517.14 64.51 523.6 58.25 530.06 59.29 536.53 65.52 542.99 67.89 549.45 73.61 555.91 74.11 562.38 67.44 568.84 74.65 575.3 93.78 581.77 100.46 588.23 105.71 594.69 168.08 601.15 125.66 607.62 43.09 614.08 45.46 620.54 46.51 627 48.05 633.47 45.47 639.93 44.98 646.39 43.38 652.85 45.79 659.32 48.13 665.78 45.89 672.24 48.98 678.7 46.59 685.17 51.09 691.63 45.97 698.09 52.29 704.56 54.18 711.02 55.14 717.48 62.86 723.94 60.24 730.41 65.1 736.87 65.64 743.33 70.13 749.79 72.12 749.79 88.19 743.33 85.66 736.87 82.61 730.41 74.61 723.94 72.43 717.48 75.33 711.02 64.45 704.56 61.89 698.09 59.51 691.63 49.99 685.17 57.19 678.7 52.13 672.24 55.53 665.78 52.59 659.32 54.37 652.85 51.43 646.39 46.8 639.93 50.73 633.47 48.98 627 53.44 620.54 52.72 614.08 49.99 607.62 45.33 601.15 142.01 594.69 191.59 588.23 125.5 581.77 116.92 575.3 111.03 568.84 87.18 562.38 77.3 555.91 88.22 549.45 84.94 542.99 79.11 536.53 79.97 530.06 74.63 523.6 69.64 517.14 77.2 510.68 80.33 504.21 84.41 497.75 74.95 491.29 86.24 484.83 75.87 478.36 97.22 471.9 113.59 465.44 131.73 458.97 156.18 452.51 213.31 446.05 194.38 446.05 181.77"/>
        <polyline class="cls-8" points="446.05 188.07 452.51 202.59 458.97 142 465.44 119.38 471.9 101.65 478.36 86.82 484.83 68.22 491.29 79.53 497.75 69.22 504.21 77.14 510.68 73.87 517.14 70.86 523.6 63.94 530.06 66.96 536.53 72.74 542.99 73.5 549.45 79.28 555.91 81.16 562.38 72.37 568.84 80.91 575.3 102.41 581.77 108.69 588.23 115.6 594.69 179.84 601.15 133.83 607.62 44.21 614.08 47.73 620.54 49.61 627 50.75 633.47 47.23 639.93 47.85 646.39 45.09 652.85 48.61 659.32 51.25 665.78 49.24 672.24 52.25 678.7 49.36 685.17 54.14 691.63 47.98 698.09 55.9 704.56 58.04 711.02 59.8 717.48 69.1 723.94 66.33 730.41 69.85 736.87 74.13 743.33 77.9 749.79 80.16"/>
        <rect class="cls-15" x="446.05" y="263.75" width="155.1" height="7.22"/>
        <rect class="cls-10" x="446.05" y="263.75" width="155.1" height="7.22"/>
        <rect x="601.15" y="263.75" width="148.64" height="7.22"/>
        <rect class="cls-10" x="601.15" y="263.75" width="148.64" height="7.22"/>
      </g>
      <g class="cls-4">
        <polygon class="cls-23" points="446.05 411.48 452.51 420.68 458.97 396.94 465.44 374.24 471.9 361.1 478.36 348.32 484.83 337.94 491.29 324.18 497.75 317.89 504.21 322.97 510.68 319.87 517.14 311.93 523.6 314.87 530.06 316.14 536.53 314.06 542.99 308.6 549.45 320.62 555.91 335.52 562.38 328.09 568.84 335.73 575.3 344.14 581.77 354.08 588.23 386.98 594.69 409.21 601.15 381.21 607.62 297.94 614.08 302.24 620.54 301.28 627 297.32 633.47 297.78 639.93 297 646.39 296.09 652.85 297.12 659.32 303.07 665.78 296.75 672.24 303.36 678.7 299.75 685.17 303.79 691.63 303.94 698.09 303.5 704.56 306.38 711.02 308.38 717.48 322.74 723.94 332 730.41 342.53 736.87 326.5 743.33 330.58 749.79 340.21 749.79 360.79 743.33 352.65 736.87 342.6 730.41 363.48 723.94 352.6 717.48 341.58 711.02 318.35 704.56 316.93 698.09 315.94 691.63 311.63 685.17 311.77 678.7 306.93 672.24 312.44 665.78 304.23 659.32 311.58 652.85 304.1 646.39 303.53 639.93 305.12 633.47 306.4 627 309.14 620.54 316.11 614.08 317.21 607.62 311.02 601.15 402.04 594.69 431.91 588.23 411.07 581.77 373.58 575.3 360.28 568.84 350.23 562.38 345.34 555.91 354.32 549.45 339.83 542.99 320.86 536.53 328.16 530.06 331.55 523.6 329.64 517.14 323.46 510.68 333.06 504.21 337.94 497.75 334.13 491.29 344.93 484.83 360.33 478.36 370 471.9 386.83 465.44 402.63 458.97 425.26 452.51 444.81 446.05 425.53 446.05 411.48"/>
        <polyline class="cls-6" points="446.05 418.51 452.51 432.75 458.97 411.1 465.44 388.43 471.9 373.97 478.36 359.16 484.83 349.13 491.29 334.55 497.75 326.01 504.21 330.45 510.68 326.47 517.14 317.69 523.6 322.25 530.06 323.85 536.53 321.11 542.99 314.73 549.45 330.22 555.91 344.92 562.38 336.72 568.84 342.98 575.3 352.21 581.77 363.83 588.23 399.03 594.69 420.56 601.15 391.62 607.62 304.48 614.08 309.72 620.54 308.7 627 303.23 633.47 302.09 639.93 301.06 646.39 299.81 652.85 300.61 659.32 307.33 665.78 300.49 672.24 307.9 678.7 303.34 685.17 307.78 691.63 307.78 698.09 309.72 704.56 311.66 711.02 313.37 717.48 332.16 723.94 342.3 730.41 353.01 736.87 334.55 743.33 341.62 749.79 350.5"/>
        <rect class="cls-15" x="446.05" y="511.3" width="155.1" height="7.22"/>
        <rect class="cls-10" x="446.05" y="511.3" width="155.1" height="7.22"/>
        <rect x="601.15" y="511.3" width="148.64" height="7.22"/>
        <rect class="cls-10" x="601.15" y="511.3" width="148.64" height="7.22"/>
      </g>
      <g class="cls-25">
        <polygon class="cls-24" points="794.25 195.9 800.71 217.05 807.18 184.06 813.64 143.96 820.1 138.61 826.56 108.76 833.03 104.98 839.49 95.34 845.95 93.82 852.42 79.97 858.88 88.27 865.34 86.87 871.8 87.06 878.27 78.94 884.73 72 891.19 83.87 897.65 91.91 904.12 97.72 910.58 102.93 917.04 104.74 923.5 113.82 929.97 127.87 936.43 166.2 942.89 195.69 949.36 178.59 955.82 69.02 962.28 63.82 968.74 59.31 975.21 56.56 981.67 57.9 988.13 66.22 994.59 58.49 1001.06 57.37 1007.52 62.65 1013.98 62.42 1020.44 65.2 1026.91 63.52 1033.37 64.28 1039.83 61.32 1046.29 72.45 1052.76 71.37 1059.22 73.9 1065.68 83.82 1072.15 82.74 1078.61 87.39 1085.07 81.77 1091.53 76.43 1098 72.95 1098 86.7 1091.53 93.24 1085.07 99.74 1078.61 102.56 1072.15 95.36 1065.68 96.56 1059.22 85.28 1052.76 82.34 1046.29 82.18 1039.83 71.67 1033.37 75.31 1026.91 73.34 1020.44 75.99 1013.98 71.47 1007.52 70.57 1001.06 66.05 994.59 69.03 988.13 77.24 981.67 68.71 975.21 63.89 968.74 67.53 962.28 74.63 955.82 86.97 949.36 197.26 942.89 211.37 936.43 184.13 929.97 147.05 923.5 133.3 917.04 120.29 910.58 121.87 904.12 114.1 897.65 109.42 891.19 97.87 884.73 84 878.27 95.51 871.8 103.12 865.34 101.93 858.88 103.27 852.42 94.48 845.95 107.74 839.49 114.42 833.03 127.56 826.56 132.44 820.1 162.28 813.64 169.69 807.18 202.04 800.71 228.05 794.25 207.18 794.25 195.9"/>
        <polyline class="cls-8" points="794.25 201.54 800.71 222.55 807.18 193.05 813.64 156.83 820.1 150.45 826.56 120.6 833.03 116.27 839.49 104.88 845.95 100.78 852.42 87.23 858.88 95.77 865.34 94.4 871.8 95.09 878.27 87.23 884.73 78 891.19 90.87 897.65 100.67 904.12 105.91 910.58 112.4 917.04 112.51 923.5 123.56 929.97 137.46 936.43 175.17 942.89 203.53 949.36 187.92 955.82 78 962.28 69.23 968.74 63.42 975.21 60.23 981.67 63.3 988.13 71.73 994.59 63.76 1001.06 61.71 1007.52 66.61 1013.98 66.95 1020.44 70.59 1026.91 68.43 1033.37 69.8 1039.83 66.49 1046.29 77.31 1052.76 76.86 1059.22 79.59 1065.68 90.19 1072.15 89.05 1078.61 94.97 1085.07 90.76 1091.53 84.83 1098 79.82"/>
        <rect class="cls-15" x="794.25" y="263.75" width="155.1" height="7.22"/>
        <rect class="cls-10" x="794.25" y="263.75" width="155.1" height="7.22"/>
        <rect x="949.36" y="263.75" width="148.64" height="7.22"/>
        <rect class="cls-10" x="949.36" y="263.75" width="148.64" height="7.22"/>
      </g>
      <g class="cls-1">
        <polygon class="cls-23" points="794.25 417.07 800.71 458.22 807.18 438.71 813.64 410.59 820.1 390.01 826.56 374.28 833.03 360.43 839.49 345.36 845.95 338.74 852.42 331.98 858.88 334.16 865.34 330.04 871.8 328.71 878.27 320.79 884.73 319.93 891.19 324.17 897.65 351.07 904.12 330.93 910.58 345.02 917.04 348.07 923.5 350.1 929.97 380.32 936.43 398.94 942.89 425.17 949.36 438.69 955.82 332.04 962.28 323.86 968.74 313.8 975.21 313.34 981.67 320.73 988.13 316.8 994.59 308.15 1001.06 309.6 1007.52 316.43 1013.98 315.26 1020.44 315.1 1026.91 314.99 1033.37 311.93 1039.83 322.29 1046.29 318.54 1052.76 324.45 1059.22 325.39 1065.68 330.45 1072.15 344.09 1078.61 334.45 1085.07 342.13 1091.53 333.27 1098 332.13 1098 349.8 1091.53 349.84 1085.07 359.79 1078.61 354.3 1072.15 361.12 1065.68 350.54 1059.22 340.55 1052.76 342.43 1046.29 333.53 1039.83 338 1033.37 323.91 1026.91 327.66 1020.44 324.97 1013.98 329.04 1007.52 329.76 1001.06 319.65 994.59 315.93 988.13 327.73 981.67 331.1 975.21 324.61 968.74 324.62 962.28 336.19 955.82 348.95 949.36 454.9 942.89 444.43 936.43 418.45 929.97 398.74 923.5 366.64 917.04 361.85 910.58 362.07 904.12 342.53 897.65 369.9 891.19 338.48 884.73 336.13 878.27 337.15 871.8 344.29 865.34 344.37 858.88 350.83 852.42 348.77 845.95 356.83 839.49 364.79 833.03 384.06 826.56 396.78 820.1 412.56 813.64 432.2 807.18 456.28 800.71 475.82 794.25 436.64 794.25 417.07"/>
        <polyline class="cls-6" points="794.25 426.86 800.71 467.02 807.18 447.5 813.64 421.39 820.1 401.29 826.56 385.53 833.03 372.24 839.49 355.08 845.95 347.79 852.42 340.38 858.88 342.49 865.34 337.2 871.8 336.5 878.27 328.97 884.73 328.03 891.19 331.32 897.65 360.48 904.12 336.73 910.58 353.55 917.04 354.96 923.5 358.37 929.97 389.53 936.43 408.7 942.89 434.8 949.36 446.79 955.82 340.49 962.28 330.03 968.74 319.21 975.21 318.98 981.67 325.91 988.13 322.27 994.59 312.04 1001.06 314.63 1007.52 323.09 1013.98 322.15 1020.44 320.03 1026.91 321.33 1033.37 317.92 1039.83 330.15 1046.29 326.03 1052.76 333.44 1059.22 332.97 1065.68 340.49 1072.15 352.61 1078.61 344.38 1085.07 350.96 1091.53 341.55 1098 340.97"/>
        <rect class="cls-15" x="794.25" y="511.3" width="155.1" height="7.22"/>
        <rect class="cls-10" x="794.25" y="511.3" width="155.1" height="7.22"/>
        <rect x="949.36" y="511.3" width="148.64" height="7.22"/>
        <rect class="cls-10" x="949.36" y="511.3" width="148.64" height="7.22"/>
      </g>
      <g class="cls-2">
        <polygon class="cls-24" points="1142.45 183.88 1148.92 185.4 1155.38 140.19 1161.84 150.29 1168.3 123.56 1174.77 113.7 1181.23 106.66 1187.69 110.22 1194.15 89.97 1200.62 111.25 1207.08 99.57 1213.54 101.32 1220.01 100.87 1226.47 113.96 1232.93 113.33 1239.39 125.73 1245.86 116.91 1252.32 126.41 1258.78 140.33 1265.24 157.57 1271.71 173.07 1278.17 175.86 1284.63 184.73 1291.09 213.09 1297.56 255.53 1304.02 245.7 1310.48 206.49 1316.94 186.88 1323.41 162.42 1329.87 136.8 1336.33 131.69 1342.8 129.62 1349.26 128.39 1355.72 121.92 1362.18 113.68 1368.65 142.65 1375.11 142.23 1381.57 158.36 1388.03 181.84 1394.5 159.21 1400.96 140.29 1407.42 129.23 1413.88 136.66 1420.35 137.02 1426.81 158.01 1433.27 148.59 1439.74 167.89 1446.2 158.13 1446.2 199.59 1439.74 208.79 1433.27 191.15 1426.81 196.31 1420.35 179.89 1413.88 177.81 1407.42 173.58 1400.96 189.25 1394.5 204.35 1388.03 215.26 1381.57 194.5 1375.11 183.42 1368.65 179.11 1362.18 157.54 1355.72 163.87 1349.26 172.47 1342.8 174.64 1336.33 178.4 1329.87 184.97 1323.41 208.91 1316.94 230.63 1310.48 239.7 1304.02 259.77 1297.56 259.19 1291.09 240.87 1284.63 221.6 1278.17 215.4 1271.71 205.56 1265.24 196.76 1258.78 178.03 1252.32 156.95 1245.86 152.84 1239.39 157.15 1232.93 140.88 1226.47 146.56 1220.01 126.11 1213.54 125.67 1207.08 130.33 1200.62 134.2 1194.15 119.52 1187.69 143.5 1181.23 133.45 1174.77 143.9 1168.3 161.75 1161.84 181.19 1155.38 182.06 1148.92 218.01 1142.45 213.79 1142.45 183.88"/>
        <polyline class="cls-8" points="1142.45 198.84 1148.92 201.71 1155.38 161.12 1161.84 165.74 1168.3 142.65 1174.77 128.8 1181.23 120.05 1187.69 126.86 1194.15 104.74 1200.62 122.73 1207.08 114.95 1213.54 113.49 1220.01 113.49 1226.47 130.26 1232.93 127.1 1239.39 141.44 1245.86 134.88 1252.32 141.68 1258.78 159.18 1265.24 177.16 1271.71 189.31 1278.17 195.63 1284.63 203.16 1291.09 226.98 1297.56 257.36 1304.02 252.74 1310.48 223.09 1316.94 208.75 1323.41 185.67 1329.87 160.88 1336.33 155.05 1342.8 152.13 1349.26 150.43 1355.72 142.9 1362.18 135.61 1368.65 160.88 1375.11 162.82 1381.57 176.43 1388.03 198.55 1394.5 181.78 1400.96 164.77 1407.42 151.4 1413.88 157.24 1420.35 158.45 1426.81 177.16 1433.27 169.87 1439.74 188.34 1446.2 178.86"/>
        <rect class="cls-15" x="1142.45" y="263.75" width="155.1" height="7.22"/>
        <rect class="cls-10" x="1142.45" y="263.75" width="155.1" height="7.22"/>
        <rect x="1297.56" y="263.75" width="148.64" height="7.22"/>
        <rect class="cls-10" x="1297.56" y="263.75" width="148.64" height="7.22"/>
      </g>
      <g class="cls-26">
        <polygon class="cls-23" points="1142.45 424.47 1148.92 438.81 1155.38 421.35 1161.84 416.01 1168.3 402.6 1174.77 384.23 1181.23 386.77 1187.69 373.93 1194.15 376.07 1200.62 373.06 1207.08 367.14 1213.54 374.23 1220.01 369.4 1226.47 366.16 1232.93 380.78 1239.39 388.42 1245.86 398.12 1252.32 405.58 1258.78 422.5 1265.24 423.2 1271.71 436.71 1278.17 457.51 1284.63 467.29 1291.09 479.04 1297.56 500.46 1304.02 505.69 1310.48 501.98 1316.94 495.43 1323.41 472.59 1329.87 450.23 1336.33 436.66 1342.8 414.93 1349.26 417.35 1355.72 417.3 1362.18 429.53 1368.65 429.03 1375.11 419.16 1381.57 435.5 1388.03 444.25 1394.5 446.87 1400.96 439.56 1407.42 429.59 1413.88 436.18 1420.35 449.92 1426.81 449.81 1433.27 439.71 1439.74 436.32 1446.2 426.08 1446.2 450.57 1439.74 460.02 1433.27 466.84 1426.81 472.78 1420.35 472.66 1413.88 462.84 1407.42 459.94 1400.96 464.56 1394.5 469.64 1388.03 468.61 1381.57 464 1375.11 447.53 1368.65 455.89 1362.18 458.78 1355.72 444.78 1349.26 447.15 1342.8 444.23 1336.33 465.02 1329.87 474.78 1323.41 489.36 1316.94 501.75 1310.48 505.9 1304.02 507.3 1297.56 506.45 1291.09 495.79 1284.63 485.43 1278.17 478.2 1271.71 459.39 1265.24 443.98 1258.78 442.49 1252.32 428.06 1245.86 420.7 1239.39 411.69 1232.93 400.12 1226.47 389.23 1220.01 389.63 1213.54 399.87 1207.08 388.01 1200.62 397.88 1194.15 401.92 1187.69 398.71 1181.23 410.42 1174.77 407.13 1168.3 426.18 1161.84 440.23 1155.38 447.28 1148.92 461.17 1142.45 448.47 1142.45 424.47"/>
        <polyline class="cls-6" points="1142.45 436.47 1148.92 449.99 1155.38 434.32 1161.84 428.12 1168.3 414.39 1174.77 395.68 1181.23 398.59 1187.69 386.32 1194.15 389 1200.62 385.47 1207.08 377.57 1213.54 387.05 1220.01 379.52 1226.47 377.7 1232.93 390.45 1239.39 400.05 1245.86 409.41 1252.32 416.82 1258.78 432.49 1265.24 433.59 1271.71 448.05 1278.17 467.85 1284.63 476.36 1291.09 487.42 1297.56 503.45 1304.02 506.49 1310.48 503.94 1316.94 498.59 1323.41 480.98 1329.87 462.51 1336.33 450.84 1342.8 429.58 1349.26 432.25 1355.72 431.04 1362.18 444.16 1368.65 442.46 1375.11 433.35 1381.57 449.75 1388.03 456.43 1394.5 458.25 1400.96 452.06 1407.42 444.77 1413.88 449.51 1420.35 461.29 1426.81 461.29 1433.27 453.27 1439.74 448.17 1446.2 438.33"/>
        <rect class="cls-15" x="1142.45" y="511.3" width="155.1" height="7.22"/>
        <rect class="cls-10" x="1142.45" y="511.3" width="155.1" height="7.22"/>
        <rect x="1297.56" y="511.3" width="148.64" height="7.22"/>
        <rect class="cls-10" x="1297.56" y="511.3" width="148.64" height="7.22"/>
      </g>
      <g class="cls-13">
        <polygon class="cls-24" points="1490.66 217.73 1497.12 174.57 1503.58 145.23 1510.04 133.88 1516.51 119.38 1522.97 99.89 1529.43 105 1535.89 98.64 1542.36 97.46 1548.82 93.2 1555.28 101.45 1561.74 102.78 1568.21 99.95 1574.67 114.49 1581.13 126.9 1587.6 132.96 1594.06 134.9 1600.52 164.14 1606.98 186.44 1613.45 198.34 1619.91 210.4 1626.37 227.68 1632.83 245.92 1639.3 253.95 1645.76 259.12 1652.22 255.3 1658.68 244.27 1665.15 209.07 1671.61 165.55 1678.07 146.7 1684.53 128.98 1691 130.97 1697.46 122.25 1703.92 134.97 1710.39 139.24 1716.85 141.3 1723.31 134.71 1729.77 138.9 1736.24 153.79 1742.7 148.47 1749.16 126.12 1755.62 112.47 1762.09 130.59 1768.55 149.85 1775.01 161.17 1781.47 162.14 1787.94 160.44 1794.4 154.24 1794.4 179.92 1787.94 187.61 1781.47 186.83 1775.01 184.83 1768.55 176.1 1762.09 154.81 1755.62 140.13 1749.16 153.13 1742.7 174.98 1736.24 177.63 1729.77 165.19 1723.31 163.22 1716.85 169.85 1710.39 168.26 1703.92 164.55 1697.46 153.13 1691 160.58 1684.53 159.84 1678.07 176.75 1671.61 193.2 1665.15 231.48 1658.68 255.74 1652.22 259.52 1645.76 260.03 1639.3 259.5 1632.83 254.77 1626.37 242.26 1619.91 228.33 1613.45 217.37 1606.98 208.09 1600.52 183.68 1594.06 157.79 1587.6 152.21 1581.13 144.37 1574.67 132.41 1568.21 115.74 1561.74 122.25 1555.28 120.85 1548.82 109.95 1542.36 112.76 1535.89 110.21 1529.43 118.89 1522.97 116.02 1516.51 139.14 1510.04 158.13 1503.58 170.47 1497.12 199 1490.66 230.4 1490.66 217.73"/>
        <polyline class="cls-8" points="1490.66 224.06 1497.12 186.78 1503.58 157.85 1510.04 146 1516.51 129.26 1522.97 107.96 1529.43 111.94 1535.89 104.43 1542.36 105.11 1548.82 101.58 1555.28 111.15 1561.74 112.51 1568.21 107.84 1574.67 123.45 1581.13 135.64 1587.6 142.59 1594.06 146.35 1600.52 173.91 1606.98 197.26 1613.45 207.86 1619.91 219.36 1626.37 234.97 1632.83 250.35 1639.3 256.73 1645.76 259.57 1652.22 257.41 1658.68 250.01 1665.15 220.27 1671.61 179.38 1678.07 161.72 1684.53 144.41 1691 145.78 1697.46 137.69 1703.92 149.76 1710.39 153.75 1716.85 155.57 1723.31 148.97 1729.77 152.04 1736.24 165.71 1742.7 161.72 1749.16 139.62 1755.62 126.3 1762.09 142.7 1768.55 162.98 1775.01 173 1781.47 174.48 1787.94 174.03 1794.4 167.08"/>
        <rect class="cls-15" x="1490.66" y="263.75" width="155.1" height="7.22"/>
        <rect class="cls-10" x="1490.66" y="263.75" width="155.1" height="7.22"/>
        <rect x="1645.76" y="263.75" width="148.64" height="7.22"/>
        <rect class="cls-10" x="1645.76" y="263.75" width="148.64" height="7.22"/>
      </g>
      <g class="cls-14">
        <polygon class="cls-23" points="1490.66 476.92 1497.12 472.21 1503.58 441.2 1510.04 424.21 1516.51 421.27 1522.97 400.01 1529.43 384.69 1535.89 379.78 1542.36 370.99 1548.82 384.31 1555.28 372.14 1561.74 384.31 1568.21 374.73 1574.67 393.07 1581.13 391.76 1587.6 383.75 1594.06 422.98 1600.52 420.32 1606.98 431.64 1613.45 458.83 1619.91 479.04 1626.37 493.08 1632.83 502.34 1639.3 505.27 1645.76 504.53 1652.22 487.48 1658.68 473.33 1665.15 456.18 1671.61 437.71 1678.07 404.55 1684.53 384.52 1691 365.1 1697.46 345.43 1703.92 368.95 1710.39 358.41 1716.85 366.12 1723.31 357.97 1729.77 356.12 1736.24 388.25 1742.7 376.55 1749.16 350.66 1755.62 360.81 1762.09 353.67 1768.55 381.31 1775.01 399.97 1781.47 403.11 1787.94 401.28 1794.4 408.66 1794.4 431.55 1787.94 426.7 1781.47 424.86 1775.01 423.07 1768.55 407.15 1762.09 379.76 1755.62 384.62 1749.16 375.25 1742.7 401.56 1736.24 413.62 1729.77 383.43 1723.31 382.75 1716.85 393.89 1710.39 382.78 1703.92 397.18 1697.46 372.95 1691 394.91 1684.53 411.23 1678.07 432.6 1671.61 462.23 1665.15 481.86 1658.68 492.93 1652.22 500.89 1645.76 507.59 1639.3 507.08 1632.83 505.78 1626.37 500.22 1619.91 490.51 1613.45 474.26 1606.98 453.71 1600.52 440.81 1594.06 441.44 1587.6 405.89 1581.13 413.4 1574.67 412.33 1568.21 396.09 1561.74 405.09 1555.28 395.87 1548.82 406.5 1542.36 394.89 1535.89 402.1 1529.43 408.48 1522.97 424.2 1516.51 444.09 1510.04 450.57 1503.58 465.32 1497.12 486.99 1490.66 487.36 1490.66 476.92"/>
        <polyline class="cls-6" points="1490.66 482.14 1497.12 479.6 1503.58 453.26 1510.04 437.39 1516.51 432.68 1522.97 412.11 1529.43 396.58 1535.89 390.94 1542.36 382.94 1548.82 395.41 1555.28 384 1561.74 394.7 1568.21 385.41 1574.67 402.7 1581.13 402.58 1587.6 394.82 1594.06 432.21 1600.52 430.57 1606.98 442.68 1613.45 466.55 1619.91 484.77 1626.37 496.65 1632.83 504.06 1639.3 506.17 1645.76 506.06 1652.22 494.18 1658.68 483.13 1665.15 469.02 1671.61 449.97 1678.07 418.57 1684.53 397.88 1691 380 1697.46 359.19 1703.92 383.06 1710.39 370.6 1716.85 380 1723.31 370.36 1729.77 369.77 1736.24 400.93 1742.7 389.06 1749.16 362.95 1755.62 372.71 1762.09 366.72 1768.55 394.23 1775.01 411.52 1781.47 413.99 1787.94 413.99 1794.4 420.1"/>
        <rect class="cls-15" x="1490.66" y="511.3" width="155.1" height="7.22"/>
        <rect class="cls-10" x="1490.66" y="511.3" width="155.1" height="7.22"/>
        <rect x="1645.76" y="511.3" width="148.64" height="7.22"/>
        <rect class="cls-10" x="1645.76" y="511.3" width="148.64" height="7.22"/>
      </g>
      <g class="cls-17">
        <polygon class="cls-24" points="1838.86 216.43 1845.32 179.12 1851.78 151.51 1858.25 128.2 1864.71 105.88 1871.17 100.54 1877.63 93.19 1884.1 106.78 1890.56 94.51 1897.02 88.61 1903.48 96.23 1909.95 90.23 1916.41 104.65 1922.87 100.63 1929.33 110.99 1935.8 109.38 1942.26 123.72 1948.72 144.31 1955.19 140.21 1961.65 172.87 1968.11 175.58 1974.57 204.45 1981.04 226.84 1987.5 243.68 1993.96 255.22 2000.42 252 2006.89 232.49 2013.35 204.76 2019.81 168.77 2026.27 152.17 2032.74 133.08 2039.2 117.78 2045.66 133.47 2052.12 130.87 2058.59 123.45 2065.05 121.41 2071.51 108.09 2077.98 128.06 2084.44 142.69 2090.9 128.39 2097.36 126.98 2103.83 119.75 2110.29 116.8 2116.75 130.64 2123.21 134.92 2129.68 146.36 2136.14 145.06 2142.6 151.66 2142.6 177.43 2136.14 170.63 2129.68 168.4 2123.21 161.25 2116.75 155.19 2110.29 138.93 2103.83 141.86 2097.36 153.2 2090.9 155.08 2084.44 168.3 2077.98 150.24 2071.51 130 2065.05 143.72 2058.59 149.44 2052.12 158.25 2045.66 158.71 2039.2 143.82 2032.74 163.1 2026.27 180.46 2019.81 198.2 2013.35 228.28 2006.89 247.12 2000.42 257.95 1993.96 258.25 1987.5 254.5 1981.04 241.24 1974.57 222.95 1968.11 197.97 1961.65 192.92 1955.19 160.67 1948.72 163.15 1942.26 144 1935.8 130.12 1929.33 130.39 1922.87 119.11 1916.41 120.5 1909.95 103.88 1903.48 115.28 1897.02 103.15 1890.56 116.3 1884.1 124.48 1877.63 111.97 1871.17 119.91 1864.71 130.33 1858.25 151.28 1851.78 172.18 1845.32 199.83 1838.86 229.14 1838.86 216.43"/>
        <polyline class="cls-8" points="1838.86 222.79 1845.32 189.48 1851.78 161.84 1858.25 139.74 1864.71 118.1 1871.17 110.22 1877.63 102.58 1884.1 115.63 1890.56 105.4 1897.02 95.88 1903.48 105.76 1909.95 97.05 1916.41 112.58 1922.87 109.87 1929.33 120.69 1935.8 119.75 1942.26 133.86 1948.72 153.73 1955.19 150.44 1961.65 182.89 1968.11 186.77 1974.57 213.7 1981.04 234.04 1987.5 249.09 1993.96 256.74 2000.42 254.97 2006.89 239.8 2013.35 216.52 2019.81 183.48 2026.27 166.31 2032.74 148.09 2039.2 130.8 2045.66 146.09 2052.12 144.56 2058.59 136.45 2065.05 132.57 2071.51 119.04 2077.98 139.15 2084.44 155.5 2090.9 141.74 2097.36 140.09 2103.83 130.8 2110.29 127.86 2116.75 142.91 2123.21 148.09 2129.68 157.38 2136.14 157.85 2142.6 164.55"/>
        <rect class="cls-15" x="1838.86" y="263.75" width="155.1" height="7.22"/>
        <rect class="cls-10" x="1838.86" y="263.75" width="155.1" height="7.22"/>
        <rect x="1993.96" y="263.75" width="148.64" height="7.22"/>
        <rect class="cls-10" x="1993.96" y="263.75" width="148.64" height="7.22"/>
      </g>
      <g class="cls-29">
        <polygon class="cls-23" points="1838.86 469.21 1845.32 453.3 1851.78 425.72 1858.25 410.25 1864.71 392.55 1871.17 386.09 1877.63 378.68 1884.1 370.44 1890.56 367.29 1897.02 359.23 1903.48 363.12 1909.95 352.2 1916.41 373.78 1922.87 354.05 1929.33 369.16 1935.8 375.33 1942.26 393.46 1948.72 392.42 1955.19 407.52 1961.65 417.21 1968.11 436.13 1974.57 454.37 1981.04 470.35 1987.5 485.17 1993.96 502.47 2000.42 494.5 2006.89 487.6 2013.35 448.12 2019.81 418.11 2026.27 405.21 2032.74 368.92 2039.2 363.05 2045.66 362.1 2052.12 369.39 2058.59 367.03 2065.05 387.28 2071.51 392.05 2077.98 380.2 2084.44 416.7 2090.9 395.16 2097.36 374.7 2103.83 381.35 2110.29 382.26 2116.75 391.81 2123.21 397.61 2129.68 421.16 2136.14 396.32 2142.6 415.58 2142.6 439.2 2136.14 420.84 2129.68 446.79 2123.21 422.84 2116.75 416.88 2110.29 409.03 2103.83 406.64 2097.36 398.71 2090.9 418 2084.44 441.14 2077.98 408.27 2071.51 417.58 2065.05 411.3 2058.59 393.92 2052.12 395.79 2045.66 386.38 2039.2 388.72 2032.74 398.38 2026.27 432.64 2019.81 446.79 2013.35 472.27 2006.89 497.94 2000.42 504.44 1993.96 505.18 1987.5 494.25 1981.04 485.79 1974.57 470.02 1968.11 452.75 1961.65 436.16 1955.19 427.27 1948.72 413.21 1942.26 414.29 1935.8 396.21 1929.33 391.31 1922.87 372.33 1916.41 396.34 1909.95 371.59 1903.48 385.13 1897.02 379.14 1890.56 388.49 1884.1 395.68 1877.63 404.61 1871.17 409.2 1864.71 419.19 1858.25 433.24 1851.78 447.4 1845.32 470.86 1838.86 479.81 1838.86 469.21"/>
        <polyline class="cls-6" points="1838.86 474.51 1845.32 462.08 1851.78 436.56 1858.25 421.75 1864.71 405.87 1871.17 397.64 1877.63 391.65 1884.1 383.06 1890.56 377.89 1897.02 369.19 1903.48 374.12 1909.95 361.9 1916.41 385.06 1922.87 363.19 1929.33 380.24 1935.8 385.77 1942.26 403.87 1948.72 402.82 1955.19 417.4 1961.65 426.69 1968.11 444.44 1974.57 462.2 1981.04 478.07 1987.5 489.71 1993.96 503.82 2000.42 499.47 2006.89 492.77 2013.35 460.2 2019.81 432.45 2026.27 418.93 2032.74 383.65 2039.2 375.89 2045.66 374.24 2052.12 382.59 2058.59 380.47 2065.05 399.29 2071.51 404.81 2077.98 394.23 2084.44 428.92 2090.9 406.58 2097.36 386.71 2103.83 394 2110.29 395.64 2116.75 404.34 2123.21 410.22 2129.68 433.98 2136.14 408.58 2142.6 427.39"/>
        <rect class="cls-15" x="1838.86" y="511.3" width="155.1" height="7.22"/>
        <rect class="cls-10" x="1838.86" y="511.3" width="155.1" height="7.22"/>
        <rect x="1993.96" y="511.3" width="148.64" height="7.22"/>
        <rect class="cls-10" x="1993.96" y="511.3" width="148.64" height="7.22"/>
      </g>
      <g class="cls-34">
        <text class="cls-12" transform="translate(239.06 23.53)"><tspan x="0" y="0">CS</tspan></text>
      </g>
      <g class="cls-32">
        <text class="cls-12" transform="translate(556.67 23.53)"><tspan x="0" y="0">SIP−L2−1</tspan></text>
      </g>
      <g class="cls-30">
        <text class="cls-12" transform="translate(904.88 23.53)"><tspan x="0" y="0">SIP−L2−2</tspan></text>
      </g>
      <g class="cls-5">
        <text class="cls-12" transform="translate(1251.97 23.53)"><tspan x="0" y="0">SIP−S2−1</tspan></text>
      </g>
      <g class="cls-16">
        <text class="cls-12" transform="translate(1594.61 23.53)"><tspan x="0" y="0">SIP−S2−10</tspan></text>
      </g>
      <g class="cls-20">
        <text class="cls-12" transform="translate(1948.37 23.53)"><tspan x="0" y="0">SIP−S2−8</tspan></text>
      </g>
      <g class="cls-3">
        <text class="cls-12" transform="translate(2171.42 142.34) rotate(90)"><tspan x="0" y="0">M</tspan></text>
      </g>
      <g class="cls-31">
        <text class="cls-12" transform="translate(2194.83 133.7) rotate(90)"><tspan x="0" y="0">G</tspan><tspan class="cls-22" x="15.56" y="0">r</tspan><tspan x="22.8" y="0">p</tspan></text>
      </g>
      <g class="cls-19">
        <text class="cls-12" transform="translate(2171.42 389.9) rotate(90)"><tspan x="0" y="0">M</tspan></text>
      </g>
      <g class="cls-18">
        <text class="cls-12" transform="translate(2194.83 384.89) rotate(90)"><tspan x="0" y="0">Iso</tspan></text>
      </g>
      <line class="cls-9" x1="82.34" y1="518.52" x2="423.57" y2="518.52"/>
      <line class="cls-9" x1="97.85" y1="524.1" x2="97.85" y2="518.52"/>
      <line class="cls-9" x1="175.4" y1="524.1" x2="175.4" y2="518.52"/>
      <line class="cls-9" x1="252.95" y1="524.1" x2="252.95" y2="518.52"/>
      <line class="cls-9" x1="330.5" y1="524.1" x2="330.5" y2="518.52"/>
      <line class="cls-9" x1="408.05" y1="524.1" x2="408.05" y2="518.52"/>
      <text class="cls-11" transform="translate(91.18 540.14)"><tspan x="0" y="0" xml:space="preserve"> 0</tspan></text>
      <text class="cls-11" transform="translate(168.73 540.14)"><tspan x="0" y="0" xml:space="preserve"> 6</tspan></text>
      <text class="cls-11" transform="translate(244.06 540.14)"><tspan x="0" y="0">12</tspan></text>
      <text class="cls-11" transform="translate(321.61 540.14)"><tspan x="0" y="0">18</tspan></text>
      <text class="cls-11" transform="translate(399.16 540.14)"><tspan x="0" y="0">24</tspan></text>
      <line class="cls-9" x1="430.54" y1="518.52" x2="771.77" y2="518.52"/>
      <line class="cls-9" x1="446.05" y1="524.1" x2="446.05" y2="518.52"/>
      <line class="cls-9" x1="523.6" y1="524.1" x2="523.6" y2="518.52"/>
      <line class="cls-9" x1="601.15" y1="524.1" x2="601.15" y2="518.52"/>
      <line class="cls-9" x1="678.7" y1="524.1" x2="678.7" y2="518.52"/>
      <line class="cls-9" x1="756.26" y1="524.1" x2="756.26" y2="518.52"/>
      <text class="cls-11" transform="translate(439.38 540.14)"><tspan x="0" y="0" xml:space="preserve"> 0</tspan></text>
      <text class="cls-11" transform="translate(516.93 540.14)"><tspan x="0" y="0" xml:space="preserve"> 6</tspan></text>
      <text class="cls-11" transform="translate(592.26 540.14)"><tspan x="0" y="0">12</tspan></text>
      <text class="cls-11" transform="translate(669.81 540.14)"><tspan x="0" y="0">18</tspan></text>
      <text class="cls-11" transform="translate(747.36 540.14)"><tspan x="0" y="0">24</tspan></text>
      <line class="cls-9" x1="778.74" y1="518.52" x2="1119.97" y2="518.52"/>
      <line class="cls-9" x1="794.25" y1="524.1" x2="794.25" y2="518.52"/>
      <line class="cls-9" x1="871.8" y1="524.1" x2="871.8" y2="518.52"/>
      <line class="cls-9" x1="949.36" y1="524.1" x2="949.36" y2="518.52"/>
      <line class="cls-9" x1="1026.91" y1="524.1" x2="1026.91" y2="518.52"/>
      <line class="cls-9" x1="1104.46" y1="524.1" x2="1104.46" y2="518.52"/>
      <text class="cls-11" transform="translate(787.58 540.14)"><tspan x="0" y="0" xml:space="preserve"> 0</tspan></text>
      <text class="cls-11" transform="translate(865.13 540.14)"><tspan x="0" y="0" xml:space="preserve"> 6</tspan></text>
      <text class="cls-11" transform="translate(940.46 540.14)"><tspan x="0" y="0">12</tspan></text>
      <text class="cls-11" transform="translate(1018.01 540.14)"><tspan x="0" y="0">18</tspan></text>
      <text class="cls-11" transform="translate(1095.56 540.14)"><tspan x="0" y="0">24</tspan></text>
      <line class="cls-9" x1="1126.94" y1="518.52" x2="1468.17" y2="518.52"/>
      <line class="cls-9" x1="1142.45" y1="524.1" x2="1142.45" y2="518.52"/>
      <line class="cls-9" x1="1220.01" y1="524.1" x2="1220.01" y2="518.52"/>
      <line class="cls-9" x1="1297.56" y1="524.1" x2="1297.56" y2="518.52"/>
      <line class="cls-9" x1="1375.11" y1="524.1" x2="1375.11" y2="518.52"/>
      <line class="cls-9" x1="1452.66" y1="524.1" x2="1452.66" y2="518.52"/>
      <text class="cls-11" transform="translate(1135.78 540.14)"><tspan x="0" y="0" xml:space="preserve"> 0</tspan></text>
      <text class="cls-11" transform="translate(1213.33 540.14)"><tspan x="0" y="0" xml:space="preserve"> 6</tspan></text>
      <text class="cls-11" transform="translate(1288.66 540.14)"><tspan x="0" y="0">12</tspan></text>
      <text class="cls-11" transform="translate(1366.21 540.14)"><tspan x="0" y="0">18</tspan></text>
      <text class="cls-11" transform="translate(1443.76 540.14)"><tspan x="0" y="0">24</tspan></text>
      <line class="cls-9" x1="1475.14" y1="518.52" x2="1816.37" y2="518.52"/>
      <line class="cls-9" x1="1490.66" y1="524.1" x2="1490.66" y2="518.52"/>
      <line class="cls-9" x1="1568.21" y1="524.1" x2="1568.21" y2="518.52"/>
      <line class="cls-9" x1="1645.76" y1="524.1" x2="1645.76" y2="518.52"/>
      <line class="cls-9" x1="1723.31" y1="524.1" x2="1723.31" y2="518.52"/>
      <line class="cls-9" x1="1800.86" y1="524.1" x2="1800.86" y2="518.52"/>
      <text class="cls-11" transform="translate(1483.98 540.14)"><tspan x="0" y="0" xml:space="preserve"> 0</tspan></text>
      <text class="cls-11" transform="translate(1561.54 540.14)"><tspan x="0" y="0" xml:space="preserve"> 6</tspan></text>
      <text class="cls-11" transform="translate(1636.86 540.14)"><tspan x="0" y="0">12</tspan></text>
      <text class="cls-11" transform="translate(1714.41 540.14)"><tspan x="0" y="0">18</tspan></text>
      <text class="cls-11" transform="translate(1791.97 540.14)"><tspan x="0" y="0">24</tspan></text>
      <line class="cls-9" x1="1823.35" y1="518.52" x2="2164.57" y2="518.52"/>
      <line class="cls-9" x1="1838.86" y1="524.1" x2="1838.86" y2="518.52"/>
      <line class="cls-9" x1="1916.41" y1="524.1" x2="1916.41" y2="518.52"/>
      <line class="cls-9" x1="1993.96" y1="524.1" x2="1993.96" y2="518.52"/>
      <line class="cls-9" x1="2071.51" y1="524.1" x2="2071.51" y2="518.52"/>
      <line class="cls-9" x1="2149.06" y1="524.1" x2="2149.06" y2="518.52"/>
      <text class="cls-11" transform="translate(1832.19 540.14)"><tspan x="0" y="0" xml:space="preserve"> 0</tspan></text>
      <text class="cls-11" transform="translate(1909.74 540.14)"><tspan x="0" y="0" xml:space="preserve"> 6</tspan></text>
      <text class="cls-11" transform="translate(1985.06 540.14)"><tspan x="0" y="0">12</tspan></text>
      <text class="cls-11" transform="translate(2062.62 540.14)"><tspan x="0" y="0">18</tspan></text>
      <text class="cls-11" transform="translate(2140.17 540.14)"><tspan x="0" y="0">24</tspan></text>
      <line class="cls-9" x1="82.34" y1="270.97" x2="82.34" y2="30.38"/>
      <text class="cls-11" transform="translate(51.89 265.77)"><tspan x="0" y="0">0%</tspan></text>
      <text class="cls-11" transform="translate(43 211.1)"><tspan x="0" y="0">25%</tspan></text>
      <text class="cls-11" transform="translate(43 156.42)"><tspan x="0" y="0">50%</tspan></text>
      <text class="cls-11" transform="translate(43 101.74)"><tspan x="0" y="0">75%</tspan></text>
      <text class="cls-11" transform="translate(34.1 47.06)"><tspan x="0" y="0">100%</tspan></text>
      <line class="cls-9" x1="76.76" y1="260.03" x2="82.34" y2="260.03"/>
      <line class="cls-9" x1="76.76" y1="205.35" x2="82.34" y2="205.35"/>
      <line class="cls-9" x1="76.76" y1="150.67" x2="82.34" y2="150.67"/>
      <line class="cls-9" x1="76.76" y1="96" x2="82.34" y2="96"/>
      <line class="cls-9" x1="76.76" y1="41.32" x2="82.34" y2="41.32"/>
      <line class="cls-9" x1="82.34" y1="518.52" x2="82.34" y2="277.94"/>
      <text class="cls-11" transform="translate(51.89 513.33)"><tspan x="0" y="0">0%</tspan></text>
      <text class="cls-11" transform="translate(43 458.65)"><tspan x="0" y="0">25%</tspan></text>
      <text class="cls-11" transform="translate(43 403.97)"><tspan x="0" y="0">50%</tspan></text>
      <text class="cls-11" transform="translate(43 349.3)"><tspan x="0" y="0">75%</tspan></text>
      <text class="cls-11" transform="translate(34.1 294.62)"><tspan x="0" y="0">100%</tspan></text>
      <line class="cls-9" x1="76.76" y1="507.59" x2="82.34" y2="507.59"/>
      <line class="cls-9" x1="76.76" y1="452.91" x2="82.34" y2="452.91"/>
      <line class="cls-9" x1="76.76" y1="398.23" x2="82.34" y2="398.23"/>
      <line class="cls-9" x1="76.76" y1="343.55" x2="82.34" y2="343.55"/>
      <line class="cls-9" x1="76.76" y1="288.87" x2="82.34" y2="288.87"/>
      <text class="cls-12" transform="translate(1086.24 564.63)"><tspan x="0" y="0">Time (h)</tspan></text>
      <text class="cls-12" transform="translate(21.33 348.92) rotate(-90)"><tspan x="0" y="0">% Flies Sleeping</tspan></text>
      <rect class="cls-24" x="2232.31" y="257.17" width="25.11" height="17.28"/>
      <line class="cls-8" x1="2234.83" y1="265.81" x2="2254.91" y2="265.81"/>
      <rect class="cls-23" x="2232.31" y="274.45" width="25.11" height="17.28"/>
      <line class="cls-6" x1="2234.83" y1="283.09" x2="2254.91" y2="283.09"/>
      <text class="cls-11" transform="translate(2262.9 271.56)"><tspan x="0" y="0">G</tspan><tspan class="cls-27" x="12.45" y="0">r</tspan><tspan x="18.24" y="0">p</tspan></text>
      <text class="cls-11" transform="translate(2262.9 288.84)"><tspan x="0" y="0">Iso</tspan></text>
    </g>
  </g>
</svg>