<?xml version="1.0" encoding="UTF-8"?>
<svg xmlns="http://www.w3.org/2000/svg" version="1.1" xmlns:xlink="http://www.w3.org/1999/xlink" viewBox="0 0 2304 360">
  <defs>
    <style>
      .cls-1 {
        clip-path: url(#clippath-6);
      }

      .cls-2 {
        clip-path: url(#clippath-7);
      }

      .cls-3 {
        clip-path: url(#clippath-4);
      }

      .cls-4 {
        clip-path: url(#clippath-22);
      }

      .cls-5 {
        stroke: red;
      }

      .cls-5, .cls-6, .cls-7, .cls-8, .cls-9 {
        fill: none;
      }

      .cls-5, .cls-7, .cls-8 {
        stroke-width: 2.13px;
      }

      .cls-5, .cls-7, .cls-8, .cls-9 {
        stroke-linejoin: round;
      }

      .cls-10 {
        font-size: 16px;
      }

      .cls-10, .cls-11 {
        font-family: ArialMT, Arial;
      }

      .cls-12 {
        clip-path: url(#clippath-10);
      }

      .cls-13 {
        fill: #fff;
      }

      .cls-14 {
        clip-path: url(#clippath-25);
      }

      .cls-15 {
        clip-path: url(#clippath-1);
      }

      .cls-11 {
        font-size: 20px;
      }

      .cls-16 {
        fill: red;
      }

      .cls-16, .cls-17 {
        opacity: .4;
      }

      .cls-18 {
        clip-path: url(#clippath-5);
      }

      .cls-7 {
        stroke: blue;
      }

      .cls-19 {
        letter-spacing: .03em;
      }

      .cls-20 {
        clip-path: url(#clippath-3);
      }

      .cls-17 {
        fill: blue;
      }

      .cls-21 {
        clip-path: url(#clippath-19);
      }

      .cls-8 {
        stroke-linecap: square;
      }

      .cls-8, .cls-9 {
        stroke: #000;
      }

      .cls-22 {
        clip-path: url(#clippath-16);
      }

      .cls-23 {
        clip-path: url(#clippath-2);
      }

      .cls-9 {
        stroke-width: 1.07px;
      }

      .cls-24 {
        clip-path: url(#clippath-13);
      }

      .cls-25 {
        clip-path: url(#clippath);
      }
    </style>
    <clipPath id="clippath">
      <rect class="cls-6" width="2304" height="360"/>
    </clipPath>
    <clipPath id="clippath-1">
      <rect class="cls-6" x="68.11" y="30.38" width="347.5" height="272.14"/>
    </clipPath>
    <clipPath id="clippath-2">
      <rect class="cls-6" x="422.59" y="30.38" width="347.5" height="272.14"/>
    </clipPath>
    <clipPath id="clippath-3">
      <rect class="cls-6" x="777.06" y="30.38" width="347.5" height="272.14"/>
    </clipPath>
    <clipPath id="clippath-4">
      <rect class="cls-6" x="1131.54" y="30.38" width="347.5" height="272.14"/>
    </clipPath>
    <clipPath id="clippath-5">
      <rect class="cls-6" x="1486.01" y="30.38" width="347.5" height="272.14"/>
    </clipPath>
    <clipPath id="clippath-6">
      <rect class="cls-6" x="1840.48" y="30.38" width="347.5" height="272.14"/>
    </clipPath>
    <clipPath id="clippath-7">
      <rect class="cls-6" x="68.11" y="6.97" width="347.5" height="23.41"/>
    </clipPath>
    <clipPath id="clippath-10">
      <rect class="cls-6" x="422.59" y="6.97" width="347.5" height="23.41"/>
    </clipPath>
    <clipPath id="clippath-13">
      <rect class="cls-6" x="777.06" y="6.97" width="347.5" height="23.41"/>
    </clipPath>
    <clipPath id="clippath-16">
      <rect class="cls-6" x="1131.54" y="6.97" width="347.5" height="23.41"/>
    </clipPath>
    <clipPath id="clippath-19">
      <rect class="cls-6" x="1486.01" y="6.97" width="347.5" height="23.41"/>
    </clipPath>
    <clipPath id="clippath-22">
      <rect class="cls-6" x="1840.48" y="6.97" width="347.5" height="23.41"/>
    </clipPath>
    <clipPath id="clippath-25">
      <rect class="cls-6" x="2187.98" y="30.38" width="23.41" height="272.14"/>
    </clipPath>
  </defs>
  <!-- Generator: Adobe Illustrator 28.7.7, SVG Export Plug-In . SVG Version: 1.2.0 Build 194)  -->
  <g>
    <g id="Layer_1">
      <g class="cls-25">
        <rect class="cls-13" width="2304" height="360"/>
      </g>
      <g class="cls-15">
        <polygon class="cls-17" points="83.91 287.19 90.49 285.36 97.07 284.47 103.65 277.86 110.23 278.15 116.82 276.43 123.4 275.88 129.98 272.19 136.56 269.46 143.14 270.4 149.72 270.24 156.3 266.61 162.89 270.95 169.47 271.9 176.05 270.79 182.63 274.39 189.21 278.47 195.79 278.53 202.37 280.76 208.96 281.86 215.54 281.94 222.12 286.09 228.7 285.08 235.28 288.51 241.86 288.92 248.44 84.13 255.03 141.59 261.61 204.43 268.19 262.5 274.77 196.63 281.35 235.03 287.93 253.63 294.51 247.85 301.1 204.26 307.68 250.46 314.26 240.55 320.84 250.63 327.42 260.13 334 249.77 340.58 212.75 347.17 245.72 353.75 248.8 360.33 251.15 366.91 239.31 373.49 255.23 380.07 251.27 386.65 258.42 393.24 278.2 393.24 282.24 386.65 265.16 380.07 262.63 373.49 267.95 366.91 254.58 360.33 262.5 353.75 263.37 347.17 260.09 340.58 238.22 334 260.76 327.42 269.41 320.84 269.43 314.26 257.44 307.68 264.33 301.1 253.48 294.51 267.32 287.93 267.42 281.35 260.34 274.77 239.96 268.19 273.43 261.61 236.39 255.03 184.32 248.44 170.32 241.86 290.15 235.28 289.33 228.7 287.32 222.12 287.31 215.54 284.14 208.96 284.07 202.37 283.17 195.79 280.86 189.21 281.12 182.63 278.47 176.05 275.05 169.47 275.55 162.89 275.81 156.3 274.62 149.72 274.31 143.14 275.43 136.56 273.38 129.98 275.61 123.4 278.56 116.82 279.19 110.23 281.48 103.65 281.65 97.07 286.05 90.49 286.86 83.91 288.12 83.91 287.19"/>
        <polyline class="cls-7" points="83.91 287.65 90.49 286.11 97.07 285.26 103.65 279.75 110.23 279.82 116.82 277.81 123.4 277.22 129.98 273.9 136.56 271.42 143.14 272.92 149.72 272.28 156.3 270.61 162.89 273.38 169.47 273.72 176.05 272.92 182.63 276.43 189.21 279.79 195.79 279.69 202.37 281.97 208.96 282.97 215.54 283.04 222.12 286.7 228.7 286.2 235.28 288.92 241.86 289.54 248.44 127.23 255.03 162.95 261.61 220.41 268.19 267.97 274.77 218.3 281.35 247.69 287.93 260.53 294.51 257.59 301.1 228.87 307.68 257.4 314.26 248.99 320.84 260.03 327.42 264.77 334 255.26 340.58 225.48 347.17 252.91 353.75 256.09 360.33 256.82 366.91 246.95 373.49 261.59 380.07 256.95 386.65 261.79 393.24 280.22"/>
        <polygon class="cls-16" points="83.91 286.94 90.49 287.03 97.07 281.82 103.65 285.24 110.23 283.05 116.82 277.27 123.4 263.47 129.98 271.67 136.56 259.2 143.14 263.6 149.72 269.3 156.3 256.99 162.89 268.66 169.47 270.79 176.05 271.01 182.63 274.3 189.21 277.95 195.79 277.54 202.37 279.24 208.96 281.4 215.54 284.14 222.12 285.59 228.7 286.21 235.28 288.47 241.86 108.43 248.44 164.17 255.03 78.22 261.61 201.48 268.19 250.05 274.77 209.97 281.35 259.21 287.93 247.71 294.51 240.49 301.1 253.13 307.68 252.84 314.26 248.63 320.84 234.77 327.42 217.98 334 245.63 340.58 241.54 347.17 219.33 353.75 244.05 360.33 227.22 366.91 251.66 373.49 247.04 380.07 244.44 386.65 249.2 393.24 276.19 393.24 280.6 386.65 258.7 380.07 254.68 373.49 264.36 366.91 265.96 360.33 245.55 353.75 258.7 347.17 248.29 340.58 256.39 334 258.37 327.42 253.78 320.84 255.05 314.26 262.5 307.68 261.44 301.1 266.98 294.51 262.66 287.93 265.45 281.35 268.56 274.77 258.85 268.19 267.44 261.61 236.11 255.03 165.73 248.44 225.12 241.86 282.78 235.28 289.03 228.7 287.68 222.12 286.7 215.54 285.28 208.96 283.29 202.37 281.94 195.79 280.14 189.21 280.71 182.63 276.95 176.05 276.21 169.47 275.47 162.89 275.89 156.3 268.17 149.72 274.58 143.14 272.01 136.56 272.68 129.98 276 123.4 275.89 116.82 280.39 110.23 285.2 103.65 286.73 97.07 285.84 90.49 288.35 83.91 287.82 83.91 286.94"/>
        <polyline class="cls-5" points="83.91 287.38 90.49 287.69 97.07 283.83 103.65 285.99 110.23 284.12 116.82 278.83 123.4 269.68 129.98 273.84 136.56 265.94 143.14 267.81 149.72 271.94 156.3 262.58 162.89 272.27 169.47 273.13 176.05 273.61 182.63 275.62 189.21 279.33 195.79 278.84 202.37 280.59 208.96 282.34 215.54 284.71 222.12 286.15 228.7 286.95 235.28 288.75 241.86 195.61 248.44 194.65 255.03 121.97 261.61 218.8 268.19 258.74 274.77 234.41 281.35 263.89 287.93 256.58 294.51 251.58 301.1 260.05 307.68 257.14 314.26 255.57 320.84 244.91 327.42 235.88 334 252 340.58 248.97 347.17 233.81 353.75 251.37 360.33 236.38 366.91 258.81 373.49 255.7 380.07 249.56 386.65 253.95 393.24 278.39"/>
        <rect class="cls-13" x="83.91" y="294.36" width="157.95" height="8.16"/>
        <rect class="cls-9" x="83.91" y="294.36" width="157.95" height="8.16"/>
        <rect x="241.86" y="294.36" width="151.37" height="8.16"/>
        <rect class="cls-9" x="241.86" y="294.36" width="151.37" height="8.16"/>
        <rect class="cls-13" x="83.91" y="294.36" width="157.95" height="8.16"/>
        <rect class="cls-9" x="83.91" y="294.36" width="157.95" height="8.16"/>
        <rect x="241.86" y="294.36" width="151.37" height="8.16"/>
        <rect class="cls-9" x="241.86" y="294.36" width="151.37" height="8.16"/>
      </g>
      <g class="cls-23">
        <polygon class="cls-17" points="438.38 286.34 444.96 269.41 451.55 262.81 458.13 215.73 464.71 221.24 471.29 235.87 477.87 240.45 484.45 226.84 491.03 219.77 497.62 227.34 504.2 206.83 510.78 239.52 517.36 225.38 523.94 244.76 530.52 242.97 537.1 242.02 543.69 239.34 550.27 249.62 556.85 247.25 563.43 264.25 570.01 263.5 576.59 269.04 583.17 273.92 589.76 267.81 596.34 62.83 602.92 42.75 609.5 168.32 616.08 120.38 622.66 110.86 629.24 74.66 635.83 106.31 642.41 209.51 648.99 70.99 655.57 154.85 662.15 190.51 668.73 220.3 675.31 174.62 681.9 242.57 688.48 225.21 695.06 243.3 701.64 226.17 708.22 250.1 714.8 240.85 721.38 245.33 727.97 254.54 734.55 250.52 741.13 256.12 747.71 276.39 747.71 280.73 741.13 264.68 734.55 264.9 727.97 263.87 721.38 261.95 714.8 257.73 708.22 263.23 701.64 254.82 695.06 256.78 688.48 263.49 681.9 252.27 675.31 230.53 668.73 245.66 662.15 252.36 655.57 220.49 648.99 210.58 642.41 253.44 635.83 199.69 629.24 195.33 622.66 202.67 616.08 231.35 609.5 251.95 602.92 232.29 596.34 123.56 589.76 284.28 583.17 278.82 576.59 274.75 570.01 269.65 563.43 272.76 556.85 256.06 550.27 261.9 543.69 252.96 537.1 254.27 530.52 256.2 523.94 254.98 517.36 245.04 510.78 253.24 504.2 238.24 497.62 247.8 491.03 245.78 484.45 249.06 477.87 260.1 471.29 249.4 464.71 249.72 458.13 249.76 451.55 271.72 444.96 280.09 438.38 287.15 438.38 286.34"/>
        <polyline class="cls-7" points="438.38 286.75 444.96 274.75 451.55 267.26 458.13 232.75 464.71 235.48 471.29 242.63 477.87 250.28 484.45 237.95 491.03 232.78 497.62 237.57 504.2 222.54 510.78 246.38 517.36 235.21 523.94 249.87 530.52 249.58 537.1 248.14 543.69 246.15 550.27 255.76 556.85 251.66 563.43 268.5 570.01 266.58 576.59 271.89 583.17 276.37 589.76 276.04 596.34 93.19 602.92 137.52 609.5 210.14 616.08 175.87 622.66 156.76 629.24 134.99 635.83 153 642.41 231.48 648.99 140.79 655.57 187.67 662.15 221.44 668.73 232.98 675.31 202.57 681.9 247.42 688.48 244.35 695.06 250.04 701.64 240.5 708.22 256.67 714.8 249.29 721.38 253.64 727.97 259.21 734.55 257.71 741.13 260.4 747.71 278.56"/>
        <polygon class="cls-16" points="438.38 282.85 444.96 275.29 451.55 251.47 458.13 251.53 464.71 258.12 471.29 239.24 477.87 209.93 484.45 228.91 491.03 245.64 497.62 232.22 504.2 207.23 510.78 217.12 517.36 233.37 523.94 233.37 530.52 230.29 537.1 246.91 543.69 249.88 550.27 234.75 556.85 246.67 563.43 261.93 570.01 262.99 576.59 264.28 583.17 278.79 589.76 283.74 596.34 94.09 602.92 152.6 609.5 179.49 616.08 167.81 622.66 236.12 629.24 133.76 635.83 201.27 642.41 193.18 648.99 245.86 655.57 212.93 662.15 229.74 668.73 227.54 675.31 221.91 681.9 230.06 688.48 225.35 695.06 203.3 701.64 222.01 708.22 238.57 714.8 254.61 721.38 244.01 727.97 240.74 734.55 247.16 741.13 254.8 747.71 271.82 747.71 276.91 741.13 265.27 734.55 259.03 727.97 256.56 721.38 260.54 714.8 267.84 708.22 257.75 701.64 246.83 695.06 249.42 688.48 247.31 681.9 251.87 675.31 248.44 668.73 253.86 662.15 265.78 655.57 244.37 648.99 264.37 642.41 246.65 635.83 228.75 629.24 215.85 622.66 255 616.08 248.45 609.5 249.53 602.92 229.85 596.34 156.22 589.76 285.7 583.17 282.71 576.59 272.36 570.01 271.12 563.43 269.73 556.85 265.45 550.27 248.82 543.69 262.45 537.1 263.88 530.52 247.73 523.94 252.48 517.36 250.38 510.78 244.85 504.2 233.92 497.62 255.08 491.03 266.76 484.45 248.14 477.87 240.3 471.29 260.98 464.71 268.57 458.13 270.09 451.55 273.61 444.96 283 438.38 285.73 438.38 282.85"/>
        <polyline class="cls-5" points="438.38 284.29 444.96 279.14 451.55 262.54 458.13 260.81 464.71 263.35 471.29 250.11 477.87 225.12 484.45 238.53 491.03 256.2 497.62 243.65 504.2 220.58 510.78 230.99 517.36 241.87 523.94 242.92 530.52 239.01 537.1 255.39 543.69 256.16 550.27 241.79 556.85 256.06 563.43 265.83 570.01 267.06 576.59 268.32 583.17 280.75 589.76 284.72 596.34 125.16 602.92 191.22 609.5 214.51 616.08 208.13 622.66 245.56 629.24 174.81 635.83 215.01 642.41 219.92 648.99 255.12 655.57 228.65 662.15 247.76 668.73 240.7 675.31 235.17 681.9 240.96 688.48 236.33 695.06 226.36 701.64 234.42 708.22 248.16 714.8 261.22 721.38 252.28 727.97 248.65 734.55 253.09 741.13 260.04 747.71 274.37"/>
        <rect class="cls-13" x="438.38" y="294.36" width="157.95" height="8.16"/>
        <rect class="cls-9" x="438.38" y="294.36" width="157.95" height="8.16"/>
        <rect x="596.34" y="294.36" width="151.37" height="8.16"/>
        <rect class="cls-9" x="596.34" y="294.36" width="151.37" height="8.16"/>
        <rect class="cls-13" x="438.38" y="294.36" width="157.95" height="8.16"/>
        <rect class="cls-9" x="438.38" y="294.36" width="157.95" height="8.16"/>
        <rect x="596.34" y="294.36" width="151.37" height="8.16"/>
        <rect class="cls-9" x="596.34" y="294.36" width="151.37" height="8.16"/>
      </g>
      <g class="cls-20">
        <polygon class="cls-17" points="792.86 287.88 799.44 283.57 806.02 271.39 812.6 268.4 819.18 260.63 825.76 238.81 832.35 232.74 838.93 254.92 845.51 253.8 852.09 246.23 858.67 249.07 865.25 250 871.83 257.17 878.42 241.87 885 257.19 891.58 263.48 898.16 262.08 904.74 259.16 911.32 267.85 917.9 270.19 924.49 268.89 931.07 276.51 937.65 283.97 944.23 286.43 950.81 159.98 957.39 226 963.97 252.46 970.56 216.16 977.14 222.85 983.72 227.49 990.3 229.78 996.88 224.11 1003.46 229.26 1010.04 230.95 1016.63 246.88 1023.21 225.79 1029.79 230.29 1036.37 239.18 1042.95 219.86 1049.53 228.46 1056.11 248.68 1062.7 247.95 1069.28 251.33 1075.86 250.4 1082.44 254.55 1089.02 256.91 1095.6 258.97 1102.18 276.67 1102.18 279.86 1095.6 266.66 1089.02 265.5 1082.44 266.14 1075.86 266.08 1069.28 267.51 1062.7 268.41 1056.11 260.55 1049.53 247.54 1042.95 252.13 1036.37 253.59 1029.79 248.44 1023.21 245.08 1016.63 263.15 1010.04 247.68 1003.46 253.22 996.88 243.31 990.3 255.59 983.72 249.5 977.14 249.79 970.56 243.24 963.97 265.88 957.39 254.21 950.81 201.87 944.23 287.48 937.65 285.86 931.07 280.52 924.49 274.42 917.9 276.13 911.32 273.52 904.74 266.37 898.16 271.56 891.58 271.68 885 265.37 878.42 258.75 871.83 266.22 865.25 264.94 858.67 260.26 852.09 261.9 845.51 260.36 838.93 264.19 832.35 268.18 825.76 257.84 819.18 271.07 812.6 277.23 806.02 279.66 799.44 287.31 792.86 288.55 792.86 287.88"/>
        <polyline class="cls-7" points="792.86 288.22 799.44 285.44 806.02 275.53 812.6 272.81 819.18 265.85 825.76 248.33 832.35 250.46 838.93 259.56 845.51 257.08 852.09 254.07 858.67 254.67 865.25 257.47 871.83 261.69 878.42 250.31 885 261.28 891.58 267.58 898.16 266.82 904.74 262.76 911.32 270.69 917.9 273.16 924.49 271.66 931.07 278.52 937.65 284.91 944.23 286.96 950.81 180.93 957.39 240.1 963.97 259.17 970.56 229.7 977.14 236.32 983.72 238.5 990.3 242.68 996.88 233.71 1003.46 241.24 1010.04 239.32 1016.63 255.02 1023.21 235.43 1029.79 239.36 1036.37 246.38 1042.95 235.99 1049.53 238 1056.11 254.62 1062.7 258.18 1069.28 259.42 1075.86 258.24 1082.44 260.34 1089.02 261.21 1095.6 262.81 1102.18 278.26"/>
        <polygon class="cls-16" points="792.86 282.71 799.44 285.49 806.02 285.81 812.6 274.08 819.18 259.62 825.76 268.84 832.35 263.28 838.93 259.45 845.51 252.78 852.09 252.74 858.67 258.31 865.25 247.6 871.83 255.67 878.42 251.79 885 253.41 891.58 267.69 898.16 266.47 904.74 263.68 911.32 259.4 917.9 267.04 924.49 267.42 931.07 278.74 937.65 281.34 944.23 283.61 950.81 231.78 957.39 233.93 963.97 232.47 970.56 241.06 977.14 247.01 983.72 210.3 990.3 217.85 996.88 245.22 1003.46 233.09 1010.04 216.02 1016.63 251.95 1023.21 238.68 1029.79 237.85 1036.37 214.22 1042.95 231.87 1049.53 249.1 1056.11 242.46 1062.7 251.17 1069.28 257.55 1075.86 248.73 1082.44 255.75 1089.02 262.83 1095.6 265.06 1102.18 279.07 1102.18 282.56 1095.6 270.75 1089.02 270.57 1082.44 269.27 1075.86 266.52 1069.28 271.05 1062.7 261.62 1056.11 261.81 1049.53 263.5 1042.95 259.6 1036.37 245.74 1029.79 253.45 1023.21 259.83 1016.63 266.85 1010.04 244.97 1003.46 258.44 996.88 260.23 990.3 247.17 983.72 256.31 977.14 259.45 970.56 264.09 963.97 252.22 957.39 256.1 950.81 258.47 944.23 286.13 937.65 284.65 931.07 282.24 924.49 275.67 917.9 273.24 911.32 269.97 904.74 271.39 898.16 273.49 891.58 274.83 885 264.2 878.42 263.61 871.83 265.58 865.25 262.51 858.67 266.26 852.09 262.26 845.51 265.42 838.93 268.88 832.35 272.8 825.76 274.89 819.18 275.76 812.6 281.95 806.02 287.14 799.44 287.5 792.86 285.85 792.86 282.71"/>
        <polyline class="cls-5" points="792.86 284.28 799.44 286.5 806.02 286.47 812.6 278.01 819.18 267.69 825.76 271.87 832.35 268.04 838.93 264.17 845.51 259.1 852.09 257.5 858.67 262.29 865.25 255.06 871.83 260.62 878.42 257.7 885 258.81 891.58 271.26 898.16 269.98 904.74 267.53 911.32 264.69 917.9 270.14 924.49 271.55 931.07 280.49 937.65 283 944.23 284.87 950.81 245.12 957.39 245.02 963.97 242.34 970.56 252.57 977.14 253.23 983.72 233.31 990.3 232.51 996.88 252.72 1003.46 245.76 1010.04 230.49 1016.63 259.4 1023.21 249.26 1029.79 245.65 1036.37 229.98 1042.95 245.74 1049.53 256.3 1056.11 252.13 1062.7 256.39 1069.28 264.3 1075.86 257.62 1082.44 262.51 1089.02 266.7 1095.6 267.91 1102.18 280.82"/>
        <rect class="cls-13" x="792.86" y="294.36" width="157.95" height="8.16"/>
        <rect class="cls-9" x="792.86" y="294.36" width="157.95" height="8.16"/>
        <rect x="950.81" y="294.36" width="151.37" height="8.16"/>
        <rect class="cls-9" x="950.81" y="294.36" width="151.37" height="8.16"/>
        <rect class="cls-13" x="792.86" y="294.36" width="157.95" height="8.16"/>
        <rect class="cls-9" x="792.86" y="294.36" width="157.95" height="8.16"/>
        <rect x="950.81" y="294.36" width="151.37" height="8.16"/>
        <rect class="cls-9" x="950.81" y="294.36" width="151.37" height="8.16"/>
      </g>
      <g class="cls-3">
        <polygon class="cls-17" points="1147.33 275.88 1153.91 268.67 1160.49 269.77 1167.08 263.67 1173.66 257.63 1180.24 268.31 1186.82 247.84 1193.4 241.67 1199.98 246.08 1206.56 265.23 1213.15 253.26 1219.73 251.04 1226.31 246.92 1232.89 259.21 1239.47 264.15 1246.05 255.86 1252.63 265.36 1259.22 262.86 1265.8 275.68 1272.38 270.78 1278.96 273.25 1285.54 274.67 1292.12 271.52 1298.7 278.03 1311.87 109.66 1318.45 234.13 1325.03 67.95 1331.61 236.44 1338.19 264.77 1344.77 219.1 1351.36 166.46 1357.94 276.72 1364.52 236.29 1371.1 270.44 1377.68 254.2 1384.26 262.68 1390.84 257.23 1397.43 239.24 1404.01 204.76 1410.59 225.28 1417.17 249.19 1423.75 201.79 1430.33 222.82 1436.91 262.61 1443.5 246.86 1450.08 255.11 1456.66 281.76 1456.66 284.58 1450.08 278.12 1443.5 275.97 1436.91 275.94 1430.33 265.57 1423.75 282.41 1417.17 266.18 1410.59 270.13 1404.01 250.14 1397.43 280.18 1390.84 274.13 1384.26 274.49 1377.68 277.11 1371.1 277.11 1364.52 255.85 1357.94 283.12 1351.36 219.43 1344.77 274.44 1338.19 280.08 1331.61 264.43 1325.03 260.39 1318.45 281.87 1311.87 192.54 1298.7 286.47 1292.12 282.31 1285.54 284.92 1278.96 285.57 1272.38 280.35 1265.8 283.97 1259.22 274.46 1252.63 273.47 1246.05 269.43 1239.47 275.49 1232.89 272.04 1226.31 261.84 1219.73 263.26 1213.15 263.12 1206.56 274.65 1199.98 264.67 1193.4 260.64 1186.82 266.31 1180.24 277.35 1173.66 271.04 1167.08 272.71 1160.49 278.1 1153.91 277.01 1147.33 282.7 1147.33 275.88"/>
        <polyline class="cls-7" points="1147.33 279.29 1153.91 272.84 1160.49 273.94 1167.08 268.19 1173.66 264.33 1180.24 272.83 1186.82 257.08 1193.4 251.16 1199.98 255.38 1206.56 269.94 1213.15 258.19 1219.73 257.15 1226.31 254.38 1232.89 265.63 1239.47 269.82 1246.05 262.64 1252.63 269.41 1259.22 268.66 1265.8 279.83 1272.38 275.57 1278.96 279.41 1285.54 279.8 1292.12 276.91 1298.7 282.25 1311.87 151.1 1318.45 258 1325.03 164.17 1331.61 250.44 1338.19 272.42 1344.77 246.77 1351.36 192.95 1357.94 279.92 1364.52 246.07 1371.1 273.78 1377.68 265.65 1384.26 268.59 1390.84 265.68 1397.43 259.71 1404.01 227.45 1410.59 247.7 1417.17 257.68 1423.75 242.1 1430.33 244.19 1436.91 269.28 1443.5 261.41 1450.08 266.62 1456.66 283.17"/>
        <polygon class="cls-16" points="1147.33 275.38 1153.91 276.06 1160.49 275.6 1167.08 273.81 1173.66 271.15 1180.24 267.24 1186.82 259.39 1193.4 261.52 1199.98 266.65 1206.56 255.05 1213.15 265.99 1219.73 248.85 1226.31 261.83 1232.89 274.21 1239.47 275.03 1246.05 273 1252.63 278.12 1259.22 274.47 1265.8 276.84 1272.38 281.97 1278.96 282.43 1285.54 284.42 1292.12 287.28 1298.7 282.78 1305.29 287.7 1311.87 288.92 1318.45 289.18 1325.03 211.59 1331.61 237.05 1338.19 263.29 1344.77 258.76 1351.36 264.5 1357.94 245.83 1364.52 254.87 1371.1 259.41 1377.68 261.32 1384.26 256.4 1390.84 254.41 1397.43 267.27 1404.01 264.72 1410.59 254.17 1417.17 265.1 1423.75 277.29 1430.33 248.77 1436.91 265.11 1443.5 272.36 1450.08 261.82 1456.66 278.25 1456.66 283.49 1450.08 271.76 1443.5 282.19 1436.91 277.52 1430.33 275.25 1423.75 283.81 1417.17 278.06 1410.59 269.14 1404.01 278.41 1397.43 285.71 1390.84 277.2 1384.26 272.51 1377.68 273 1371.1 271.96 1364.52 272.05 1357.94 269.67 1351.36 274.03 1344.77 273.71 1338.19 279.46 1331.61 285.13 1325.03 285.63 1318.45 289.89 1311.87 290.15 1305.29 290.15 1298.7 287.23 1292.12 288.57 1285.54 287.51 1278.96 285.6 1272.38 285.24 1265.8 282.29 1259.22 280.78 1252.63 282.9 1246.05 278.33 1239.47 279.37 1232.89 279.36 1226.31 273.17 1219.73 268.64 1213.15 274.96 1206.56 272.7 1199.98 272.62 1193.4 272.84 1186.82 273.3 1180.24 275.16 1173.66 276.66 1167.08 279.15 1160.49 280.51 1153.91 281.97 1147.33 283.01 1147.33 275.38"/>
        <polyline class="cls-5" points="1147.33 279.2 1153.91 279.01 1160.49 278.06 1167.08 276.48 1173.66 273.91 1180.24 271.2 1186.82 266.35 1193.4 267.18 1199.98 269.63 1206.56 263.87 1213.15 270.48 1219.73 258.75 1226.31 267.5 1232.89 276.78 1239.47 277.2 1246.05 275.67 1252.63 280.51 1259.22 277.62 1265.8 279.56 1272.38 283.6 1278.96 284.02 1285.54 285.96 1292.12 287.93 1298.7 285.01 1305.29 288.92 1311.87 289.54 1318.45 289.54 1325.03 248.61 1331.61 261.09 1338.19 271.37 1344.77 266.24 1351.36 269.27 1357.94 257.75 1364.52 263.46 1371.1 265.68 1377.68 267.16 1384.26 264.45 1390.84 265.81 1397.43 276.49 1404.01 271.57 1410.59 261.65 1417.17 271.58 1423.75 280.55 1430.33 262.01 1436.91 271.31 1443.5 277.28 1450.08 266.79 1456.66 280.87"/>
        <rect class="cls-13" x="1147.33" y="294.36" width="157.95" height="8.16"/>
        <rect class="cls-9" x="1147.33" y="294.36" width="157.95" height="8.16"/>
        <rect x="1305.29" y="294.36" width="151.37" height="8.16"/>
        <rect class="cls-9" x="1305.29" y="294.36" width="151.37" height="8.16"/>
        <rect class="cls-13" x="1147.33" y="294.36" width="157.95" height="8.16"/>
        <rect class="cls-9" x="1147.33" y="294.36" width="157.95" height="8.16"/>
        <rect x="1305.29" y="294.36" width="151.37" height="8.16"/>
        <rect class="cls-9" x="1305.29" y="294.36" width="151.37" height="8.16"/>
      </g>
      <g class="cls-18">
        <polygon class="cls-17" points="1501.81 281.73 1508.39 270.79 1514.97 265.57 1521.55 266.44 1528.13 269.18 1534.71 266.9 1541.29 259.09 1547.88 259.92 1554.46 254.3 1561.04 259.07 1567.62 266.11 1574.2 264.82 1580.78 256.02 1587.36 270.35 1593.95 274.32 1600.53 273.43 1607.11 276.84 1613.69 277.98 1620.27 280.45 1626.85 282.47 1633.43 282.03 1640.02 286.68 1646.6 287.95 1653.18 286.88 1666.34 288.92 1672.92 251.14 1679.5 270.85 1686.09 240.51 1692.67 242.7 1699.25 235.93 1705.83 255.16 1712.41 243.76 1718.99 248.97 1725.57 258.18 1732.16 247.92 1738.74 250.6 1745.32 251.85 1751.9 233.8 1758.48 237.51 1765.06 261.05 1771.64 240.74 1778.23 247.49 1784.81 257.47 1791.39 246.4 1797.97 251.77 1804.55 272.59 1811.13 278.16 1811.13 282.34 1804.55 279.86 1797.97 267.12 1791.39 265.55 1784.81 271.88 1778.23 259.35 1771.64 260.36 1765.06 269.98 1758.48 258.16 1751.9 260.11 1745.32 272.11 1738.74 269.19 1732.16 264.11 1725.57 271.34 1718.99 269.05 1712.41 263.66 1705.83 267.71 1699.25 259.59 1692.67 267.23 1686.09 264.73 1679.5 280.06 1672.92 275.46 1666.34 290.15 1653.18 290.15 1646.6 289.49 1640.02 288.46 1633.43 285.47 1626.85 285.66 1620.27 284.58 1613.69 282.15 1607.11 279.81 1600.53 278.36 1593.95 278.4 1587.36 276.91 1580.78 265.45 1574.2 270.33 1567.62 273.24 1561.04 269.27 1554.46 265.3 1547.88 268.32 1541.29 267.37 1534.71 272.61 1528.13 275.17 1521.55 273.58 1514.97 273.75 1508.39 277.5 1501.81 285.55 1501.81 281.73"/>
        <polyline class="cls-7" points="1501.81 283.64 1508.39 274.14 1514.97 269.66 1521.55 270.01 1528.13 272.18 1534.71 269.75 1541.29 263.23 1547.88 264.12 1554.46 259.8 1561.04 264.17 1567.62 269.67 1574.2 267.57 1580.78 260.73 1587.36 273.63 1593.95 276.36 1600.53 275.9 1607.11 278.33 1613.69 280.06 1620.27 282.52 1626.85 284.07 1633.43 283.75 1640.02 287.57 1646.6 288.72 1653.18 288.51 1666.34 289.54 1672.92 263.3 1679.5 275.46 1686.09 252.62 1692.67 254.97 1699.25 247.76 1705.83 261.44 1712.41 253.71 1718.99 259.01 1725.57 264.76 1732.16 256.01 1738.74 259.89 1745.32 261.98 1751.9 246.95 1758.48 247.83 1765.06 265.51 1771.64 250.55 1778.23 253.42 1784.81 264.67 1791.39 255.98 1797.97 259.44 1804.55 276.22 1811.13 280.25"/>
        <polygon class="cls-16" points="1501.81 284.74 1508.39 276.77 1514.97 272.75 1521.55 267.34 1528.13 262.4 1534.71 263.08 1541.29 264.69 1547.88 267.55 1554.46 264.01 1561.04 269.17 1567.62 269.73 1574.2 264.63 1580.78 273.27 1587.36 276.08 1593.95 266.84 1600.53 274.46 1607.11 278.84 1613.69 275.09 1620.27 280.14 1626.85 283.15 1633.43 284.93 1640.02 288.63 1646.6 285.24 1653.18 288.92 1653.18 290.15 1646.6 288.51 1640.02 289.58 1633.43 286.97 1626.85 285.82 1620.27 284.12 1613.69 281.19 1607.11 282.59 1600.53 278.65 1593.95 273.43 1587.36 279.95 1580.78 276.48 1574.2 273.58 1567.62 275.1 1561.04 275.78 1554.46 272.5 1547.88 274.42 1541.29 274.73 1534.71 273.76 1528.13 274.09 1521.55 276.98 1514.97 280.81 1508.39 282.33 1501.81 288.49 1501.81 284.74"/>
        <polygon class="cls-16" points="1666.34 259.78 1672.92 245.15 1679.5 240.69 1686.09 250.74 1692.67 247.66 1699.25 225.41 1705.83 230.06 1712.41 261.09 1718.99 225.13 1725.57 238.92 1732.16 235.35 1738.74 228.32 1745.32 266.06 1751.9 228.06 1758.48 206.55 1765.06 241.95 1771.64 233.51 1778.23 239.38 1784.81 271.89 1791.39 231.94 1797.97 263.6 1804.55 267.6 1811.13 277.74 1811.13 281.68 1804.55 276.11 1797.97 275.14 1791.39 253.38 1784.81 278.18 1778.23 262.14 1771.64 251.56 1765.06 260.86 1758.48 238.47 1751.9 251.82 1745.32 273.07 1738.74 256.63 1732.16 257.85 1725.57 254.2 1718.99 250.95 1712.41 270.51 1705.83 249.69 1699.25 249.9 1692.67 269.05 1686.09 268.61 1679.5 269.98 1672.92 277.99 1666.34 281.57 1666.34 259.78"/>
        <polyline class="cls-5" points="1501.81 286.61 1508.39 279.55 1514.97 276.78 1521.55 272.16 1528.13 268.25 1534.71 268.42 1541.29 269.71 1547.88 270.99 1554.46 268.26 1561.04 272.47 1567.62 272.41 1574.2 269.11 1580.78 274.87 1587.36 278.01 1593.95 270.14 1600.53 276.56 1607.11 280.72 1613.69 278.14 1620.27 282.13 1626.85 284.48 1633.43 285.95 1640.02 289.11 1646.6 286.88 1653.18 289.54 1659.76 275.42 1666.34 270.68 1672.92 261.57 1679.5 255.34 1686.09 259.67 1692.67 258.35 1699.25 237.66 1705.83 239.87 1712.41 265.8 1718.99 238.04 1725.57 246.56 1732.16 246.6 1738.74 242.48 1745.32 269.56 1751.9 239.94 1758.48 222.51 1765.06 251.4 1771.64 242.54 1778.23 250.76 1784.81 275.03 1791.39 242.66 1797.97 269.37 1804.55 271.86 1811.13 279.71"/>
        <rect class="cls-13" x="1501.81" y="294.36" width="157.95" height="8.16"/>
        <rect class="cls-9" x="1501.81" y="294.36" width="157.95" height="8.16"/>
        <rect x="1659.76" y="294.36" width="151.37" height="8.16"/>
        <rect class="cls-9" x="1659.76" y="294.36" width="151.37" height="8.16"/>
        <rect class="cls-13" x="1501.81" y="294.36" width="157.95" height="8.16"/>
        <rect class="cls-9" x="1501.81" y="294.36" width="157.95" height="8.16"/>
        <rect x="1659.76" y="294.36" width="151.37" height="8.16"/>
        <rect class="cls-9" x="1659.76" y="294.36" width="151.37" height="8.16"/>
      </g>
      <g class="cls-1">
        <polygon class="cls-17" points="1856.28 283.31 1862.86 275.52 1869.44 269.05 1876.02 273.31 1882.61 255.59 1889.19 265 1895.77 256.53 1902.35 257.45 1908.93 261.7 1915.51 254.2 1922.09 254.6 1928.68 264.28 1935.26 267.68 1941.84 266.99 1948.42 265.47 1955 269.36 1961.58 274.4 1968.16 272.32 1974.75 276.39 1981.33 279.52 1987.91 280.76 1994.49 283.5 2001.07 286.12 2007.65 287.05 2014.23 290.15 2020.82 288.7 2027.4 269.05 2033.98 220.47 2040.56 242.2 2047.14 243.3 2053.72 265.27 2060.3 271.98 2066.89 257.28 2073.47 248.69 2080.05 263.43 2086.63 243.43 2093.21 255.69 2099.79 262.48 2106.37 247.94 2112.96 253.11 2119.54 245.9 2126.12 245.82 2132.7 234.72 2139.28 244.4 2145.86 257.53 2152.44 255.8 2159.03 263.67 2165.61 278.82 2165.61 283.46 2159.03 271.74 2152.44 266.32 2145.86 270.84 2139.28 261.73 2132.7 255.02 2126.12 263.36 2119.54 259.25 2112.96 263.15 2106.37 268.66 2099.79 275.43 2093.21 268.48 2086.63 264.33 2080.05 270.18 2073.47 271.11 2066.89 271.91 2060.3 278.74 2053.72 272.35 2047.14 272.12 2040.56 278.89 2033.98 260.59 2027.4 280.87 2020.82 289.81 2014.23 290.15 2007.65 288.95 2001.07 288.04 1994.49 287.14 1987.91 284.02 1981.33 283.28 1974.75 279.92 1968.16 277.17 1961.58 277.99 1955 274.44 1948.42 270.64 1941.84 272.1 1935.26 273.77 1928.68 272.05 1922.09 263.49 1915.51 265.25 1908.93 269.05 1902.35 265.81 1895.77 264.1 1889.19 270.93 1882.61 264.69 1876.02 276.98 1869.44 275.26 1862.86 280.31 1856.28 286.81 1856.28 283.31"/>
        <polyline class="cls-7" points="1856.28 285.06 1862.86 277.91 1869.44 272.15 1876.02 275.14 1882.61 260.14 1889.19 267.97 1895.77 260.32 1902.35 261.63 1908.93 265.38 1915.51 259.73 1922.09 259.05 1928.68 268.16 1935.26 270.72 1941.84 269.54 1948.42 268.05 1955 271.9 1961.58 276.2 1968.16 274.75 1974.75 278.16 1981.33 281.4 1987.91 282.39 1994.49 285.32 2001.07 287.08 2007.65 288 2014.23 290.15 2020.82 289.25 2027.4 274.96 2033.98 240.53 2040.56 260.55 2047.14 257.71 2053.72 268.81 2060.3 275.36 2066.89 264.6 2073.47 259.9 2080.05 266.8 2086.63 253.88 2093.21 262.08 2099.79 268.96 2106.37 258.3 2112.96 258.13 2119.54 252.57 2126.12 254.59 2132.7 244.87 2139.28 253.06 2145.86 264.18 2152.44 261.06 2159.03 267.71 2165.61 281.14"/>
        <polygon class="cls-16" points="1856.28 288.28 1862.86 277.21 1869.44 275.88 1876.02 271.46 1882.61 276.14 1889.19 267.62 1895.77 268.69 1902.35 263.44 1908.93 270.92 1915.51 266.73 1922.09 270.11 1928.68 262.84 1935.26 267.39 1941.84 273.37 1948.42 271.77 1955 274.56 1961.58 275.63 1968.16 279.97 1974.75 281.48 1981.33 279.85 1987.91 282.54 1994.49 287.28 2001.07 286.17 2007.65 288.23 2014.23 287.43 2020.82 275.98 2027.4 263.38 2033.98 228.5 2040.56 272.41 2047.14 236.99 2053.72 253.47 2060.3 263.04 2066.89 263.66 2073.47 263.14 2080.05 268.09 2086.63 260.66 2093.21 255.89 2099.79 227.04 2106.37 270.27 2112.96 247.53 2119.54 256.59 2126.12 262.46 2132.7 260.96 2139.28 267.98 2145.86 274.65 2152.44 263 2159.03 272.88 2165.61 279.75 2165.61 284.17 2159.03 278.92 2152.44 273.52 2145.86 280 2139.28 276.26 2132.7 272.68 2126.12 276.49 2119.54 275.58 2112.96 265.29 2106.37 280.8 2099.79 265.74 2093.21 267.03 2086.63 273.64 2080.05 276.06 2073.47 273.35 2066.89 272.32 2060.3 273.74 2053.72 270.19 2047.14 263.2 2040.56 281.22 2033.98 264.83 2027.4 280.19 2020.82 284.26 2014.23 289.6 2007.65 289.16 2001.07 287.9 1994.49 288.35 1987.91 285.57 1981.33 283.04 1974.75 285.1 1968.16 282.65 1961.58 280.28 1955 278.34 1948.42 279.35 1941.84 278.54 1935.26 274.79 1928.68 275.08 1922.09 275.66 1915.51 273.64 1908.93 277.48 1902.35 270.45 1895.77 277.58 1889.19 274.81 1882.61 281.39 1876.02 278.83 1869.44 282.24 1862.86 282.98 1856.28 289.75 1856.28 288.28"/>
        <polyline class="cls-5" points="1856.28 289.01 1862.86 280.1 1869.44 279.06 1876.02 275.15 1882.61 278.76 1889.19 271.22 1895.77 273.14 1902.35 266.94 1908.93 274.2 1915.51 270.18 1922.09 272.88 1928.68 268.96 1935.26 271.09 1941.84 275.95 1948.42 275.56 1955 276.45 1961.58 277.95 1968.16 281.31 1974.75 283.29 1981.33 281.44 1987.91 284.06 1994.49 287.82 2001.07 287.03 2007.65 288.69 2014.23 288.51 2020.82 280.12 2027.4 271.78 2033.98 246.66 2040.56 276.82 2047.14 250.1 2053.72 261.83 2060.3 268.39 2066.89 267.99 2073.47 268.24 2080.05 272.07 2086.63 267.15 2093.21 261.46 2099.79 246.39 2106.37 275.54 2112.96 256.41 2119.54 266.08 2126.12 269.48 2132.7 266.82 2139.28 272.12 2145.86 277.33 2152.44 268.26 2159.03 275.9 2165.61 281.96"/>
        <rect class="cls-13" x="1856.28" y="294.36" width="157.95" height="8.16"/>
        <rect class="cls-9" x="1856.28" y="294.36" width="157.95" height="8.16"/>
        <rect x="2014.23" y="294.36" width="151.37" height="8.16"/>
        <rect class="cls-9" x="2014.23" y="294.36" width="151.37" height="8.16"/>
        <rect class="cls-13" x="1856.28" y="294.36" width="157.95" height="8.16"/>
        <rect class="cls-9" x="1856.28" y="294.36" width="157.95" height="8.16"/>
        <rect x="2014.23" y="294.36" width="151.37" height="8.16"/>
        <rect class="cls-9" x="2014.23" y="294.36" width="151.37" height="8.16"/>
      </g>
      <g class="cls-2">
        <text class="cls-11" transform="translate(227.97 23.53)"><tspan x="0" y="0">CS</tspan></text>
      </g>
      <g class="cls-12">
        <text class="cls-11" transform="translate(551.86 23.53)"><tspan x="0" y="0">SIP−L2−1</tspan></text>
      </g>
      <g class="cls-24">
        <text class="cls-11" transform="translate(906.33 23.53)"><tspan x="0" y="0">SIP−L2−2</tspan></text>
      </g>
      <g class="cls-22">
        <text class="cls-11" transform="translate(1259.7 23.53)"><tspan x="0" y="0">SIP−S2−1</tspan></text>
      </g>
      <g class="cls-21">
        <text class="cls-11" transform="translate(1608.61 23.53)"><tspan x="0" y="0">SIP−S2−10</tspan></text>
      </g>
      <g class="cls-4">
        <text class="cls-11" transform="translate(1968.64 23.53)"><tspan x="0" y="0">SIP−S2−8</tspan></text>
      </g>
      <g class="cls-14">
        <text class="cls-11" transform="translate(2194.83 158.12) rotate(90)"><tspan x="0" y="0">M</tspan></text>
      </g>
      <line class="cls-8" x1="68.11" y1="302.52" x2="415.61" y2="302.52"/>
      <line class="cls-8" x1="83.91" y1="308.1" x2="83.91" y2="302.52"/>
      <line class="cls-8" x1="162.89" y1="308.1" x2="162.89" y2="302.52"/>
      <line class="cls-8" x1="241.86" y1="308.1" x2="241.86" y2="302.52"/>
      <line class="cls-8" x1="320.84" y1="308.1" x2="320.84" y2="302.52"/>
      <line class="cls-8" x1="399.82" y1="308.1" x2="399.82" y2="302.52"/>
      <text class="cls-10" transform="translate(77.24 324.14)"><tspan x="0" y="0" xml:space="preserve"> 0</tspan></text>
      <text class="cls-10" transform="translate(156.21 324.14)"><tspan x="0" y="0" xml:space="preserve"> 6</tspan></text>
      <text class="cls-10" transform="translate(232.97 324.14)"><tspan x="0" y="0">12</tspan></text>
      <text class="cls-10" transform="translate(311.94 324.14)"><tspan x="0" y="0">18</tspan></text>
      <text class="cls-10" transform="translate(390.92 324.14)"><tspan x="0" y="0">24</tspan></text>
      <line class="cls-8" x1="422.59" y1="302.52" x2="770.09" y2="302.52"/>
      <line class="cls-8" x1="438.38" y1="308.1" x2="438.38" y2="302.52"/>
      <line class="cls-8" x1="517.36" y1="308.1" x2="517.36" y2="302.52"/>
      <line class="cls-8" x1="596.34" y1="308.1" x2="596.34" y2="302.52"/>
      <line class="cls-8" x1="675.31" y1="308.1" x2="675.31" y2="302.52"/>
      <line class="cls-8" x1="754.29" y1="308.1" x2="754.29" y2="302.52"/>
      <text class="cls-10" transform="translate(431.71 324.14)"><tspan x="0" y="0" xml:space="preserve"> 0</tspan></text>
      <text class="cls-10" transform="translate(510.69 324.14)"><tspan x="0" y="0" xml:space="preserve"> 6</tspan></text>
      <text class="cls-10" transform="translate(587.44 324.14)"><tspan x="0" y="0">12</tspan></text>
      <text class="cls-10" transform="translate(666.42 324.14)"><tspan x="0" y="0">18</tspan></text>
      <text class="cls-10" transform="translate(745.4 324.14)"><tspan x="0" y="0">24</tspan></text>
      <line class="cls-8" x1="777.06" y1="302.52" x2="1124.56" y2="302.52"/>
      <line class="cls-8" x1="792.86" y1="308.1" x2="792.86" y2="302.52"/>
      <line class="cls-8" x1="871.83" y1="308.1" x2="871.83" y2="302.52"/>
      <line class="cls-8" x1="950.81" y1="308.1" x2="950.81" y2="302.52"/>
      <line class="cls-8" x1="1029.79" y1="308.1" x2="1029.79" y2="302.52"/>
      <line class="cls-8" x1="1108.77" y1="308.1" x2="1108.77" y2="302.52"/>
      <text class="cls-10" transform="translate(786.18 324.14)"><tspan x="0" y="0" xml:space="preserve"> 0</tspan></text>
      <text class="cls-10" transform="translate(865.16 324.14)"><tspan x="0" y="0" xml:space="preserve"> 6</tspan></text>
      <text class="cls-10" transform="translate(941.92 324.14)"><tspan x="0" y="0">12</tspan></text>
      <text class="cls-10" transform="translate(1020.89 324.14)"><tspan x="0" y="0">18</tspan></text>
      <text class="cls-10" transform="translate(1099.87 324.14)"><tspan x="0" y="0">24</tspan></text>
      <line class="cls-8" x1="1131.54" y1="302.52" x2="1479.04" y2="302.52"/>
      <line class="cls-8" x1="1147.33" y1="308.1" x2="1147.33" y2="302.52"/>
      <line class="cls-8" x1="1226.31" y1="308.1" x2="1226.31" y2="302.52"/>
      <line class="cls-8" x1="1305.29" y1="308.1" x2="1305.29" y2="302.52"/>
      <line class="cls-8" x1="1384.26" y1="308.1" x2="1384.26" y2="302.52"/>
      <line class="cls-8" x1="1463.24" y1="308.1" x2="1463.24" y2="302.52"/>
      <text class="cls-10" transform="translate(1140.66 324.14)"><tspan x="0" y="0" xml:space="preserve"> 0</tspan></text>
      <text class="cls-10" transform="translate(1219.64 324.14)"><tspan x="0" y="0" xml:space="preserve"> 6</tspan></text>
      <text class="cls-10" transform="translate(1296.39 324.14)"><tspan x="0" y="0">12</tspan></text>
      <text class="cls-10" transform="translate(1375.37 324.14)"><tspan x="0" y="0">18</tspan></text>
      <text class="cls-10" transform="translate(1454.34 324.14)"><tspan x="0" y="0">24</tspan></text>
      <line class="cls-8" x1="1486.01" y1="302.52" x2="1833.51" y2="302.52"/>
      <line class="cls-8" x1="1501.81" y1="308.1" x2="1501.81" y2="302.52"/>
      <line class="cls-8" x1="1580.78" y1="308.1" x2="1580.78" y2="302.52"/>
      <line class="cls-8" x1="1659.76" y1="308.1" x2="1659.76" y2="302.52"/>
      <line class="cls-8" x1="1738.74" y1="308.1" x2="1738.74" y2="302.52"/>
      <line class="cls-8" x1="1817.71" y1="308.1" x2="1817.71" y2="302.52"/>
      <text class="cls-10" transform="translate(1495.13 324.14)"><tspan x="0" y="0" xml:space="preserve"> 0</tspan></text>
      <text class="cls-10" transform="translate(1574.11 324.14)"><tspan x="0" y="0" xml:space="preserve"> 6</tspan></text>
      <text class="cls-10" transform="translate(1650.86 324.14)"><tspan x="0" y="0">12</tspan></text>
      <text class="cls-10" transform="translate(1729.84 324.14)"><tspan x="0" y="0">18</tspan></text>
      <text class="cls-10" transform="translate(1808.82 324.14)"><tspan x="0" y="0">24</tspan></text>
      <line class="cls-8" x1="1840.48" y1="302.52" x2="2187.98" y2="302.52"/>
      <line class="cls-8" x1="1856.28" y1="308.1" x2="1856.28" y2="302.52"/>
      <line class="cls-8" x1="1935.26" y1="308.1" x2="1935.26" y2="302.52"/>
      <line class="cls-8" x1="2014.23" y1="308.1" x2="2014.23" y2="302.52"/>
      <line class="cls-8" x1="2093.21" y1="308.1" x2="2093.21" y2="302.52"/>
      <line class="cls-8" x1="2172.19" y1="308.1" x2="2172.19" y2="302.52"/>
      <text class="cls-10" transform="translate(1849.61 324.14)"><tspan x="0" y="0" xml:space="preserve"> 0</tspan></text>
      <text class="cls-10" transform="translate(1928.58 324.14)"><tspan x="0" y="0" xml:space="preserve"> 6</tspan></text>
      <text class="cls-10" transform="translate(2005.34 324.14)"><tspan x="0" y="0">12</tspan></text>
      <text class="cls-10" transform="translate(2084.32 324.14)"><tspan x="0" y="0">18</tspan></text>
      <text class="cls-10" transform="translate(2163.29 324.14)"><tspan x="0" y="0">24</tspan></text>
      <line class="cls-8" x1="68.11" y1="302.52" x2="68.11" y2="30.38"/>
      <text class="cls-10" transform="translate(51.89 302.03)"><tspan x="0" y="0">0</tspan></text>
      <text class="cls-10" transform="translate(43 240.64)"><tspan x="0" y="0">50</tspan></text>
      <text class="cls-10" transform="translate(34.1 179.25)"><tspan x="0" y="0">100</tspan></text>
      <text class="cls-10" transform="translate(34.1 117.85)"><tspan x="0" y="0">150</tspan></text>
      <text class="cls-10" transform="translate(34.1 56.46)"><tspan x="0" y="0">200</tspan></text>
      <line class="cls-8" x1="62.53" y1="296.29" x2="68.11" y2="296.29"/>
      <line class="cls-8" x1="62.53" y1="234.9" x2="68.11" y2="234.9"/>
      <line class="cls-8" x1="62.53" y1="173.5" x2="68.11" y2="173.5"/>
      <line class="cls-8" x1="62.53" y1="112.11" x2="68.11" y2="112.11"/>
      <line class="cls-8" x1="62.53" y1="50.72" x2="68.11" y2="50.72"/>
      <text class="cls-11" transform="translate(1090.83 348.63)"><tspan x="0" y="0">Time (h)</tspan></text>
      <text class="cls-11" transform="translate(21.33 274.28) rotate(-90)"><tspan x="0" y="0">Sleep Bout Length (min)</tspan></text>
      <rect class="cls-17" x="2232.31" y="149.17" width="25.11" height="17.28"/>
      <line class="cls-7" x1="2234.83" y1="157.81" x2="2254.91" y2="157.81"/>
      <rect class="cls-16" x="2232.31" y="166.45" width="25.11" height="17.28"/>
      <line class="cls-5" x1="2234.83" y1="175.09" x2="2254.91" y2="175.09"/>
      <text class="cls-10" transform="translate(2262.9 163.56)"><tspan x="0" y="0">G</tspan><tspan class="cls-19" x="12.45" y="0">r</tspan><tspan x="18.24" y="0">p</tspan></text>
      <text class="cls-10" transform="translate(2262.9 180.84)"><tspan x="0" y="0">Iso</tspan></text>
    </g>
  </g>
</svg>